<svg xmlns="http://www.w3.org/2000/svg" viewBox="0 0 215.8 426.66"><defs><style>.cls-1,.cls-11{fill:#fff;}.cls-12,.cls-2,.cls-8{fill:none;}.cls-10,.cls-11,.cls-12,.cls-2,.cls-3,.cls-5,.cls-7,.cls-8{stroke:#000;stroke-linecap:round;stroke-linejoin:round;}.cls-10,.cls-11,.cls-2,.cls-3,.cls-5,.cls-7{stroke-width:3.41px;}.cls-3,.cls-4{fill:#f2e5da;}.cls-5,.cls-6{fill:#dc9680;}.cls-7{fill:#d87b5b;}.cls-8{stroke-width:2.56px;}.cls-10,.cls-9{fill:#9c806d;}.cls-12{stroke-width:2.9px;}</style></defs><g id="Layer_2" data-name="Layer 2"><g id="レイヤー_1" data-name="レイヤー 1"><path class="cls-1" d="M30.25,206.86c-21.49,9.7-12.38,14.79-23.74,59.36-8.93,35-.49,58.89,20.76,61.2,3.88.43,11.05,1.61,18.56-19.56Z"/><path class="cls-2" d="M23.77,208.67c-13.77,8.24-7.89,23.66-19.44,66,0,0-13.63,59.6,30.74,51.44"/><path class="cls-1" d="M27,425h152l-4.85-78.14,5.08-138.64s-18.85-12.77-46.75-19.09c-17.11-3.87-44.26-3.1-58.9-.16a143.34,143.34,0,0,0-48,19.18l6.35,138.71Z"/><path class="cls-3" d="M135.79,220.84c5.55-7.63,5.39-16.73,5.39-21.56,0-9.27-8.3-10.29-38.78-10.29s-40.3.84-40.3,10.11c0,4.84-.53,14,4.74,21.74,0,0,11.54,8.64,35.56,8.64S135.79,220.84,135.79,220.84Z"/><path class="cls-4" d="M120,146.41c.26,14.23,1.57,33.15,6,49.65H77.29c4.19-15.69,5.6-35,6-49.65Z"/><path class="cls-2" d="M120.17,153c.58,14.56,2.19,29.14,5.79,43.09"/><path class="cls-2" d="M77.29,196.06c3.37-13.06,5.42-30.29,6.14-43.9"/><path class="cls-2" d="M69.26,189.79S44,199.06,27.69,206.51"/><path class="cls-2" d="M135,189s27.7,10.41,43.73,17.52"/><path class="cls-5" d="M81.78,172S50.15,200.5,50.57,236.38l9-.08s3.78-26,19.41-49.85Z"/><path class="cls-5" d="M122,172s30.31,28.49,29.89,64.37h-8.06s-4.7-26.54-19.7-49.93Z"/><path class="cls-6" d="M178.76,426.41l-2-28.08a237.24,237.24,0,0,1-5.09-24.24c-2.82-17.65-5.36-41.49-7.55-58.28-3.56-27.33-1.79-79.07-1.79-79.07s-30.39-3.22-60.69-1.2a507.31,507.31,0,0,1-59.77,0s2.16,42.07-2.59,83.11c-2.85,24.65-8.37,62.22-12.43,81-.36,1.66-.59,15.27-.72,26.75Z"/><path class="cls-2" d="M26,425c.49-5.15.87-25.3.87-25.3s4.38-18.7,4.89-23.92c2.36-24,5.15-36.4,7.54-57.09,4.75-41,2.59-83.11,2.59-83.11a507.31,507.31,0,0,0,59.77,0c30.3-2,60.69,1.2,60.69,1.2s-3.09,51.94,1.79,79.07c2.07,11.47,5.21,37.46,8.16,63.63.75,6.64,4.48,18.89,4.48,18.89s.58,20.18,1.27,26.63"/><path class="cls-5" d="M60.31,243.08a4.52,4.52,0,1,1-4.52-4.52A4.53,4.53,0,0,1,60.31,243.08Z"/><path class="cls-5" d="M151.9,243.08a4.52,4.52,0,1,1-4.52-4.52A4.53,4.53,0,0,1,151.9,243.08Z"/><path class="cls-2" d="M29.74,302s3.06,63.84.56,82"/><path class="cls-2" d="M174.07,307.4s-1.21,67.5,1.52,85.91"/><path class="cls-2" d="M142.05,147.63s4.92,8.22-.94,15.18"/><path class="cls-2" d="M65.86,144.45S60,152,64.93,159.62"/><path class="cls-3" d="M66.87,123.23c2,7.6,6.43,20.85-.58,22.72S52,144.5,46.3,129.66c-2.84-7.34.54-16.65,7.55-18.51S64.84,115.63,66.87,123.23Z"/><path class="cls-3" d="M142.34,127.87c-2.94,7.3-9,19.91-2.21,22.62s14.32.31,21.84-13.71c3.71-6.93,1.5-16.58-5.23-19.3S145.28,120.57,142.34,127.87Z"/><path class="cls-4" d="M152.14,98.17c-.67,39.52-18.39,83.45-50.23,81.49-32.27-2-45-49.92-41.09-88.18,3.59-35.23,26.05-51.83,50.07-49.9C134.63,43.49,152.71,64,152.14,98.17Z"/><path class="cls-2" d="M61.52,121.54s.83,52,37.09,57.92"/><path class="cls-2" d="M148.7,126.91s-7,51.47-43.78,52.93"/><path class="cls-7" d="M55.54,143.77A4,4,0,1,0,59.79,140,4,4,0,0,0,55.54,143.77Z"/><path class="cls-7" d="M143.16,149.17a4,4,0,1,0,4.25-3.76A4,4,0,0,0,143.16,149.17Z"/><path d="M129.49,124.47c-.19,3-2.33,5.22-4.8,5.06s-4.31-2.66-4.13-5.61,2.33-5.21,4.79-5.06S129.67,121.52,129.49,124.47Z"/><path d="M89.24,122c-.18,3-2.33,5.21-4.79,5.07s-4.32-2.67-4.14-5.62,2.33-5.21,4.79-5.06S89.42,119.05,89.24,122Z"/><path class="cls-2" d="M91.8,104.65s-6.9,9.4-16.2,5.39"/><path class="cls-2" d="M119.34,106.35s5.69,10.17,15.41,7.34"/><line class="cls-2" x1="103.66" y1="140.86" x2="103.51" y2="143.37"/><path class="cls-1" d="M109.25,159.77c-.12,1.77-3.14,1.86-6.85,1.63s-6.7-.69-6.59-2.45,3.21-3,6.92-2.8S109.35,158,109.25,159.77Z"/><path class="cls-8" d="M99.67,161.2c-2.34-.32-3.94-.91-3.86-2.22.11-1.76,3.2-3,6.91-2.79s6.63,1.85,6.52,3.62c-.08,1.28-1.7,1.68-4,1.72"/><path class="cls-9" d="M132.48,41.23a20.6,20.6,0,1,1-14.26-25.41A20.6,20.6,0,0,1,132.48,41.23Z"/><path class="cls-2" d="M130.63,27.16c2.32,4.48,2.52,8.78,1,14A20.61,20.61,0,1,1,128,22.81"/><path class="cls-2" d="M112.79,21.21S102.37,23,99.88,39.47"/><path class="cls-2" d="M121.61,31.3s2.8,8.19-1.72,13.64"/><path class="cls-10" d="M131.6,44.68c38.48,18.92,20.62,71.41,20.62,71.41-10.39-3.5-17.4-16.82-25.07-42.35-6.8,15.13-29.82,28-66.84,38.27,0,0-12.66-48,23.19-66.53C98.17,37.91,116.79,37.4,131.6,44.68Z"/><path class="cls-2" d="M127.15,73.74s.58,21.24-22,29.74"/><path class="cls-2" d="M87,59.79s-22.91,10.68-24.22,32"/><path class="cls-2" d="M145,77.53s4.64,9.59,4.08,18.77"/><path class="cls-2" d="M92.74,82.42s-3.77,8.52-16,14.06"/><path class="cls-11" d="M80,206.8c11.94,6.19,16.21,20,12.66,21.07-2.87.82-14.69.28-25.9-6.05S56.78,202.33,58,202.33C60.1,202.33,67.42,200.3,80,206.8Z"/><path class="cls-3" d="M53.85,219,68,196.71c-3.55-6.92-10.46-17.32-13-20.21-3.38-3.91-3.89-23.75-5.18-27.08a2,2,0,0,1,.1-1.71l4.87-9.25c2.36-7.5,6.4-6.37,6.4-6.37l-5.13,14.17a64.21,64.21,0,0,0,.49,9.08c.58,4.63,1.73,9.34,1.73,9.34a77.07,77.07,0,0,1-1.73-9.34,57.66,57.66,0,0,1-.27-9.45L60,135.57l1-2.84c3.55-3.64,5.4-1.67,5.27.88s-3.75,14.82-3.75,14.82c-.08.33,3.22,14.69,3.22,14.69s0-10.54,0-10.77l5-10.84c1.7-3.88,5.24-3.16,5.09,1s-3.07,14-3.07,14c.51,2.78,2.26,13.12,2.26,13.12,17.67,12.5,14.4,27.63,14.4,27.63.09,1.21-15.16,37.1-16.36,37.12Z"/><path class="cls-1" d="M57.21,297.88c11.15-22.37,21.16-37.9,37.38-71.79,0,0-14-.21-25.06-9.28-6.71-5.49-12.32-13.72-12.32-13.72S24,259,16.36,278.92c0,0-15,32.81,11.9,44.17C39.94,328,52.67,307,57.21,297.88Z"/><path class="cls-2" d="M37.57,325.22c13.45-9.6,39.58-65.77,56.51-98.93a37.55,37.55,0,0,1-26-10.84c-9.76-9.76-10.35-14.57-11.89-11.52,0,0-38,58.77-44,82.14"/><path class="cls-2" d="M8.77,278.43a29.19,29.19,0,0,1,14.7-18.61"/><path class="cls-11" d="M66.39,334.27c-1,10.42-.88,18-4.07,17.71s-5-7.38-3.94-17.8,3.33-17.53,6.53-17.28S67.42,323.84,66.39,334.27Z"/><path class="cls-4" d="M73.13,336c-1.49,4.06-.85,7.14-4.51,8.71-2.51,1.08-10.31.15-18.2-.51-2.7.06-20.15,2.7-36.45-9.83-11.92-9.15-15.49-28.45-7.06-15.51-2.18-3-6.39-6.71-5-7.75,2.17-1.68,2.32-3.43,15.38,8.09,5.19,3,7.38,3.38,9.17,3.51,2.45.18,7.62,2.31,9.6,2.92,5.36.45,5.35-3.83,5.24-3.94-2.92-2.86-6-3.2-9.19-4.69-3.71-1.71-11.91-7.49-11.53-9.28,1.35-6.34,9,.58,15.86,1.68,3.35.54,11.3,1.41,13.85,2.23,13.31,4.22,21.19,10.06,22.63,15.78C73.54,330.06,74,333.54,73.13,336Z"/><path class="cls-2" d="M7.36,319.24c2.09,3.5,7.64,9.42,11.78,10.76s7.63,2.84,9.65,3"/><path class="cls-2" d="M28.34,338.63a70.08,70.08,0,0,1-13.21-3.31"/><path class="cls-2" d="M65.19,345.1a112,112,0,0,1-14.66-.38c-2.71.06-20.16,2.71-36.46-9.83C2.16,325.74-1.42,306.45,7,319.38c-2.18-3-6.39-6.7-5-7.75C4.13,310,4.43,307,17.49,318.56c5.61,2.36,7.13,4,8.92,4.11,2.45.18,7.16,1.72,9.14,2.33,5.36.45,4.83-3.29,4.73-3.4-2.77-3.07-5-3.15-8.22-4.64-3.71-1.71-11.89-7.84-11.51-9.62,1.35-6.35,8.85-.42,15.84,2.07,3.19,1.13,11.3,1.36,13.85,2.18,12.07,3.82,16.93,7.61,21.63,13.14"/><path class="cls-1" d="M179.07,206.52c-1.14-.43-4.34,8.4-8,21.32-2,7-4.16,15.49-6.31,24.64-2.77,11.75-5.5,24.69-7.76,37.41-1.69,9.5-5,14.53-5,20.81-25.23,1.83-49.22,6-86.75,6.76,0,0,3.53,2.23,2,14.87-1.58,13.14-3.94,17.87-3.94,17.87s82.1.68,101.81-.84c0,0,14.13.87,18.87-13.52,7.4-16.89,15-50.38,18.37-71.66C208.42,226.18,194.11,212.26,179.07,206.52Z"/><path class="cls-2" d="M183.16,335.76c8.07-15.29,14.67-48.53,18.17-69.81,6.23-38-6.47-53.7-22-59.44"/><path class="cls-2" d="M166.87,241.6c-2.76,11.75-8.59,37.34-10.86,50.06-1.69,9.5-2.77,13.32-4,19.62-23.34-.78-45.43,5.56-87.09,5.62,0,0,3.93,5.09,2.41,17.73-1.58,13.14-5,17.35-5,17.35s82.09.67,101.8-.85c0,0,12.65.07,16.28-10.28"/><path class="cls-2" d="M170.87,310.56s-7.55-1.83-18.87.72c0,0,6.47,2.84,11.47,4.53"/><path class="cls-12" d="M214.35,21.49A98.33,98.33,0,0,0,191.28,4.84a27.11,27.11,0,0,0-9.94-3.28c-2.46-.22-6.61-.36-8.08,2.13a4.3,4.3,0,0,0-.18,3.2,17.18,17.18,0,0,0,2.77,5.44c4.75,6.68,11.42,11.58,18.37,15.75,2.52,1.51,6.67,4.69,9.75,4.33a1.46,1.46,0,0,0,.9-.37c1.18-1.25-1.46-4-2.31-4.74A60.63,60.63,0,0,0,187,17c-4.72-2.09-13.11-5.3-18.07-2.44-9.67,5.59,7.66,20.72,11.7,23.77,3.29,2.49,7.67,6.42,12.14,5.94,3.61-.39-.6-4.61-1.54-5.53a45.86,45.86,0,0,0-12.28-8.47c-4.22-2-9.35-4.38-14.15-4.08-7.06.43-2.61,8.41-.47,11.59a46,46,0,0,0,8.39,9.34c2.74,2.31,6.24,5.31,9.92,5.76a3.1,3.1,0,0,0,1.42-.08c1.8-.63.92-2.81,0-3.8a14,14,0,0,0-7.3-4.55c-5.52-1.15-10.83,3.24-8.78,9A23.34,23.34,0,0,0,173,61"/></g></g></svg>