<svg xmlns="http://www.w3.org/2000/svg" viewBox="0 0 414.38 52.29"><defs><style>.cls-1{fill:#ccb355;}.cls-1,.cls-2,.cls-3{fill-rule:evenodd;}.cls-2{fill:#0f132c;}.cls-3{fill:#bc2321;}.cls-4{fill:#c59600;}</style></defs><g id="Layer_2" data-name="Layer 2"><g id="レイヤー_1" data-name="レイヤー 1"><path class="cls-1" d="M0,26c0-.54,0-1.08,0-1.61a8.41,8.41,0,0,1,.13-1.23,4.17,4.17,0,0,0,.08-.71c0-.15.06-.3.08-.45,0-.41.12-.81.21-1.22s.14-.6.19-.91.17-.63.26-.94c0,0,0-.07,0-.11A14.41,14.41,0,0,1,1.58,17c.21-.61.47-1.19.74-1.78S3,13.79,3.38,13.11s.77-1.27,1.19-1.87l.72-1c.12-.15.26-.29.38-.45A16.15,16.15,0,0,1,6.8,8.42c.5-.53,1-1,1.56-1.55.29-.26.56-.54.87-.78.7-.54,1.38-1.11,2.12-1.59.52-.33,1-.67,1.56-1L14,2.92a10.8,10.8,0,0,1,1.08-.53c.49-.22,1-.43,1.48-.62a2.71,2.71,0,0,1,.67-.25,1.55,1.55,0,0,0,.36-.13c.35-.13.72-.22,1.07-.34.5-.16,1-.26,1.5-.39S20.9.51,21.29.42s.69-.12,1-.19a.93.93,0,0,1,.29,0A7.62,7.62,0,0,0,23.67.1a2.94,2.94,0,0,1,.51,0C25.07,0,26,0,26.84,0a8.34,8.34,0,0,1,1.32.06,6.76,6.76,0,0,0,1.27.13,1.91,1.91,0,0,1,.33.06c.56.08,1.11.19,1.66.31.34.07.69.16,1,.25s.64.15.95.25.83.24,1.22.42c.17.07.35.1.52.17l1.21.5a15.91,15.91,0,0,1,1.57.73c.73.39,1.45.8,2.14,1.26.51.34,1,.68,1.51,1s.77.61,1.15.92a20.64,20.64,0,0,1,2.15,2c.57.63,1.13,1.27,1.64,1.94s.81,1.1,1.19,1.67.82,1.32,1.19,2c.23.43.45.88.66,1.33.09.19.19.38.26.57s.27.6.38.91.18.52.29.77a2.46,2.46,0,0,1,.19.58,1.09,1.09,0,0,0,.12.36,1.43,1.43,0,0,1,.07.28c.12.27.14.57.26.84a.82.82,0,0,1,.07.31.49.49,0,0,0,0,.12c.12.34.14.7.25,1,0,.07,0,.15,0,.22.08.51.15,1,.22,1.53,0,.19.08.39.1.58s0,.41,0,.61,0,.24,0,.36c0,.83.09,1.66.07,2.49a2,2,0,0,1,0,.24,1.17,1.17,0,0,0,0,.32c0,.46,0,.92,0,1.38a1.85,1.85,0,0,1-.07.41,4.48,4.48,0,0,0-.11.62,11.22,11.22,0,0,1-.27,1.64,5.43,5.43,0,0,0-.21,1.05v0a5.61,5.61,0,0,0-.26.79s0,0,0,.06a4.44,4.44,0,0,1-.21.71,8.11,8.11,0,0,1-.41,1.17c-.07.16-.12.33-.18.5-.21.52-.45,1-.69,1.53a20.65,20.65,0,0,1-1.56,2.8,20.76,20.76,0,0,1-1.7,2.36c-.38.44-.73.9-1.13,1.32-.59.61-1.18,1.22-1.83,1.77s-1,.88-1.54,1.28c-.74.54-1.49,1.07-2.28,1.55-.34.2-.68.41-1,.59s-1,.52-1.46.73c-.2.08-.39.2-.59.27a7.31,7.31,0,0,1-1,.4,4.47,4.47,0,0,0-.46.19c-.33.13-.67.24-1,.34s-.79.23-1.19.34-1.1.27-1.65.41h-.09a4.38,4.38,0,0,0-.87.14,2.08,2.08,0,0,1-.36,0,4.6,4.6,0,0,0-.73.11,4.54,4.54,0,0,1-.9.06,9,9,0,0,0-1.27.09H25.48a1.9,1.9,0,0,1-.58-.05h-.12c-.48,0-1,0-1.45,0a2.34,2.34,0,0,1-.45-.07c-.28-.06-.57-.09-.85-.13l-.23,0c-.51-.11-1-.18-1.53-.3-.22,0-.44-.1-.66-.13a5.4,5.4,0,0,1-.84-.26l-.31-.08c-.24-.07-.49-.14-.73-.23s-.44-.14-.66-.23c-.39-.17-.79-.32-1.19-.47s-.73-.33-1.1-.49-.67-.33-1-.51-.49-.27-.74-.4-.42-.26-.63-.39c-.47-.29-.95-.58-1.39-.91a23.85,23.85,0,0,1-2.16-1.71c-.27-.26-.58-.48-.85-.74S7.23,44,6.87,43.59s-.61-.68-.9-1-.64-.78-.93-1.19-.6-.84-.88-1.28-.57-.92-.84-1.39-.5-.87-.71-1.33S2.16,36.47,2,36a3.88,3.88,0,0,0-.23-.56A4.78,4.78,0,0,1,1.56,35c-.17-.51-.36-1-.5-1.53s-.31-1-.41-1.57c-.07-.37-.14-.75-.24-1.11a1.77,1.77,0,0,1-.07-.46c0-.2-.08-.4-.1-.6-.06-.4-.1-.79-.15-1.19A17.41,17.41,0,0,1,0,26ZM24.63,1.72c-.33,0-.66,0-1,.07s-.4.08-.6.09c-.4,0-.79.1-1.18.14a10.06,10.06,0,0,1-1.22.22.45.45,0,0,0-.11,0c-.32.14-.68.17-1,.28-.08,0-.18,0-.26.05a4.53,4.53,0,0,1-1,.29.21.21,0,0,0-.1,0,1.46,1.46,0,0,1-.39.16,3.54,3.54,0,0,0-.55.18c-.34.17-.71.29-1.06.46s-.79.34-1.17.53-1,.56-1.55.86-1.24.79-1.84,1.21-.85.69-1.29,1L10,7.63c-.47.4-.9.86-1.35,1.29a22.33,22.33,0,0,0-2,2.32c-.25.31-.47.65-.71,1s-.6.91-.89,1.38-.51.88-.73,1.34-.33.62-.46.94c-.07.16-.16.32-.22.49s-.18.42-.26.63-.12.24-.15.37a5,5,0,0,1-.24.68c-.16.43-.27.86-.4,1.3a4,4,0,0,0-.26,1,.13.13,0,0,1,0,.06,1.83,1.83,0,0,0-.12.46,2.66,2.66,0,0,1-.11.47.58.58,0,0,0,0,.18c0,.5-.16,1-.2,1.48,0,.26-.1.52-.12.79,0,.5-.06,1-.06,1.51s0,1.14,0,1.72,0,.88.08,1.31.12.83.16,1.25a3.89,3.89,0,0,1,.09.47c0,.42.17.81.22,1.22,0,.12.09.23.1.35a3.4,3.4,0,0,0,.15.63c.06.2.12.39.17.59s.17.56.25.84.11.34.17.5l.3.75c.12.3.23.6.37.89s.18.41.28.61.26.54.4.8.28.49.41.74a21.33,21.33,0,0,0,1.38,2.16c.22.32.48.62.71.94.38.52.84,1,1.26,1.46A11.07,11.07,0,0,0,9.74,44c.3.24.56.54.87.78.72.55,1.44,1.11,2.21,1.6l1.27.77c.49.29,1,.54,1.5.78a4.28,4.28,0,0,0,.44.2l.66.26c.4.16.8.33,1.22.47s.72.25,1.09.36c.55.18,1.12.31,1.68.45a2.2,2.2,0,0,1,.43.09,1.33,1.33,0,0,0,.45.08,1.23,1.23,0,0,1,.19,0,8,8,0,0,0,1,.16,5.84,5.84,0,0,0,.73.11c.46,0,.92.06,1.38,0a.47.47,0,0,1,.17,0,1.11,1.11,0,0,0,.36,0h1a2.44,2.44,0,0,0,.76-.06,1.85,1.85,0,0,1,.24,0l.82,0a11.13,11.13,0,0,0,1.16-.14A2.63,2.63,0,0,0,29.8,50a3.13,3.13,0,0,1,.6-.1,3.1,3.1,0,0,0,.53-.1c.33-.07.65-.17,1-.24a7.79,7.79,0,0,0,.83-.22c.31-.11.63-.17.93-.29l.65-.23c.34-.11.67-.27,1-.4.13,0,.26-.13.4-.18a8.47,8.47,0,0,0,.87-.38c.61-.31,1.22-.63,1.81-1s1-.65,1.54-1,1.16-.85,1.7-1.32c.29-.25.58-.5.86-.76s.74-.73,1.1-1.1.64-.72,1-1.08A20.05,20.05,0,0,0,46,39.69c.2-.29.39-.59.59-.89.34-.54.63-1.1.95-1.66a8.52,8.52,0,0,0,.4-.8c.14-.3.27-.6.39-.91s.14-.38.23-.57a3.41,3.41,0,0,0,.27-.69c.14-.47.34-.92.46-1.39.06-.24.15-.47.2-.72s.14-.69.23-1,.14-.87.24-1.3.05-.63.13-.94,0-.32.07-.47,0-.54,0-.8,0-.59.06-.88c0-.46,0-.93,0-1.4a1.62,1.62,0,0,0,0-.22c-.06-.36,0-.72-.07-1.07s0-.45-.06-.67L50,22.6a3.69,3.69,0,0,0-.12-.81.76.76,0,0,1,0-.21,1.48,1.48,0,0,0-.09-.51,1.83,1.83,0,0,1-.09-.39,5,5,0,0,0-.2-.85c-.15-.52-.27-1-.46-1.56-.13-.36-.27-.71-.4-1.07a2.43,2.43,0,0,0-.13-.38c-.17-.33-.31-.68-.46-1l-.57-1.15a13.67,13.67,0,0,0-.77-1.34c-.31-.49-.62-1-.95-1.44s-.54-.7-.81-1.06a15.77,15.77,0,0,0-1.24-1.45A17.81,17.81,0,0,0,42,7.76a20.9,20.9,0,0,0-2-1.59c-.3-.21-.58-.44-.89-.63s-.83-.48-1.24-.72A15.78,15.78,0,0,0,36.42,4c-.51-.24-1-.44-1.56-.67-.24-.1-.48-.16-.72-.26a2.69,2.69,0,0,0-.51-.2A4.32,4.32,0,0,1,33,2.71l-.72-.19a9.94,9.94,0,0,0-1.41-.33h-.08a6.3,6.3,0,0,0-1.5-.27c-.5,0-1-.14-1.5-.17l-1.29-.05C25.87,1.68,25.25,1.67,24.63,1.72Z"/><path class="cls-2" d="M24.63,1.72c.62-.05,1.24,0,1.86,0l1.29.05c.51,0,1,.12,1.5.17a6.3,6.3,0,0,1,1.5.27h.08a9.94,9.94,0,0,1,1.41.33l.72.19a4.32,4.32,0,0,0,.64.19,2.69,2.69,0,0,1,.51.2c.24.1.48.16.72.26.52.23,1,.43,1.56.67a15.78,15.78,0,0,1,1.46.79c.41.24.83.47,1.24.72s.59.42.89.63a20.9,20.9,0,0,1,2,1.59,17.81,17.81,0,0,1,1.65,1.6,15.77,15.77,0,0,1,1.24,1.45c.27.36.56.7.81,1.06s.64,1,.95,1.44a13.67,13.67,0,0,1,.77,1.34L48,15.8c.15.34.29.69.46,1a2.43,2.43,0,0,1,.13.38c.13.36.27.71.4,1.07.19.51.31,1,.46,1.56a5,5,0,0,1,.2.85,1.83,1.83,0,0,0,.09.39,1.48,1.48,0,0,1,.09.51.76.76,0,0,0,0,.21,3.69,3.69,0,0,1,.12.81l.12.69c0,.22,0,.45.06.67s0,.71.07,1.07a1.62,1.62,0,0,1,0,.22c0,.47,0,.94,0,1.4,0,.29,0,.59-.06.88s0,.53,0,.8,0,.31-.07.47-.06.64-.13.94-.12.87-.24,1.3-.16.68-.23,1-.14.48-.2.72c-.12.47-.32.92-.46,1.39a3.41,3.41,0,0,1-.27.69c-.09.19-.15.38-.23.57s-.25.61-.39.91a8.52,8.52,0,0,1-.4.8c-.32.56-.61,1.12-.95,1.66-.2.3-.39.6-.59.89a20.05,20.05,0,0,1-1.44,1.89c-.32.36-.62.74-1,1.08s-.72.74-1.1,1.1-.57.51-.86.76c-.54.47-1.12.9-1.7,1.32s-1,.68-1.54,1-1.2.68-1.81,1a8.47,8.47,0,0,1-.87.38c-.14.05-.27.13-.4.18-.34.13-.67.29-1,.4l-.65.23c-.3.12-.62.18-.93.29a7.79,7.79,0,0,1-.83.22c-.33.07-.65.17-1,.24a3.1,3.1,0,0,1-.53.1,3.13,3.13,0,0,0-.6.1,2.63,2.63,0,0,1-.49.07,11.13,11.13,0,0,1-1.16.14l-.82,0a1.85,1.85,0,0,0-.24,0,2.44,2.44,0,0,1-.76.06h-1a1.11,1.11,0,0,1-.36,0,.47.47,0,0,0-.17,0c-.46,0-.92,0-1.38,0a5.84,5.84,0,0,1-.73-.11,8,8,0,0,1-1-.16,1.23,1.23,0,0,0-.19,0,1.33,1.33,0,0,1-.45-.08,2.2,2.2,0,0,0-.43-.09c-.56-.14-1.13-.27-1.68-.45-.37-.11-.72-.24-1.09-.36s-.82-.31-1.22-.47L16,48.17a4.28,4.28,0,0,1-.44-.2c-.5-.24-1-.49-1.5-.78l-1.27-.77c-.77-.49-1.49-1.05-2.21-1.6-.31-.24-.57-.54-.87-.78a11.07,11.07,0,0,1-1.56-1.5c-.42-.48-.88-.94-1.26-1.46-.23-.32-.49-.62-.71-.94A21.33,21.33,0,0,1,4.83,38c-.13-.25-.28-.49-.41-.74s-.26-.53-.4-.8-.18-.41-.28-.61-.25-.59-.37-.89l-.3-.75C3,34,3,33.86,2.9,33.69s-.19-.55-.25-.84-.11-.39-.17-.59a3.4,3.4,0,0,1-.15-.63c0-.12-.09-.23-.1-.35,0-.41-.19-.8-.22-1.22a3.89,3.89,0,0,0-.09-.47c0-.42-.09-.83-.16-1.25s-.05-.87-.08-1.31,0-1.15,0-1.72,0-1,.06-1.51c0-.27.11-.53.12-.79,0-.5.17-1,.2-1.48a.58.58,0,0,1,0-.18,2.66,2.66,0,0,0,.11-.47,1.83,1.83,0,0,1,.12-.46.13.13,0,0,0,0-.06,4,4,0,0,1,.26-1c.13-.44.24-.87.4-1.3a5,5,0,0,0,.24-.68c0-.13.11-.24.15-.37s.19-.42.26-.63.15-.33.22-.49c.13-.32.3-.63.46-.94S4.78,14,5,13.6s.57-.94.89-1.38.46-.67.71-1a22.33,22.33,0,0,1,2-2.32C9.12,8.49,9.55,8,10,7.63l.34-.28c.44-.33.84-.71,1.29-1s1.21-.84,1.84-1.21,1-.59,1.55-.86.78-.35,1.17-.53.72-.29,1.06-.46a3.54,3.54,0,0,1,.55-.18,1.46,1.46,0,0,0,.39-.16.21.21,0,0,1,.1,0,4.53,4.53,0,0,0,1-.29c.08,0,.18,0,.26-.05.33-.11.69-.14,1-.28a.45.45,0,0,1,.11,0A10.06,10.06,0,0,0,21.86,2c.39,0,.78-.13,1.18-.14.2,0,.4-.07.6-.09S24.3,1.72,24.63,1.72Zm-16,15.56.06-.2a.06.06,0,0,0,0-.07,1.05,1.05,0,0,0,.12-.31c.06-.09.17-.16.13-.29a.29.29,0,0,0,0-.09l.11-.13s.06-.08,0-.12A.11.11,0,0,0,9,16s-.08,0-.09.09a1.44,1.44,0,0,0-.25.18s0,0,0,0l-1.4.78-.9.54c-.11.07-.19,0-.23-.09s-.13-.43-.2-.64-.2-.55-.28-.83-.24-.59-.32-.9a2.08,2.08,0,0,0-.12-.32s0-.08-.1-.07-.06.06-.07.1a.92.92,0,0,1-.07.32c-.15.35-.29.72-.44,1.07a.42.42,0,0,0,0,.31c.06.19.14.36.21.54.12.38.26.76.41,1.13a.56.56,0,0,1,0,.61l0,.07c-.09.15-.12.16-.28.09L4,18.75l-.33-.13c-.09,0-.16,0-.17.06s-.13.29-.17.44a2.91,2.91,0,0,1-.23.55c-.06.13-.06.15.07.22a2.17,2.17,0,0,0,.42.17c.42.19.84.37,1.27.53s1,.38,1.43.58l.51.21A.12.12,0,0,0,7,21.31c.06-.13.13-.26.18-.4a4,4,0,0,1,.22-.53c.09-.18.07-.26-.13-.32s-.65-.24-1-.38l-.19-.1a.13.13,0,0,1,0-.19,1,1,0,0,0,.11-.24.46.46,0,0,1,.27-.26l.16-.07L8.21,18a.57.57,0,0,0,.33-.42.62.62,0,0,1,.1-.22S8.68,17.31,8.66,17.28ZM7.54,27.59c0,.13,0,.26,0,.38a7,7,0,0,1,.12.78,2.07,2.07,0,0,0,.12.65,3,3,0,0,1,.06.32,10,10,0,0,0,.26,1.11c.07.24.16.47.21.7s.19.51.26.78a4,4,0,0,0,.25.65c.15.29.25.61.4.89s.37.77.59,1.13.45.79.71,1.16.64.94,1,1.37.64.8,1,1.16A18.37,18.37,0,0,0,13.9,40c.39.31.77.63,1.17.93s.6.41.9.61.71.43,1.07.63l.72.39c.29.14.59.25.87.39s.79.33,1.19.47l.78.26c.25.07.5.15.76.21s.65.17,1,.21c.14,0,.27.08.41.1.31,0,.61.05.91.11a7.81,7.81,0,0,0,1.45.12,17.78,17.78,0,0,0,1.93,0h.07a4,4,0,0,0,1.2-.11l.37,0a4.84,4.84,0,0,0,.65-.09c.43-.07.86-.17,1.28-.28a14.88,14.88,0,0,0,1.48-.45l.61-.22c.35-.14.69-.29,1-.45s.55-.25.82-.4.65-.38,1-.56a12.87,12.87,0,0,0,1.44-1,16.68,16.68,0,0,0,1.32-1.07c.57-.55,1.15-1.1,1.67-1.71a17.62,17.62,0,0,0,1.38-1.81,17.36,17.36,0,0,0,1-1.6c.26-.5.51-1,.72-1.53l.45-1.14a2.43,2.43,0,0,0,.17-.52,7,7,0,0,0,.25-1,.14.14,0,0,1,0-.06c.12-.32.14-.67.25-1a.93.93,0,0,0,0-.24,1.74,1.74,0,0,1,0-.34,3.09,3.09,0,0,0,.11-.8,3.12,3.12,0,0,1,.11-1,.47.47,0,0,0,0-.17c0-.54,0-1.08,0-1.63a1.53,1.53,0,0,0,0-.43,2.61,2.61,0,0,1-.09-.73,9.87,9.87,0,0,0-.29-1.95L44,22c0-.29-.12-.58-.19-.87s-.22-.69-.33-1-.21-.68-.36-1-.37-.86-.59-1.28-.49-.95-.77-1.41a17.54,17.54,0,0,0-1.14-1.67c-.44-.57-.92-1.11-1.41-1.64-.31-.32-.64-.62-1-.92s-.56-.49-.85-.71-.56-.42-.85-.63-.74-.51-1.13-.74-.66-.39-1-.56l-1-.47c-.18-.08-.36-.13-.53-.21a2.57,2.57,0,0,0-.52-.21c-.26-.07-.51-.18-.77-.27s-.45-.11-.66-.19a4,4,0,0,0-.75-.21c-.42,0-.81-.21-1.22-.22h0a4.46,4.46,0,0,0-1-.13,2.69,2.69,0,0,1-.63-.06,1,1,0,0,0-.24,0,3,3,0,0,1-.52,0,3.4,3.4,0,0,0-1.31,0,.48.48,0,0,1-.17,0,1.13,1.13,0,0,0-.41,0,4.37,4.37,0,0,1-.88.08,2.71,2.71,0,0,0-.4,0c-.45.12-.92.12-1.36.28a.3.3,0,0,1-.13,0,4.93,4.93,0,0,0-1,.24c-.27.07-.55.15-.82.24l-.63.23c-.34.14-.69.27-1,.43s-.84.41-1.25.62-.62.35-.93.53-.77.5-1.14.76A15.65,15.65,0,0,0,13.77,12c-.37.35-.77.65-1.11,1-.2.21-.38.44-.58.66s-.37.42-.55.63a17.42,17.42,0,0,0-1.15,1.6,17,17,0,0,0-1,1.76,3,3,0,0,0-.16.3,4.42,4.42,0,0,1-.27.63c-.14.32-.28.64-.39,1s-.21.59-.29.89-.16.5-.22.75c-.1.4-.17.81-.27,1.21s-.07.61-.13.91A10.71,10.71,0,0,0,7.49,25,19.39,19.39,0,0,0,7.54,27.59Zm28.53,15.1a2,2,0,0,0-.75.23c-.3.16-.61.28-.91.43s-.84.37-1.25.57l-.94.46a3,3,0,0,1-.41.17c-.14,0-.16.07-.14.21a.44.44,0,0,0,.08.2,7.71,7.71,0,0,1,.42.87c.22.48.43,1,.64,1.43l.22.46c.1.22.19.44.3.65s.09.1.18.05l.57-.27c.41-.21.84-.4,1.26-.59l.89-.4,1-.44a1.61,1.61,0,0,0,.59-.41A1,1,0,0,0,38,45.18c0-.07,0-.14-.06-.2s-.1-.35-.17-.51a5.46,5.46,0,0,0-.48-.93,1.67,1.67,0,0,0-.57-.61A1.36,1.36,0,0,0,36.07,42.69ZM33.38,5.08c.08,0,.1.07.1.14a1.36,1.36,0,0,0,.07.35c.13.32.16.66.3,1a.13.13,0,0,1,0,.06q.11.48.24,1c.08.29.16.57.22.87a.36.36,0,0,0,.22.3l1.17.51a2.62,2.62,0,0,1,.45.21c.12.07.12.06.2-.06a6.42,6.42,0,0,0,.3-.66l.28-.63c.12-.31.27-.6.38-.91s.17-.39.25-.58a2.71,2.71,0,0,1,.17-.39,3.32,3.32,0,0,0,.2-.47c0-.1,0-.17-.11-.19a1.28,1.28,0,0,1-.27-.11l-.7-.3c-.07,0-.13,0-.16,0-.12.26-.24.52-.35.78s-.17.44-.27.65-.26.58-.39.88c0,.07,0,.21-.13.2s-.1-.13-.12-.22-.07-.39-.13-.58a9.85,9.85,0,0,0-.28-1,.24.24,0,0,1,0-.09,9.18,9.18,0,0,0-.28-1.15,1.42,1.42,0,0,1,0-.22.42.42,0,0,0-.29-.35l-.94-.41a3,3,0,0,1-.57-.27c-.12-.08-.19-.05-.24.08s-.12.31-.2.46-.16.37-.24.56-.25.62-.4.93-.31.72-.48,1.07a2,2,0,0,1-.26.53c-.08.08-.06.14,0,.2a3.18,3.18,0,0,0,.32.16c.18.08.36.14.52.23s.16.1.28,0a.47.47,0,0,0,.09-.12c.12-.35.29-.67.42-1s.38-.8.52-1.23A.17.17,0,0,1,33.38,5.08ZM12.93,43.58a.64.64,0,0,0,.69,0,1.42,1.42,0,0,0,.68-.6,1.27,1.27,0,0,0,.25-.49,2.18,2.18,0,0,0,0-.57.39.39,0,0,0-.06-.18,4.15,4.15,0,0,0-.46-.56c-.21-.2-.44-.37-.64-.57s-.61-.59-.92-.86-.82-.69-1.21-1.07l-.07-.06c-.07,0-.12-.06-.17,0a.88.88,0,0,1-.18.25L9.68,40.18,9,40.93a8,8,0,0,1-.56.6c-.16.13-.16.19,0,.34l.66.6c.16.16.25.16.4,0l.4-.45c.11-.13.16-.13.28,0l.49.46c.29.29.63.53.92.83a.37.37,0,0,1,0,.53,1.93,1.93,0,0,1-.35.35c-.09.07-.1.13,0,.21.26.26.55.5.82.77a.18.18,0,0,0,.28,0l.14-.18a2.91,2.91,0,0,0,.33-.37.64.64,0,0,0,.13-.77A.24.24,0,0,1,12.93,43.58ZM22.06,6.23a1.67,1.67,0,0,0-.37-1.1.87.87,0,0,0-1-.39l-.17,0L19.83,5l-.72.21c-.3.09-.61.16-.91.27s-.28.06-.42-.1-.1-.2,0-.32a1,1,0,0,1,.39-.21,9.88,9.88,0,0,1,1.19-.42,1.86,1.86,0,0,1,.34-.07.28.28,0,0,1,.29.13.2.2,0,0,0,.25.09,8.75,8.75,0,0,0,.87-.27.37.37,0,0,0,.14-.07c.11-.07.12-.13,0-.23l-.14-.25a1.06,1.06,0,0,0-.34-.36,1.08,1.08,0,0,0-.91-.12c-.48.12-1,.25-1.41.41s-.94.34-1.4.53a1.2,1.2,0,0,0-.69.77.92.92,0,0,0-.05.4,2.39,2.39,0,0,0,.35.88.86.86,0,0,0,.82.43,5.06,5.06,0,0,0,.85-.22l.84-.25c.31-.1.62-.17.92-.3a1.22,1.22,0,0,1,.26-.06.25.25,0,0,1,.28.19.26.26,0,0,1-.06.31.46.46,0,0,1-.19.13,3.35,3.35,0,0,0-.55.23c-.22.1-.46.13-.69.21a3,3,0,0,1-.4.11c-.25.07-.47.07-.6-.21a.14.14,0,0,0-.2-.06,2.42,2.42,0,0,1-.7.24c-.36.11-.4.16-.29.51a1,1,0,0,0,.76.68,2.6,2.6,0,0,0,.68,0l.08,0c.16-.06.34-.1.51-.15a4.63,4.63,0,0,0,.61-.17c.25-.11.53-.16.79-.27s.7-.24,1-.39a.83.83,0,0,0,.58-.89ZM48.89,31.08v-.21a1.22,1.22,0,0,0-.67-1,4,4,0,0,0-.67-.22c-.21-.05-.41-.13-.63-.18l-.64-.17a.83.83,0,0,0-.54,0,1.18,1.18,0,0,0-.68.52,3,3,0,0,0-.17.41l-.5,1.38a.85.85,0,0,0,0,.17,7.94,7.94,0,0,1-.22.8,4,4,0,0,0-.21,1.07,1.13,1.13,0,0,0,.66,1c.27.12.56.19.83.29a9.27,9.27,0,0,0,1,.29,1.11,1.11,0,0,0,.51,0,1.81,1.81,0,0,0,.76-.49,1.71,1.71,0,0,0,.21-.4,4.28,4.28,0,0,0,.25-.68c.09-.28.19-.55.27-.84s.16-.57.25-.86a1.38,1.38,0,0,1,.08-.29A1.6,1.6,0,0,0,48.89,31.08ZM6.33,13.48a.92.92,0,0,0,.25.77c.08.09.18.16.27.25a10.36,10.36,0,0,0,1.21,1,1.33,1.33,0,0,0,.85.29,1.29,1.29,0,0,0,.95-.54L10,15.1a25,25,0,0,0,1.85-2.36,1.27,1.27,0,0,0,.25-.84,1.15,1.15,0,0,0-.43-.88c-.36-.3-.74-.58-1.11-.87a2.82,2.82,0,0,0-.63-.37,1,1,0,0,0-.63,0,1.69,1.69,0,0,0-.7.48c-.36.39-.71.79-1,1.2s-.64.86-1,1.29A1.06,1.06,0,0,0,6.33,13.48Zm37,27.83a1.15,1.15,0,0,0,0-.45,2.27,2.27,0,0,0-.3-.46c-.39-.44-.81-.83-1.22-1.24a.92.92,0,0,0-.73-.3h-.19a.6.6,0,0,0-.36.1A16.86,16.86,0,0,0,39,40.15c-.4.33-.74.72-1.11,1.06a1.9,1.9,0,0,0-.51.82.58.58,0,0,0,0,.32,1.8,1.8,0,0,0,.43.86c.24.26.48.53.7.81a2.62,2.62,0,0,0,.49.45,1.2,1.2,0,0,0,1,.26,1.42,1.42,0,0,0,.49-.25,11.27,11.27,0,0,0,1-.84c.53-.48,1.05-1,1.54-1.49A.92.92,0,0,0,43.34,41.31Zm-14.56,4.9.36,0c.17,0,.21,0,.21-.21s0-.39,0-.59-.07-.23-.26-.22a2.27,2.27,0,0,1-.45,0c-.46,0-.92,0-1.38,0l-.21,0c-.37,0-.74,0-1.1.08,0,0,0,0-.06,0a1.61,1.61,0,0,0-.49,0,1.37,1.37,0,0,1-.35,0h-.26a.13.13,0,0,0-.14.15,3.5,3.5,0,0,1,0,.65c0,.44.05.88,0,1.32a1.27,1.27,0,0,0,.06.47.5.5,0,0,1,0,.21,1.41,1.41,0,0,0,0,.41,2.16,2.16,0,0,1,0,.76c0,.2.07.28.26.24a4,4,0,0,1,.6,0c.39,0,.78,0,1.18,0h.06c.39-.08.78,0,1.18-.08a3.31,3.31,0,0,0,.7-.06h.59c.16,0,.2,0,.16-.2a1.23,1.23,0,0,1,0-.27c0-.13,0-.25,0-.38s-.07-.22-.23-.18a1.46,1.46,0,0,1-.36,0c-.42,0-.83,0-1.24,0a5.73,5.73,0,0,1-.82.05.41.41,0,0,0-.22,0,.68.68,0,0,1-.4,0c-.12,0-.15-.06-.15-.18a1,1,0,0,0,0-.25c0-.15,0-.19.16-.2h.69a1.11,1.11,0,0,0,.26,0,1.92,1.92,0,0,1,.53-.06c.38,0,.75-.07,1.13-.06l.24,0c.09,0,.15-.07.13-.16a3,3,0,0,1,0-.52.19.19,0,0,0-.24-.2c-.1,0-.2,0-.3,0l-1.8,0a.47.47,0,0,0-.17,0,1.47,1.47,0,0,1-.51,0,.16.16,0,0,1-.18-.16,1.09,1.09,0,0,1,0-.36c0-.06.05-.11.11-.1a2.47,2.47,0,0,0,.61,0,2.76,2.76,0,0,0,.76-.07h.08C28,46.25,28.37,46.18,28.78,46.21Zm-3.16-41,.75,0c.23,0,.28,0,.28.26s0,.7,0,1c0,.19.05.22.24.21a4.82,4.82,0,0,1,.93,0c.12,0,.17,0,.18-.15a1,1,0,0,0,0-.25C28,5.74,28,5.17,28,4.6c0-.26,0-.53,0-.78a4.17,4.17,0,0,1,0-.7c0-.16,0-.31,0-.46s-.09-.24-.19-.22a2,2,0,0,0-.43,0,1.23,1.23,0,0,1-.57,0c-.14,0-.2,0-.17.17a4.83,4.83,0,0,1,0,1.14c0,.15-.06.21-.21.2a2.18,2.18,0,0,0-.25,0c-.32,0-.65,0-1,0a1.7,1.7,0,0,0-.39,0,5.78,5.78,0,0,1-.72,0c-.14,0-.19-.08-.18-.21a1.24,1.24,0,0,1,0-.27,2.94,2.94,0,0,0-.09-.83.14.14,0,0,0-.16-.15c-.3,0-.6,0-.9,0s-.31.13-.29.35a.65.65,0,0,0,.05.2,1,1,0,0,1,.05.23c0,.52,0,1,0,1.56,0,.2,0,.4,0,.6s0,.4,0,.61,0,.28,0,.42,0,.24.23.26.68-.05,1-.05c.12,0,.17-.06.16-.19a5.62,5.62,0,0,0,0-.92,1.22,1.22,0,0,1,0-.27c0-.16,0-.19.19-.18C24.59,5.26,25.1,5.2,25.62,5.23ZM3.79,33.93a1.82,1.82,0,0,0,.07.25c.08.25.14.5.23.75a1.55,1.55,0,0,1,.12.47.35.35,0,0,0,.06.17.13.13,0,0,0,.14.08c.06,0,.07-.06.09-.11a2.21,2.21,0,0,1,0-.25c.14-.34.29-.68.41-1s.18-.38.24-.58.26-.61.35-.93c0-.1.08-.12.17-.08l.09,0c.45.29.9.57,1.34.87a6.63,6.63,0,0,1,.88.57.25.25,0,0,0,.16.06c.09,0,.11,0,.08-.1a6.54,6.54,0,0,1-.3-1c0-.16-.09-.31-.13-.47a.44.44,0,0,0-.12-.18,2.45,2.45,0,0,0-.5-.34L6,31.45a.68.68,0,0,1-.3-.56c0-.07,0-.14.09-.15s.39-.14.59-.17a4,4,0,0,0,.61-.2c.08,0,.11-.07.08-.16-.09-.3-.18-.61-.28-.91a.89.89,0,0,0-.08-.17c-.06-.1-.11-.13-.2-.07a3.69,3.69,0,0,1-.56.19,8.92,8.92,0,0,1-1,.31.16.16,0,0,0-.09,0,2.67,2.67,0,0,1-.4.13c-.28.11-.57.17-.85.26s-.48.16-.72.22-.2.07-.14.24c0,0,0,0,0,.07a6.83,6.83,0,0,1,.27.91.15.15,0,0,0,.15.12.45.45,0,0,0,.16,0,10,10,0,0,1,1.06-.33.17.17,0,0,1,.24.09.75.75,0,0,1,0,.67,5.67,5.67,0,0,0-.28.61,9.56,9.56,0,0,1-.43,1A2,2,0,0,0,3.79,33.93ZM16.69,8.27a.75.75,0,0,0-.1-.42,3.17,3.17,0,0,0-.37-.58c-.28-.41-.58-.81-.85-1.22s-.38-.5-.54-.77c-.05-.09-.14-.09-.22,0l-.16.13c-.22.18-.47.32-.7.48s-.11.13,0,.23l.13.17c.44.61.87,1.23,1.29,1.85a.45.45,0,0,1-.07.61,5.13,5.13,0,0,1-.6.44,6.53,6.53,0,0,1-1,.64.29.29,0,0,1-.3,0A.44.44,0,0,1,13,9.66c-.36-.46-.66-1-1-1.42-.15-.19-.27-.4-.41-.6a.21.21,0,0,0-.37,0,2.53,2.53,0,0,1-.42.31l-.37.25a.12.12,0,0,0,0,.18c.32.44.64.89.95,1.34s.43.62.63.94a1.38,1.38,0,0,0,1.37.51,3.6,3.6,0,0,0,1-.47c.22-.14.42-.3.64-.43a7.23,7.23,0,0,0,1.27-1A1.29,1.29,0,0,0,16.69,8.27ZM41,9.08h-.63a.72.72,0,0,1-.7-.26c-.12-.1-.13-.18,0-.3l.18-.18a7.92,7.92,0,0,1,.61-.69c.07-.06.06-.15,0-.22-.28-.23-.56-.46-.81-.71a.14.14,0,0,0-.21,0l-.1.11L38,8.31c-.39.45-.77.91-1.19,1.34-.12.11-.12.16,0,.26s.55.46.8.7c.1.09.12.09.2,0s.29-.32.43-.49.26-.33.4-.49.11-.09.19,0l.31.28a.15.15,0,0,1,.07.11,3.07,3.07,0,0,1,.07.42,3.76,3.76,0,0,0,.1.75,2.36,2.36,0,0,1,.1.74.64.64,0,0,0,.28.61l0,0a10.36,10.36,0,0,1,1,1s.08.07.13,0,0-.09,0-.14,0-.21-.07-.31c-.07-.4-.11-.8-.21-1.19s-.12-.8-.22-1.2a1.66,1.66,0,0,1,0-.32.11.11,0,0,1,.11-.14h.12c.41,0,.81,0,1.22,0a9.2,9.2,0,0,0,1,0h.23c.1,0,.23.08.28,0s-.08-.17-.16-.24-.23-.16-.32-.26-.47-.42-.7-.63a.33.33,0,0,0-.25-.07C41.74,9.09,41.39,9.07,41,9.08ZM18,44.36v-.58a.29.29,0,0,0-.16-.26c-.4-.23-.83-.4-1.24-.64a.23.23,0,0,0-.26,0c-.58.42-1.18.8-1.76,1.19l-1.35.9a3.62,3.62,0,0,1-.58.38c-.05,0-.11,0-.11.1a.14.14,0,0,0,.1.17,3.29,3.29,0,0,1,.46.23,3.78,3.78,0,0,1,.53.27.21.21,0,0,0,.28,0l.43-.31a.29.29,0,0,1,.34,0c.38.19.76.38,1.13.59s.45.22.67.33.19.1.19.19.1.36.06.55a.18.18,0,0,0,.05.19.67.67,0,0,0,.26.19l.22.11.67.38c.14.07.24,0,.22-.16a.89.89,0,0,1,0-.23.54.54,0,0,0,0-.28.58.58,0,0,1,0-.23A5.08,5.08,0,0,0,18,46.21s0,0,0-.06C18.05,45.55,18,45,18,44.36ZM5,36c-.1,0-.2,0-.3,0s-.19.07-.12.2a.35.35,0,0,0,0,.08c.2.3.4.6.59.91a.26.26,0,0,0,.29.14l.17,0c.47-.08.45-.08.7.3s.69,1.05,1,1.58a.26.26,0,0,1,0,.27,2.61,2.61,0,0,1-.24.43.32.32,0,0,0,0,.4c.19.3.41.58.58.9a.28.28,0,0,0,.07.09c.08.08.15.08.19,0a6,6,0,0,1,.34-.67c.15-.26.29-.54.43-.8s.39-.71.58-1.06.45-.91.72-1.34c.13-.21.13-.22,0-.43L10,36.88c-.22-.34-.43-.68-.66-1a.24.24,0,0,0-.26-.11c-.23,0-.46.07-.7.09s-.61,0-.91,0c-.46,0-.91.06-1.36.06h0A8.44,8.44,0,0,1,5,36Zm38.8-22H41.58c-.06,0-.13,0-.17.05s0,.1.05.15c.18.31.36.62.52.94a.23.23,0,0,0,.25.15h.52a.22.22,0,0,1,.24.14c.09.17.19.33.29.5L44,17.32a.23.23,0,0,1,0,.26c-.1.16-.19.32-.3.47s-.1.14,0,.27a8.48,8.48,0,0,1,.52.93,1.14,1.14,0,0,0,.1.19c.06.11.11.11.17,0l.09-.17c.45-.7.89-1.4,1.33-2.1l1-1.54a.27.27,0,0,0,0-.32,4.17,4.17,0,0,1-.26-.46c-.13-.22-.24-.44-.37-.65a.35.35,0,0,0-.35-.22ZM24,45.53c0-.13-.05-.2-.16-.21a4,4,0,0,0-.67-.13.16.16,0,0,1-.09,0c-.4-.13-.81-.19-1.21-.3l-.28,0a6.65,6.65,0,0,0-1.25-.28l-.13,0c-.32-.12-.67-.14-1-.26-.13-.05-.2,0-.21.14a2.52,2.52,0,0,1-.17.72c-.06.18,0,.23.17.26.35.06.7.16,1.06.22.13,0,.25.09.39.11s.14.06.1.13a4.21,4.21,0,0,0-.09.49c-.15.43-.2.89-.31,1.33l-.24.89c0,.1,0,.15.07.2a.9.9,0,0,0,.36.12A1.58,1.58,0,0,1,21,49a.39.39,0,0,0,.21,0c.12,0,.15,0,.16-.14a1.65,1.65,0,0,1,0-.32,10.75,10.75,0,0,0,.33-1.47s0,0,0-.06a3,3,0,0,0,.19-.78c0-.16.09-.21.26-.18l.17,0a1.72,1.72,0,0,0,.21.07,8.3,8.3,0,0,1,1.1.24c.14,0,.18,0,.2-.13a4.92,4.92,0,0,1,.15-.61A1.13,1.13,0,0,0,24,45.53Zm20.08-5.36a.81.81,0,0,0,.35-.05,1.72,1.72,0,0,0,.72-.52,7.29,7.29,0,0,0,1.3-2.22.56.56,0,0,0,0-.42,1.73,1.73,0,0,0-.7-.81c-.63-.39-1.24-.8-1.86-1.21a2.39,2.39,0,0,1-.34-.21c-.14-.13-.19-.12-.3,0l-.06.1c-.17.23-.3.49-.48.71s-.11.2.05.3l2.06,1.33a.42.42,0,0,1,.21.43.7.7,0,0,1-.14.37,2,2,0,0,1-.47.6.37.37,0,0,1-.53,0l-.06,0a.2.2,0,0,0-.31.09,6,6,0,0,1-.45.71.54.54,0,0,0-.09.12.13.13,0,0,0,0,.19c.16.09.3.2.45.3A1,1,0,0,0,44.11,40.17ZM29.69,2.85c-.11,0-.16,0-.15.16a1.75,1.75,0,0,1-.13.68.57.57,0,0,0,0,.18c0,.44-.17.85-.2,1.29s-.19,1-.32,1.55c-.05.19,0,.28.21.3a5.35,5.35,0,0,1,.68.11l.26.07c.13,0,.19,0,.22-.14a1.47,1.47,0,0,0,.08-.35c0-.5.26-1,.25-1.45.14-.43.12-.9.28-1.33a.07.07,0,0,0,0,0A1.77,1.77,0,0,1,31,3.23c.05-.1,0-.16-.11-.19A3,3,0,0,1,30.54,3,4.33,4.33,0,0,0,29.69,2.85Zm14.65,17.3a.25.25,0,0,0,0,.07,7.21,7.21,0,0,1,.31,1c0,.13.1.17.23.1a1,1,0,0,1,.38-.11.49.49,0,0,0,.16-.05,7.46,7.46,0,0,0,.8-.26.3.3,0,0,1,.13,0,1.1,1.1,0,0,0,.26-.06c.25-.08.49-.18.75-.24a7.76,7.76,0,0,0,1.22-.37c.14-.06.14-.06.1-.21a6.09,6.09,0,0,1-.17-.61,2.4,2.4,0,0,0-.12-.38c-.06-.16-.12-.18-.28-.12l-.31.11-1.19.35-.79.22c-.24.05-.47.13-.7.2a3.94,3.94,0,0,1-.49.14.47.47,0,0,0-.2.06C44.37,20,44.34,20.05,44.34,20.15Z"/><path class="cls-1" d="M7.54,27.59a19.39,19.39,0,0,1,0-2.64,10.71,10.71,0,0,1,.16-1.59c.06-.3.06-.61.13-.91s.17-.81.27-1.21c.06-.25.15-.5.22-.75s.19-.59.29-.89.25-.65.39-1A4.42,4.42,0,0,0,9.22,18a3,3,0,0,1,.16-.3,17,17,0,0,1,1-1.76,17.42,17.42,0,0,1,1.15-1.6c.18-.21.35-.43.55-.63s.38-.45.58-.66c.34-.38.74-.68,1.11-1a15.65,15.65,0,0,1,1.33-1.08c.37-.26.75-.52,1.14-.76s.61-.37.93-.53S18,9.22,18.42,9s.69-.29,1-.43l.63-.23c.27-.09.55-.17.82-.24a4.93,4.93,0,0,1,1-.24.3.3,0,0,0,.13,0c.44-.16.91-.16,1.36-.28a2.71,2.71,0,0,1,.4,0,4.37,4.37,0,0,0,.88-.08,1.13,1.13,0,0,1,.41,0,.48.48,0,0,0,.17,0,3.4,3.4,0,0,1,1.31,0,3,3,0,0,0,.52,0,1,1,0,0,1,.24,0,2.69,2.69,0,0,0,.63.06,4.46,4.46,0,0,1,1,.13h0c.41,0,.8.17,1.22.22a4,4,0,0,1,.75.21c.21.08.44.12.66.19s.51.2.77.27a2.57,2.57,0,0,1,.52.21c.17.08.35.13.53.21l1,.47c.34.17.67.36,1,.56s.77.48,1.13.74.57.41.85.63.57.47.85.71.66.6,1,.92c.49.53,1,1.07,1.41,1.64a17.54,17.54,0,0,1,1.14,1.67c.28.46.53.93.77,1.41s.4.85.59,1.28.24.67.36,1,.24.69.33,1,.15.58.19.87l0,.17a9.87,9.87,0,0,1,.29,1.95,2.61,2.61,0,0,0,.09.73,1.53,1.53,0,0,1,0,.43c0,.55,0,1.09,0,1.63a.47.47,0,0,1,0,.17,3.12,3.12,0,0,0-.11,1,3.09,3.09,0,0,1-.11.8,1.74,1.74,0,0,0,0,.34.93.93,0,0,1,0,.24c-.11.33-.13.68-.25,1a.14.14,0,0,0,0,.06,7,7,0,0,1-.25,1,2.43,2.43,0,0,1-.17.52L43,33.07c-.21.52-.46,1-.72,1.53a17.36,17.36,0,0,1-1,1.6A17.62,17.62,0,0,1,40,38c-.52.61-1.1,1.16-1.67,1.71A16.68,16.68,0,0,1,37,40.79a12.87,12.87,0,0,1-1.44,1c-.32.18-.64.38-1,.56s-.55.28-.82.4-.69.31-1,.45l-.61.22a14.88,14.88,0,0,1-1.48.45c-.42.11-.85.21-1.28.28a4.84,4.84,0,0,1-.65.09l-.37,0a4,4,0,0,1-1.2.11H27a17.78,17.78,0,0,1-1.93,0,7.81,7.81,0,0,1-1.45-.12c-.3-.06-.6-.07-.91-.11-.14,0-.27-.09-.41-.1-.33,0-.65-.15-1-.21s-.51-.14-.76-.21l-.78-.26c-.4-.14-.8-.3-1.19-.47s-.58-.25-.87-.39L17,42.13c-.36-.2-.73-.4-1.07-.63s-.61-.4-.9-.61-.78-.62-1.17-.93a18.37,18.37,0,0,1-1.36-1.29c-.36-.36-.67-.77-1-1.16s-.68-.9-1-1.37-.47-.77-.71-1.16-.39-.75-.59-1.13-.25-.6-.4-.89a4,4,0,0,1-.25-.65c-.07-.27-.21-.51-.26-.78s-.14-.46-.21-.7a10,10,0,0,1-.26-1.11,3,3,0,0,0-.06-.32,2.07,2.07,0,0,1-.12-.65A7,7,0,0,0,7.56,28C7.54,27.85,7.55,27.72,7.54,27.59ZM40.4,15.51h0a.66.66,0,0,0-.16-.28c-.31-.37-.58-.77-.91-1.12-.11-.12-.21-.25-.32-.36a11.79,11.79,0,0,0-.94-.93L37.16,12a16.35,16.35,0,0,0-1.58-1.15,20.42,20.42,0,0,0-2.16-1.18A14.63,14.63,0,0,0,31.72,9a2.67,2.67,0,0,0-.4-.13A1.53,1.53,0,0,0,31,8.84a17,17,0,0,0-1.7-.44.52.52,0,0,0-.17,0l-.27,0L28,8.21l-.25,0a.08.08,0,0,0-.07.05.08.08,0,0,0,.05.08l.06,0a3.85,3.85,0,0,1,1.24.79A4.43,4.43,0,0,1,30,10.36a5.37,5.37,0,0,1,.46,1.27,2.65,2.65,0,0,1,.09.68v.46a2.13,2.13,0,0,1-.13.83.64.64,0,0,0-.06.18,2.35,2.35,0,0,1-.28.78,4.81,4.81,0,0,1-.51.81.29.29,0,0,0,0,.32l.09.21c.14.27.27.55.41.82l.6,1.21c.13.25.27.5.38.77a.25.25,0,0,0,.23.18c.39,0,.77.14,1.15.18s.62.13.93.15.76.09,1.13.15.34.06.56-.22a5.68,5.68,0,0,1,1-1,5.33,5.33,0,0,1,.88-.54,6.55,6.55,0,0,1,.85-.29c.33-.11.67,0,1-.13a11,11,0,0,1,1.27.16,6.6,6.6,0,0,1,1.39.61,4.59,4.59,0,0,1,.78.68.32.32,0,0,0,0,.14c.05.09.13.13.19.09a.11.11,0,0,0,0-.16c-.1-.11-.12-.25-.22-.35l-.08-.09a4,4,0,0,0-.42-.86c-.22-.35-.41-.72-.64-1.06s-.35-.55-.55-.8C40.43,15.52,40.42,15.51,40.4,15.51ZM31.79,22.8a2.59,2.59,0,0,1,.32-.67.36.36,0,0,0,0-.44,2.6,2.6,0,0,0-.66-.58.23.23,0,0,0-.28,0,1.14,1.14,0,0,1-.62.17h-1.3c-.19,0-.38-.07-.57-.06s-.12-.08-.09-.16l.07-.11a1,1,0,0,0,.05-.64.13.13,0,0,0-.06-.09,1.33,1.33,0,0,0-.27-.26.61.61,0,0,0-.88,0l0,0a.36.36,0,0,0-.05.5.74.74,0,0,1,.15.57c0,.19-.05.23-.23.2a1.35,1.35,0,0,0-.4,0,4.33,4.33,0,0,1-1,.07,5.2,5.2,0,0,0-1.18.2.56.56,0,0,0-.24.13c-.14.11-.15.19,0,.33s.22.23.34.34a.68.68,0,0,1,.18.38c0,.3.05.6.05.91a2.78,2.78,0,0,1-.25,1.24.27.27,0,0,0,0,.26,1.35,1.35,0,0,0,.47.61.19.19,0,0,1-.13.21s-.13,0-.14.11a3.16,3.16,0,0,0-.45.51s0,0,0,.06l0,.06a.26.26,0,0,0,0,.39,1.25,1.25,0,0,0,.23.23c.06.08.14.07.22.08a4.2,4.2,0,0,0,.79-.05.64.64,0,0,0,.4-.11h.16c.28,0,.56-.06.84,0a1,1,0,0,0,.43-.05.26.26,0,0,1,.36.24,2.81,2.81,0,0,1,0,.29c0,.14,0,.17-.19.17-.51,0-1,0-1.51,0a.79.79,0,0,1-.34-.06.39.39,0,0,0-.56.19,3.29,3.29,0,0,0-.21.42.44.44,0,0,0,.19.58.53.53,0,0,0,.37.06,3.2,3.2,0,0,0,.67-.14,1.37,1.37,0,0,1,.45-.07c.32,0,.64,0,1,0,.13,0,.18,0,.19.15v.37c0,.17,0,.19-.18.18s-.41,0-.61,0-.35.05-.53.07-.63.08-.95.11-.55.1-.83.14a.47.47,0,0,1-.36-.09.31.31,0,0,0-.3-.07.78.78,0,0,0-.37.26,3.56,3.56,0,0,0-.36.7.59.59,0,0,0,.58.75.73.73,0,0,0,.2-.05,4.14,4.14,0,0,1,.59-.21c.41-.1.8-.27,1.22-.33s.74-.13,1.11-.16.8-.07,1.2-.06.53,0,.8,0a6,6,0,0,1,.61.06c.31,0,.6.16.92.18l.16.05a4.8,4.8,0,0,0,.63.15c.15,0,.3.09.45.11A1.34,1.34,0,0,0,32.6,31a3.51,3.51,0,0,0,1-.82.28.28,0,0,0,.08-.22c0-.17,0-.21-.21-.18l-.32,0c-.32,0-.64,0-1,0a5.28,5.28,0,0,1-1.05-.05c-.39-.06-.78-.09-1.17-.18l-.13,0H28.71a.13.13,0,0,1-.12-.16c0-.1,0-.2,0-.3s0-.22.2-.21.48,0,.73,0c.43,0,.86,0,1.3,0a.61.61,0,0,0,.42-.19.26.26,0,0,0,.1-.19c.06-.34-.3-.57-.55-.58s-.74,0-1.11,0-.54,0-.81,0-.22,0-.21-.22a1.48,1.48,0,0,0,0-.21c0-.22,0-.24.23-.23.5,0,1,0,1.51,0l.36,0a4.51,4.51,0,0,0,.9,0s0,0,0,0a.91.91,0,0,0,.31-.27c.07-.05.15-.12.11-.21a.48.48,0,0,0-.15-.22,1.09,1.09,0,0,0-.26-.22c0-.07-.08-.05-.13-.06l-.09,0a.54.54,0,0,0-.35-.11l-.34,0a3.76,3.76,0,0,0-.75,0H29.7s-.08,0-.13,0h-2c-.05,0-.1,0-.14,0h-.56a2.29,2.29,0,0,0-.64,0c-.21,0-.43.06-.65.07L25.38,26c0-.13,0-.14.09-.15a.53.53,0,0,0,.4-.1c.1,0,.22,0,.33-.07a.78.78,0,0,0,.43,0,1.31,1.31,0,0,1,.39-.05h.32s.08,0,.09,0l.24,0a2.5,2.5,0,0,0,.67,0h.14a3.76,3.76,0,0,0,.75,0h.16c0,.07.07.05.11.05H30a1.45,1.45,0,0,1,.29,0,1.31,1.31,0,0,0,.59.06.51.51,0,0,0,.38-.05c.06,0,.08,0,.09-.05l.07-.05s.05,0,0,0l.12-.12s0,0,0,0a1.34,1.34,0,0,0,.07-.18.17.17,0,0,0,.05-.2,1,1,0,0,1,0-.29V23.49a1.33,1.33,0,0,1,.05-.4A.41.41,0,0,0,31.79,22.8Zm-11.47,20,.91.29a3.54,3.54,0,0,0,.44.11l.19,0c.32.07.64.18,1,.22s.9.15,1.36.17.7.06,1.05.06c.72,0,1.44,0,2.15,0a4.62,4.62,0,0,0,.65-.05c.44-.09.88-.11,1.32-.21s1-.21,1.51-.37L31,43a3.24,3.24,0,0,0,.52-.19.25.25,0,0,0,.17,0c.48-.19,1-.35,1.44-.57s.78-.42,1.2-.58a1.56,1.56,0,0,0,.28-.16.08.08,0,0,0,.05-.07.07.07,0,0,0-.07-.06.33.33,0,0,0-.22,0,.55.55,0,0,1-.22.06,4.58,4.58,0,0,1-1.87-.24A4.69,4.69,0,0,1,30.4,40a4.58,4.58,0,0,1-.84-1.34,5,5,0,0,1-.26-.86,3.61,3.61,0,0,1-.08-.66v-.59a.32.32,0,0,0-.17-.3c-.33-.19-.67-.33-1-.53-.15-.09-.33-.16-.49-.25l-1.4-.74a.42.42,0,0,0-.43,0l-.79.44c-.1.06-.22.09-.32.15-.35.23-.74.39-1.1.59s-.46.24-.69.36a.24.24,0,0,0-.15.21v.19A5.3,5.3,0,0,1,22.56,38a7.2,7.2,0,0,1-.33.88A4.08,4.08,0,0,1,21.5,40a4.63,4.63,0,0,1-2.29,1.35,4.06,4.06,0,0,1-1.25.13,1.1,1.1,0,0,1-.54-.09l-.1,0c-.05,0-.11,0-.13,0s0,.09.08.11c.4.2.8.38,1.18.59.16.08.33.14.49.21a1.69,1.69,0,0,0,.61.24c.05,0,.08,0,.13.06C19.89,42.69,20.1,42.79,20.32,42.84ZM20.52,9a8.1,8.1,0,0,0-.95.31A14.18,14.18,0,0,0,18,10c-.36.18-.71.37-1.06.56a16.17,16.17,0,0,0-1.56,1c-.31.21-.59.45-.87.68a15.71,15.71,0,0,0-1.77,1.69c-.15.16-.27.34-.42.5-.3.32-.55.68-.82,1,0,0,0,.05,0,.07a.57.57,0,0,0-.14.13c-.14.22-.29.43-.43.66a13,13,0,0,0-.7,1.2c-.16.32-.32.65-.5,1a.36.36,0,0,0,0,.11s0,.07,0,.08a.07.07,0,0,0,.09,0l0-.06a3.18,3.18,0,0,1,.58-.52,5.78,5.78,0,0,1,1-.54,3.5,3.5,0,0,1,1.1-.28,4.89,4.89,0,0,0,.55-.05.33.33,0,0,1,.14,0,1.58,1.58,0,0,0,.38,0,2.83,2.83,0,0,1,1.07.24,2.17,2.17,0,0,1,.36.12,5.23,5.23,0,0,1,1.36,1,5,5,0,0,1,.55.67.34.34,0,0,0,.39.16q.63-.11,1.26-.18c.47-.06.93-.15,1.4-.22a4.78,4.78,0,0,1,.66-.11.24.24,0,0,0,.21-.14l.46-.9.75-1.52c.11-.22.22-.45.32-.68a.2.2,0,0,0,0-.23l-.12-.15a3.8,3.8,0,0,1-.76-1.67.56.56,0,0,0,0-.12A3.43,3.43,0,0,1,21.41,12a4,4,0,0,1,.24-1,5.19,5.19,0,0,1,.3-.68,4.27,4.27,0,0,1,.58-.83,4.69,4.69,0,0,1,1.29-1l.3-.12c.05,0,.1,0,.09-.11s-.08-.06-.13-.06L24,8.2l-1,.16-.38.06c-.66.12-1.3.3-1.95.47ZM43.68,24l0-.38a.11.11,0,0,0,0-.07,1.91,1.91,0,0,0-.1-.58,1.24,1.24,0,0,1,0-.43,2.81,2.81,0,0,0,0-.29.22.22,0,0,0-.16-.17c-.06,0-.11.08-.12.19a2.62,2.62,0,0,1,0,.28c0,.08,0,.15,0,.22l0,.19c0,.12-.15.22-.13.36a3,3,0,0,1-.11.32s-.06,0-.05.06a3.53,3.53,0,0,1-.48.82,4.42,4.42,0,0,1-1.14,1.06,3.93,3.93,0,0,1-1.6.65l-.22.05a2.58,2.58,0,0,1-1.14,0,4.13,4.13,0,0,1-1.2-.29.27.27,0,0,0-.33.07l-.42.39c-.51.49-1,1-1.51,1.47-.19.16-.35.35-.53.52s-.14.17-.06.29a.25.25,0,0,1,0,.15,5,5,0,0,0,.17,1A6.31,6.31,0,0,1,34.63,31c.06.43.21.85.23,1.29a.2.2,0,0,0,.13.18l.2.07a3.94,3.94,0,0,1,.89.39,4.6,4.6,0,0,1,1.38,1.22,1.57,1.57,0,0,1,.19.26,6,6,0,0,1,.57,1.29A9,9,0,0,1,38.36,37a.13.13,0,0,1,0,.06,1.17,1.17,0,0,0,0,.32,1.4,1.4,0,0,1,0,.54,3.15,3.15,0,0,1-.25.77,2.79,2.79,0,0,0-.18.34c0,.06-.09.14,0,.19s.12,0,.17-.09a4.89,4.89,0,0,1,.5-.52A12.75,12.75,0,0,0,40,36.92a2.06,2.06,0,0,0,.35-.52,1.83,1.83,0,0,0,.37-.46,15.16,15.16,0,0,0,.95-1.54c.2-.4.38-.8.59-1.2.07-.14.1-.29.18-.42a4.19,4.19,0,0,0,.24-.62A11.46,11.46,0,0,0,43.06,31a10.91,10.91,0,0,0,.31-1.22,1.7,1.7,0,0,1,0-.22,4.83,4.83,0,0,0,.2-1c.1-.5,0-1,.16-1.5a9.1,9.1,0,0,1,0-.91,3,3,0,0,1,0-.31,1,1,0,0,0,0-.45,2.18,2.18,0,0,1,0-.57c0-.15-.08-.27-.09-.41a1.36,1.36,0,0,0,0-.4ZM8.14,25.77s0,.09,0,.14a4.19,4.19,0,0,0,0,.5c0,.34,0,.7,0,1s0,.41.07.61a3.74,3.74,0,0,1,.09.74,1.34,1.34,0,0,0,.05.35c.11.36.17.72.25,1.08s.29.92.4,1.39a.15.15,0,0,0,0,.07l.24.65c.09.27.21.53.32.79s.26.51.38.77a9.33,9.33,0,0,0,.43.83c.25.41.5.83.78,1.23.13.18.26.37.4.55s.23.29.33.44a10.3,10.3,0,0,0,1.11,1.27,6.2,6.2,0,0,1,.8.82,1.14,1.14,0,0,0,.16.14s.08,0,.12,0,0-.08,0-.11a3.13,3.13,0,0,1-.21-.34,1.61,1.61,0,0,1-.23-.7.93.93,0,0,0,0-.23,1.63,1.63,0,0,1-.09-.49c0-.12,0-.25,0-.38a2.58,2.58,0,0,1,.11-1.07.08.08,0,0,0,0,0A2.33,2.33,0,0,1,14,34.9a4.39,4.39,0,0,1,1.51-1.77,4,4,0,0,1,1.31-.61.29.29,0,0,0,.23-.29,1.54,1.54,0,0,1,.09-.37,2.17,2.17,0,0,0,.07-.35c.07-.47.15-.94.22-1.4,0-.2.12-.38.12-.58a4.33,4.33,0,0,1,.12-.72.36.36,0,0,0-.11-.35l-2.07-2-.34-.31a.33.33,0,0,0-.42-.06,1.14,1.14,0,0,1-.39.14,4.11,4.11,0,0,0-.61.12,3.72,3.72,0,0,1-1,0c-.28,0-.54-.13-.81-.15l-.09,0c-.21-.11-.43-.16-.64-.26A5.19,5.19,0,0,1,9.88,25a5.32,5.32,0,0,1-.67-.89,4.75,4.75,0,0,1-.39-.82,3,3,0,0,1-.18-.72v0s0-.09-.08-.09a.1.1,0,0,0-.09.08,1.42,1.42,0,0,0-.07.22c-.05.22,0,.46-.08.68s-.06.3-.08.45a8.87,8.87,0,0,0-.07,1.26.54.54,0,0,1,0,.25A.53.53,0,0,0,8.14,25.77Zm6,11.05a4.8,4.8,0,0,0,.19,1.35,4.25,4.25,0,0,0,1.6,2,3.38,3.38,0,0,0,1,.48,3.53,3.53,0,0,0,.91.2,3.12,3.12,0,0,0,1.21-.12,5.49,5.49,0,0,0,.68-.24,4.07,4.07,0,0,0,.9-.58,4,4,0,0,0,.88-1,3.84,3.84,0,0,0,.4-.93,3.79,3.79,0,0,0,.13-1.11c0-.13-.08-.17-.19-.1s-.11.09-.17.12c-.29.12-.55.3-.82.43-.46.23-.9.49-1.36.72s-.77.38-1.15.59-.79.41-1.17.63-.58.28-.85.44a2,2,0,0,0-.32.18.2.2,0,0,1-.2,0,.14.14,0,0,1-.05-.16A9.1,9.1,0,0,0,16,38.53c.07-.46.19-.91.24-1.37a7.19,7.19,0,0,0,.14-.93.4.4,0,0,1,0-.15,11.64,11.64,0,0,0,.25-1.31c.07-.31.07-.63.16-.94a2.85,2.85,0,0,0,.07-.51c0-.12,0-.17-.16-.13a.24.24,0,0,0-.11.06l-.19.1a3.63,3.63,0,0,0-1.56,1.34,3.8,3.8,0,0,0-.55,1.23A3,3,0,0,0,14.18,36.82Zm23.51,0a3,3,0,0,0-.18-1.33,3.3,3.3,0,0,0-.68-1.14,4.57,4.57,0,0,0-1.13-1,2.81,2.81,0,0,1-.39-.19c-.08-.05-.18-.12-.27-.05s0,.17,0,.26a2.37,2.37,0,0,1,.14.57c0,.32.12.62.14.94a1.93,1.93,0,0,0,.07.49c.14.42.11.86.25,1.28a.57.57,0,0,1,0,.13,2.8,2.8,0,0,0,.12.76c.14.45.12.93.23,1.39.06.21,0,.44.11.65s0,.12,0,.16a.15.15,0,0,1-.2,0l-.37-.19c-.39-.2-.77-.42-1.17-.61s-.7-.38-1.06-.56l-1.11-.59c-.49-.27-1-.52-1.49-.78-.23-.13-.47-.22-.69-.37s-.17,0-.17.1a1.49,1.49,0,0,0,0,.21,3.83,3.83,0,0,0,.45,1.68,3.91,3.91,0,0,0,1.24,1.41,3.58,3.58,0,0,0,.89.46,4.41,4.41,0,0,0,1,.24,2.37,2.37,0,0,0,1,0,5.07,5.07,0,0,0,.76-.22,4.43,4.43,0,0,0,1.2-.73,3.73,3.73,0,0,0,.67-.76,3.18,3.18,0,0,0,.63-1.83Zm1.1-19a3.08,3.08,0,0,0-.91.06,4,4,0,0,0-1.52.73c-.29.22-.51.5-.78.74a.08.08,0,0,0,0,.1c0,.05.08.05.13.06.5,0,1,.16,1.47.21a5.72,5.72,0,0,0,.81.14,2.88,2.88,0,0,1,.59.06l.28.05a5.26,5.26,0,0,1,.78.12,1.61,1.61,0,0,0,.49.07,2.84,2.84,0,0,1,.51,0c.51.12,1,.15,1.53.23.09,0,.19,0,.23.11s-.06.15-.11.21c-.23.24-.49.46-.74.7-.53.5-1,1-1.57,1.53S38.66,24.29,38,24.9a4,4,0,0,1-.47.45.12.12,0,0,0-.05,0c0,.07,0,.12,0,.13s.37.1.55.13a4.17,4.17,0,0,0,1.17,0c.2,0,.39-.1.59-.13a2.59,2.59,0,0,0,.67-.26,4.36,4.36,0,0,0,.85-.57,4,4,0,0,0,.8-.94,4.22,4.22,0,0,0,.37-.81,3.67,3.67,0,0,0,.18-1.05,5.78,5.78,0,0,0-.1-1c0-.1-.11-.2-.11-.3a1.32,1.32,0,0,0-.22-.62,3.61,3.61,0,0,0-1.1-1.35,3.9,3.9,0,0,0-1.79-.78A5.76,5.76,0,0,0,38.79,17.85ZM13.07,25.71a2.84,2.84,0,0,0,.82-.07,1.76,1.76,0,0,1,.41-.1.13.13,0,0,0,.13-.07c0-.06,0-.1-.06-.13-.23-.18-.4-.42-.61-.6a12.87,12.87,0,0,1-1-.95,8.94,8.94,0,0,0-.89-.85c-.12-.09-.23-.2-.34-.3-.45-.46-.89-.92-1.36-1.34-.21-.19-.4-.4-.6-.6,0,0-.09-.08-.06-.15s.08-.05.13-.06c.36,0,.7-.11,1.06-.14s.57-.12.87-.14a5.11,5.11,0,0,0,.55-.05L13.31,20a2.8,2.8,0,0,1,.58-.08,2.14,2.14,0,0,0,.5-.06,4.13,4.13,0,0,1,.69-.11l.36,0a3.52,3.52,0,0,1,.79-.13c.05,0,.09,0,.11-.06a.1.1,0,0,0,0-.12c-.13-.11-.23-.25-.35-.37s-.11-.13-.17-.18a5.83,5.83,0,0,0-1-.67,3.13,3.13,0,0,0-1.31-.29c-.3,0-.59,0-.88,0a3.18,3.18,0,0,0-.88.24,2.62,2.62,0,0,0-.45.21c-.24.17-.48.34-.71.52a1.38,1.38,0,0,0-.31.28,7.23,7.23,0,0,0-.6.95,4.84,4.84,0,0,0-.21.47,5.88,5.88,0,0,0-.14.73,4.3,4.3,0,0,0,0,1.29,4.87,4.87,0,0,0,.5,1.28,3.85,3.85,0,0,0,.69.82,3.71,3.71,0,0,0,1.47.86A2.59,2.59,0,0,0,13.07,25.71ZM21.19,25c0,.36-.06.73-.13,1.09a.93.93,0,0,0,0,.23,4.29,4.29,0,0,1-.4,1.35,6.23,6.23,0,0,1-.44.8,3.6,3.6,0,0,1-.76.93,1.18,1.18,0,0,1-1.05.27c-.22-.05-.32,0-.31.26s.08.24.1.37a2,2,0,0,0,.32.81,1,1,0,0,0,.52.4.42.42,0,0,0,.33,0,1.64,1.64,0,0,0,.72-.55,4.94,4.94,0,0,0,.54-.88c.09-.18.15-.38.24-.56s.23-.52.34-.79a5,5,0,0,0,.16-.55c0-.06,0-.17.07-.19s.12.08.16.15h0A4.15,4.15,0,0,0,23,29.65a.56.56,0,0,0,.86-.26.62.62,0,0,0-.1-.59,2.5,2.5,0,0,0-.57-.6,8.56,8.56,0,0,1-1.33-1.36.31.31,0,0,1-.07-.29,3.12,3.12,0,0,0,.05-.68.72.72,0,0,1,0-.21c.11-.38,0-.77.1-1.14,0-.72.06-1.44,0-2.16a1.2,1.2,0,0,1,0-.38,5.79,5.79,0,0,1,.21-.71,1.51,1.51,0,0,0,.07-.63.33.33,0,0,0-.05-.16,1.8,1.8,0,0,0-.56-.54.38.38,0,0,0-.42,0,2.5,2.5,0,0,0-.72.73.17.17,0,0,0,0,.21.52.52,0,0,0,.1.11,1.27,1.27,0,0,1,.39.67,1.8,1.8,0,0,1,.1.4c0,.27,0,.54,0,.81C21.2,23.55,21.23,24.27,21.19,25Zm8.68-12.48h0v-.06a2.15,2.15,0,0,0-.16-1.06s0,0,0,0a2.82,2.82,0,0,0-.33-.78,3.94,3.94,0,0,0-1.3-1.36,5.2,5.2,0,0,0-.62-.32,6.85,6.85,0,0,0-1.26-.32h-.07c-.09,0-.13,0-.08.12.16.27.26.56.39.83s.17.33.25.49l.59,1.18.6,1.22c.25.49.5,1,.73,1.49a4.48,4.48,0,0,1,.4.86c0,.09.1.1.16,0a1.1,1.1,0,0,0,.2-.28,5.83,5.83,0,0,0,.4-1,1.65,1.65,0,0,0,.1-.48Zm-7.86,0a1.73,1.73,0,0,0,0,.51,7.75,7.75,0,0,0,.27.94c.11.25.24.5.36.75s.14.13.2,0l.47-.92c.2-.41.41-.81.59-1.22s.49-1,.73-1.45.55-1.11.82-1.66l.33-.71c0-.06.06-.12,0-.18s-.11,0-.18,0a1.41,1.41,0,0,1-.22.06,3.67,3.67,0,0,0-1.68.63,3.79,3.79,0,0,0-1.51,2A2.73,2.73,0,0,0,22,12.54ZM24.35,23c0-.23-.15-.35-.31-.46a2.12,2.12,0,0,0-.66-.28.15.15,0,0,0-.13,0c-.11.06-.22.08-.32.13a.35.35,0,0,0-.17.57.59.59,0,0,1,.1.17,5.4,5.4,0,0,1,.08.58c0,.53-.07,1.05-.06,1.57a.88.88,0,0,1-.11.57.14.14,0,0,0,0,.17.17.17,0,0,0,.21.06,1.11,1.11,0,0,0,.64-.8,4.37,4.37,0,0,1,.12-.52,2.42,2.42,0,0,0,.1-.45,1.83,1.83,0,0,1,.31-.87C24.26,23.33,24.38,23.2,24.35,23Zm-3.92,2.61a3.36,3.36,0,0,0-.06-.63,6.27,6.27,0,0,0-.11-1,3.15,3.15,0,0,1-.06-.61.9.9,0,0,0-.54-.77,1.4,1.4,0,0,0-.78-.1c-.16,0-.23.09-.2.25a.38.38,0,0,0,.08.17,3.67,3.67,0,0,1,.59,1.59,1.11,1.11,0,0,0,.08.37,1.32,1.32,0,0,1,.09.43,2.14,2.14,0,0,0,.16.75.36.36,0,0,0,.28.25.33.33,0,0,0,.34-.14.59.59,0,0,0,.13-.33Z"/><path class="cls-1" d="M36.07,42.69a1.36,1.36,0,0,1,.69.24,1.67,1.67,0,0,1,.57.61,5.46,5.46,0,0,1,.48.93c.07.16.11.34.17.51s0,.13.06.2a1,1,0,0,1-.27,1.13,1.61,1.61,0,0,1-.59.41l-1,.44-.89.4c-.42.19-.85.38-1.26.59l-.57.27c-.09,0-.14,0-.18-.05s-.2-.43-.3-.65l-.22-.46c-.21-.48-.42-.95-.64-1.43a7.71,7.71,0,0,0-.42-.87.44.44,0,0,1-.08-.2c0-.14,0-.17.14-.21a3,3,0,0,0,.41-.17l.94-.46c.41-.2.83-.38,1.25-.57s.61-.27.91-.43A2,2,0,0,1,36.07,42.69ZM35.69,44a.41.41,0,0,0-.26.08l-.18.1L34,44.77a.6.6,0,0,1-.23.1.87.87,0,0,0-.3.16c-.06,0-.06.1,0,.17l.44.93c.09.21.19.42.29.62s.12.14.2.08a2.47,2.47,0,0,1,.46-.23l.91-.43a3,3,0,0,0,.65-.32.6.6,0,0,0,.23-.52,4.62,4.62,0,0,0-.47-1A.5.5,0,0,0,35.69,44Z"/><path class="cls-1" d="M33.38,5.08a.17.17,0,0,0-.13.13c-.14.43-.37.82-.52,1.23s-.3.66-.42,1a.47.47,0,0,1-.09.12c-.12.14-.12.13-.28,0s-.34-.15-.52-.23a3.18,3.18,0,0,1-.32-.16c-.1-.06-.12-.12,0-.2a2,2,0,0,0,.26-.53c.17-.35.31-.72.48-1.07s.27-.62.4-.93.15-.38.24-.56.13-.31.2-.46.12-.16.24-.08a3,3,0,0,0,.57.27l.94.41a.42.42,0,0,1,.29.35,1.42,1.42,0,0,0,0,.22A9.18,9.18,0,0,1,35,5.79a.24.24,0,0,0,0,.09,9.85,9.85,0,0,1,.28,1c.06.19.08.39.13.58s0,.21.12.22.1-.13.13-.2c.13-.3.25-.59.39-.88s.18-.43.27-.65.23-.52.35-.78c0-.08.09-.07.16,0l.7.3a1.28,1.28,0,0,0,.27.11c.11,0,.15.09.11.19a3.32,3.32,0,0,1-.2.47,2.71,2.71,0,0,0-.17.39c-.08.19-.18.38-.25.58s-.26.6-.38.91l-.28.63a6.42,6.42,0,0,1-.3.66c-.08.12-.08.13-.2.06a2.62,2.62,0,0,0-.45-.21l-1.17-.51a.36.36,0,0,1-.22-.3c-.06-.3-.14-.58-.22-.87s-.17-.64-.24-1a.13.13,0,0,0,0-.06c-.14-.31-.17-.65-.3-1a1.36,1.36,0,0,1-.07-.35C33.48,5.15,33.46,5.09,33.38,5.08Z"/><path class="cls-1" d="M12.93,43.58a.24.24,0,0,0,0,.22.64.64,0,0,1-.13.77,2.91,2.91,0,0,1-.33.37l-.14.18a.18.18,0,0,1-.28,0c-.27-.27-.56-.51-.82-.77-.08-.08-.07-.14,0-.21a1.93,1.93,0,0,0,.35-.35.37.37,0,0,0,0-.53c-.29-.3-.63-.54-.92-.83L10.17,42c-.12-.12-.17-.12-.28,0l-.4.45c-.15.17-.24.17-.4,0l-.66-.6c-.15-.15-.15-.21,0-.34a8,8,0,0,0,.56-.6l.68-.75,1.15-1.25a.88.88,0,0,0,.18-.25c.05-.09.1-.08.17,0l.07.06c.39.38.8.72,1.21,1.07s.61.57.92.86.43.37.64.57a4.15,4.15,0,0,1,.46.56.39.39,0,0,1,.06.18,2.18,2.18,0,0,1,0,.57,1.27,1.27,0,0,1-.25.49,1.42,1.42,0,0,1-.68.6A.64.64,0,0,1,12.93,43.58Zm-.3-1c.2,0,.3,0,.36-.13.17-.29.18-.31,0-.6a.35.35,0,0,0-.1-.11c-.46-.44-1-.85-1.4-1.3-.08-.08-.13-.07-.2,0a2.2,2.2,0,0,1-.41.45c-.1.09-.1.17,0,.25a1.8,1.8,0,0,1,.2.18c.4.38.82.75,1.24,1.11A.4.4,0,0,0,12.63,42.56Z"/><path class="cls-1" d="M22.06,6.23V6.3a.83.83,0,0,1-.58.89c-.34.15-.69.26-1,.39s-.54.16-.79.27A4.63,4.63,0,0,1,19,8c-.17.05-.35.09-.51.15l-.08,0a2.6,2.6,0,0,1-.68,0A1,1,0,0,1,17,7.53c-.11-.35-.07-.4.29-.51a2.42,2.42,0,0,0,.7-.24.14.14,0,0,1,.2.06c.13.28.35.28.6.21a3,3,0,0,0,.4-.11c.23-.08.47-.11.69-.21a3.35,3.35,0,0,1,.55-.23.46.46,0,0,0,.19-.13.26.26,0,0,0,.06-.31.25.25,0,0,0-.28-.19,1.22,1.22,0,0,0-.26.06c-.3.13-.61.2-.92.3l-.84.25a5.06,5.06,0,0,1-.85.22.86.86,0,0,1-.82-.43,2.39,2.39,0,0,1-.35-.88.92.92,0,0,1,.05-.4,1.2,1.2,0,0,1,.69-.77c.46-.19.93-.37,1.4-.53s.93-.29,1.41-.41a1.08,1.08,0,0,1,.91.12,1.06,1.06,0,0,1,.34.36l.14.25c.07.1.06.16,0,.23a.37.37,0,0,1-.14.07,8.75,8.75,0,0,1-.87.27A.2.2,0,0,1,20,4.49a.28.28,0,0,0-.29-.13,1.86,1.86,0,0,0-.34.07,9.88,9.88,0,0,0-1.19.42,1,1,0,0,0-.39.21c-.11.12-.12.19,0,.32s.21.17.42.1.61-.18.91-.27L19.83,5l.73-.22.17,0a.87.87,0,0,1,1,.39A1.67,1.67,0,0,1,22.06,6.23Z"/><path class="cls-1" d="M48.89,31.08a1.6,1.6,0,0,1-.12.69,1.38,1.38,0,0,0-.08.29c-.09.29-.17.58-.25.86s-.18.56-.27.84a4.28,4.28,0,0,1-.25.68,1.71,1.71,0,0,1-.21.4,1.81,1.81,0,0,1-.76.49,1.11,1.11,0,0,1-.51,0,9.27,9.27,0,0,1-1-.29c-.27-.1-.56-.17-.83-.29a1.13,1.13,0,0,1-.66-1,4,4,0,0,1,.21-1.07,7.94,7.94,0,0,0,.22-.8.85.85,0,0,1,0-.17l.5-1.38a3,3,0,0,1,.17-.41,1.18,1.18,0,0,1,.68-.52.83.83,0,0,1,.54,0l.64.17c.22.05.42.13.63.18a4,4,0,0,1,.67.22,1.22,1.22,0,0,1,.67,1Zm-3.71,2a.41.41,0,0,0,.25.47c.21.11.46.15.68.25a1.3,1.3,0,0,0,.52.1.36.36,0,0,0,.32-.18,1.64,1.64,0,0,0,.23-.48,4.54,4.54,0,0,1,.23-.74c.1-.26.14-.54.23-.81a.42.42,0,0,0-.07-.45,1.18,1.18,0,0,0-.32-.21c-.3-.14-.64-.17-1-.28a.36.36,0,0,0-.47.21,3.55,3.55,0,0,0-.29.79c-.08.26-.17.52-.26.78A5.51,5.51,0,0,0,45.18,33.08Z"/><path class="cls-1" d="M6.33,13.48a1.06,1.06,0,0,1,.22-.77c.32-.43.63-.87,1-1.29s.68-.81,1-1.2a1.69,1.69,0,0,1,.7-.48,1,1,0,0,1,.63,0,2.82,2.82,0,0,1,.63.37c.37.29.75.57,1.11.87a1.15,1.15,0,0,1,.43.88,1.27,1.27,0,0,1-.25.84A25,25,0,0,1,10,15.1l-.09.13a1.29,1.29,0,0,1-.95.54,1.33,1.33,0,0,1-.85-.29,10.36,10.36,0,0,1-1.21-1c-.09-.09-.19-.16-.27-.25A.92.92,0,0,1,6.33,13.48Zm3.07-2.3a.43.43,0,0,0-.41.17c-.22.32-.48.61-.73.91s-.37.44-.53.68a.47.47,0,0,0,0,.52,4.34,4.34,0,0,0,.94.77c.26.17.38.14.6-.08a.6.6,0,0,0,.08-.08,11.86,11.86,0,0,0,.94-1.18c.1-.13.21-.26.3-.4a.35.35,0,0,0,0-.37.83.83,0,0,0-.19-.26,7.15,7.15,0,0,0-.77-.59A.41.41,0,0,0,9.4,11.18Z"/><path class="cls-1" d="M43.34,41.31a.92.92,0,0,1-.32.84c-.49.52-1,1-1.54,1.49a11.27,11.27,0,0,1-1,.84,1.42,1.42,0,0,1-.49.25,1.2,1.2,0,0,1-1-.26,2.62,2.62,0,0,1-.49-.45c-.22-.28-.46-.55-.7-.81a1.8,1.8,0,0,1-.43-.86.58.58,0,0,1,0-.32,1.9,1.9,0,0,1,.51-.82c.37-.34.71-.73,1.11-1.06A16.86,16.86,0,0,1,40.5,39a.6.6,0,0,1,.36-.1h.19a.92.92,0,0,1,.73.3c.41.41.83.8,1.22,1.24a2.27,2.27,0,0,1,.3.46A1.15,1.15,0,0,1,43.34,41.31Zm-4.52.74a.44.44,0,0,0,.07.28,3.75,3.75,0,0,0,.87,1,.3.3,0,0,0,.39,0c.23-.15.42-.35.64-.52s.64-.6,1-.9a.5.5,0,0,0,0-.69,5.74,5.74,0,0,0-.72-.76.79.79,0,0,0-.18-.14.26.26,0,0,0-.31,0l-.26.2-1.07.95-.33.34A.33.33,0,0,0,38.82,42.05Z"/><path class="cls-1" d="M28.78,46.21c-.41,0-.81,0-1.2,0H27.5a2.76,2.76,0,0,1-.76.07,2.47,2.47,0,0,1-.61,0c-.06,0-.1,0-.11.1a1.09,1.09,0,0,0,0,.36.16.16,0,0,0,.18.16,1.47,1.47,0,0,0,.51,0,.47.47,0,0,1,.17,0l1.8,0c.1,0,.2,0,.3,0a.19.19,0,0,1,.24.2,3,3,0,0,0,0,.52c0,.09,0,.14-.13.16l-.24,0c-.38,0-.75.06-1.13.06a1.92,1.92,0,0,0-.53.06,1.11,1.11,0,0,1-.26,0h-.69c-.15,0-.18.05-.16.2a1,1,0,0,1,0,.25c0,.12,0,.15.15.18a.68.68,0,0,0,.4,0,.41.41,0,0,1,.22,0,5.73,5.73,0,0,0,.82-.05c.41,0,.82,0,1.24,0a1.46,1.46,0,0,0,.36,0c.16,0,.22,0,.23.18s0,.25,0,.38a1.23,1.23,0,0,0,0,.27c0,.15,0,.19-.16.2h-.59a3.31,3.31,0,0,1-.7.06c-.4,0-.79,0-1.18.08h-.06c-.4,0-.79,0-1.18,0a4,4,0,0,0-.6,0c-.19,0-.27,0-.26-.24a2.16,2.16,0,0,0,0-.76,1.41,1.41,0,0,1,0-.41.5.5,0,0,0,0-.21,1.27,1.27,0,0,1-.06-.47c0-.44,0-.88,0-1.32a3.5,3.5,0,0,0,0-.65.13.13,0,0,1,.14-.15H25a1.37,1.37,0,0,0,.35,0,1.61,1.61,0,0,1,.49,0s0,0,.06,0c.36,0,.73,0,1.1-.08l.21,0c.46,0,.92,0,1.38,0a2.27,2.27,0,0,0,.45,0c.19,0,.25,0,.26.22s0,.4,0,.59,0,.2-.21.21Z"/><path class="cls-1" d="M25.62,5.23c-.52,0-1,0-1.54,0-.17,0-.19,0-.19.18a1.22,1.22,0,0,0,0,.27,5.62,5.62,0,0,1,0,.92c0,.13,0,.19-.16.19-.33,0-.67.08-1,.05s-.24-.05-.23-.26,0-.28,0-.42,0-.41,0-.61,0-.4,0-.6c0-.52-.05-1,0-1.56a1,1,0,0,0-.05-.23.65.65,0,0,1-.05-.2c0-.22.07-.34.29-.35s.6,0,.9,0a.14.14,0,0,1,.16.15,2.94,2.94,0,0,1,.09.83,1.24,1.24,0,0,0,0,.27c0,.13,0,.21.18.21a5.78,5.78,0,0,0,.72,0,1.7,1.7,0,0,1,.39,0c.32,0,.65,0,1,0a2.18,2.18,0,0,1,.25,0c.15,0,.21,0,.21-.2a4.83,4.83,0,0,0,0-1.14c0-.14,0-.2.17-.17a1.23,1.23,0,0,0,.57,0,2,2,0,0,1,.43,0c.1,0,.19.09.19.22s0,.3,0,.46a4.17,4.17,0,0,0,0,.7c0,.25,0,.52,0,.78.06.57,0,1.14.06,1.7a1,1,0,0,1,0,.25c0,.11-.06.16-.18.15a4.82,4.82,0,0,0-.93,0c-.19,0-.23,0-.24-.21,0-.35,0-.7,0-1s0-.28-.28-.26Z"/><path class="cls-1" d="M3.79,33.93a2,2,0,0,1,.14-.39,9.56,9.56,0,0,0,.43-1,5.67,5.67,0,0,1,.28-.61.75.75,0,0,0,0-.67.17.17,0,0,0-.24-.09,10,10,0,0,0-1.06.33.45.45,0,0,1-.16,0A.15.15,0,0,1,3,31.42a6.83,6.83,0,0,0-.27-.91s0-.05,0-.07c-.06-.17,0-.2.14-.24s.48-.14.72-.22.57-.15.85-.26a2.67,2.67,0,0,0,.4-.13.16.16,0,0,1,.09,0,8.92,8.92,0,0,0,1-.31,3.69,3.69,0,0,0,.56-.19c.09-.06.14,0,.2.07a.89.89,0,0,1,.08.17c.1.3.19.61.28.91,0,.09,0,.14-.08.16a4,4,0,0,1-.61.2c-.2,0-.38.14-.59.17s-.09.08-.09.15a.68.68,0,0,0,.3.56l1.23.74a2.45,2.45,0,0,1,.5.34.44.44,0,0,1,.12.18c0,.16.1.31.13.47a6.54,6.54,0,0,0,.3,1c0,.07,0,.1-.08.1A.25.25,0,0,1,8,34.17a6.63,6.63,0,0,0-.88-.57c-.44-.3-.89-.58-1.34-.87l-.09,0c-.09,0-.15,0-.17.08-.09.32-.25.61-.35.93s-.17.38-.24.58-.27.68-.41,1a2.21,2.21,0,0,0,0,.25c0,.05,0,.1-.09.11a.13.13,0,0,1-.14-.08.35.35,0,0,1-.06-.17,1.55,1.55,0,0,0-.12-.47c-.09-.25-.15-.5-.23-.75A1.82,1.82,0,0,1,3.79,33.93Z"/><path class="cls-1" d="M16.69,8.27a1.29,1.29,0,0,1-.42,1,7.23,7.23,0,0,1-1.27,1c-.22.13-.42.29-.64.43a3.6,3.6,0,0,1-1,.47A1.38,1.38,0,0,1,12,10.62c-.2-.32-.42-.63-.63-.94s-.63-.9-.95-1.34a.12.12,0,0,1,0-.18l.37-.25a2.53,2.53,0,0,0,.42-.31.21.21,0,0,1,.37,0c.14.2.26.41.41.6.34.46.64,1,1,1.42a.44.44,0,0,0,.14.13.29.29,0,0,0,.3,0,6.53,6.53,0,0,0,1-.64,5.13,5.13,0,0,0,.6-.44.45.45,0,0,0,.07-.61c-.42-.62-.85-1.24-1.29-1.85l-.13-.17c-.07-.1-.06-.16,0-.23s.48-.3.7-.48l.16-.13c.08-.07.17-.07.22,0,.16.27.37.5.54.77s.57.81.85,1.22a3.17,3.17,0,0,1,.37.58A.75.75,0,0,1,16.69,8.27Z"/><path class="cls-1" d="M8.72,17.08l-.06.2s0,0,0,.07a.62.62,0,0,0-.1.22.57.57,0,0,1-.33.42l-1.57.83-.16.07a.46.46,0,0,0-.27.26,1,1,0,0,1-.11.24.13.13,0,0,0,0,.19l.19.1c.32.14.64.27,1,.38s.22.14.13.32a4,4,0,0,0-.22.53c0,.14-.12.27-.18.4a.12.12,0,0,1-.19.07l-.51-.21c-.47-.2-1-.4-1.43-.58s-.85-.34-1.27-.53a2.17,2.17,0,0,1-.42-.17c-.13-.07-.13-.09-.07-.22a2.91,2.91,0,0,0,.23-.55c0-.15.14-.28.17-.44s.08-.1.17-.06l.33.13.74.3c.16.07.19.06.28-.09l0-.07a.56.56,0,0,0,0-.61c-.15-.37-.29-.75-.41-1.13-.07-.18-.15-.35-.21-.54a.42.42,0,0,1,0-.31c.15-.35.29-.72.44-1.07A.92.92,0,0,0,5,14.91s0-.09.07-.1.08,0,.1.07a2.08,2.08,0,0,1,.12.32c.08.31.24.59.32.9s.19.55.28.83.13.43.2.64.12.16.23.09l.9-.54,1.4-.78s0,0,0,0a1.44,1.44,0,0,1,.25-.18c.09,0,.07.12.09.19a.29.29,0,0,1,0,.09.46.46,0,0,0-.13.29,1.05,1.05,0,0,1-.12.31S8.7,17,8.72,17.08Z"/><path class="cls-1" d="M41,9.08c.35,0,.7,0,1.05,0a.33.33,0,0,1,.25.07c.23.21.48.4.7.63s.22.16.32.26.2.14.16.24-.18,0-.28,0H43a9.2,9.2,0,0,1-1,0c-.41,0-.81,0-1.22,0h-.12a.11.11,0,0,0-.11.14,1.66,1.66,0,0,0,0,.32c.1.4.12.81.22,1.2s.14.79.21,1.19c0,.1.05.21.07.31s0,.11,0,.14-.09,0-.13,0a10.36,10.36,0,0,0-1-1l0,0a.64.64,0,0,1-.28-.61,2.36,2.36,0,0,0-.1-.74,3.76,3.76,0,0,1-.1-.75,3.07,3.07,0,0,0-.07-.42.15.15,0,0,0-.07-.11l-.31-.28c-.08-.07-.12-.07-.19,0s-.27.32-.4.49-.29.32-.43.49-.1.1-.2,0c-.25-.24-.52-.47-.8-.7s-.13-.15,0-.26c.42-.43.8-.89,1.19-1.34l1.3-1.49.1-.11a.14.14,0,0,1,.21,0c.25.25.53.48.81.71.09.07.1.16,0,.22a7.92,7.92,0,0,0-.61.69l-.18.18c-.11.12-.1.2,0,.3a.72.72,0,0,0,.7.26H41Z"/><path class="cls-1" d="M18,44.36c0,.59,0,1.19,0,1.79,0,0,0,0,0,.06a5.08,5.08,0,0,1,.06,1.23.58.58,0,0,0,0,.23.54.54,0,0,1,0,.28.89.89,0,0,0,0,.23c0,.16-.08.23-.22.16L17.28,48l-.22-.11a.67.67,0,0,1-.26-.19.18.18,0,0,1-.05-.19c0-.19-.06-.36-.06-.55s-.11-.14-.19-.19-.45-.21-.67-.33-.75-.4-1.13-.59a.29.29,0,0,0-.34,0l-.43.31a.21.21,0,0,1-.28,0,3.78,3.78,0,0,0-.53-.27,3.29,3.29,0,0,0-.46-.23.14.14,0,0,1-.1-.17c0-.07.06-.08.11-.1a3.62,3.62,0,0,0,.58-.38l1.35-.9c.58-.39,1.18-.77,1.76-1.19a.23.23,0,0,1,.26,0c.41.24.84.41,1.24.64a.29.29,0,0,1,.16.26Zm-1.31,0c0-.07,0-.14-.05-.17s-.12,0-.16.07a2.54,2.54,0,0,1-.36.29l-.6.43c-.13.1-.11.13,0,.21a7.9,7.9,0,0,1,.91.48.17.17,0,0,0,.2,0c.05,0,.05-.1,0-.15A9.31,9.31,0,0,1,16.71,44.37Z"/><path class="cls-1" d="M5,36a8.44,8.44,0,0,0,1.12-.08h0c.45,0,.9-.06,1.36-.06.3,0,.61,0,.91,0s.47-.06.7-.09a.24.24,0,0,1,.26.11c.23.33.44.67.66,1l.06.09c.15.21.15.22,0,.43-.27.43-.48.89-.72,1.34s-.39.7-.58,1.06-.28.54-.43.8a6,6,0,0,0-.34.67c0,.1-.11.1-.19,0a.28.28,0,0,1-.07-.09c-.17-.32-.39-.6-.58-.9a.32.32,0,0,1,0-.4,2.61,2.61,0,0,0,.24-.43.26.26,0,0,0,0-.27c-.35-.53-.68-1.06-1-1.58s-.23-.38-.7-.3l-.17,0a.26.26,0,0,1-.29-.14c-.19-.31-.39-.61-.59-.91a.35.35,0,0,1,0-.08c-.07-.13,0-.2.12-.2S4.86,36,5,36Zm3.65,1h0c-.42.07-.85.12-1.27.16-.07,0-.08.06-.07.11a.29.29,0,0,0,.07.12,5.71,5.71,0,0,1,.56.88.13.13,0,0,0,.23,0,.61.61,0,0,0,.07-.14A.87.87,0,0,1,8.24,38l.42-.73a.53.53,0,0,0,.06-.14C8.73,37,8.7,37,8.61,37Z"/><path class="cls-1" d="M43.76,14h2.18a.35.35,0,0,1,.35.22c.13.21.24.43.37.65a4.17,4.17,0,0,0,.26.46.27.27,0,0,1,0,.32l-1,1.54c-.44.7-.88,1.4-1.33,2.1l-.09.17c-.06.1-.11.1-.17,0a1.14,1.14,0,0,1-.1-.19,8.48,8.48,0,0,0-.52-.93c-.08-.13-.08-.15,0-.27s.2-.31.3-.47a.23.23,0,0,0,0-.26l-.76-1.39c-.1-.17-.2-.33-.29-.5a.22.22,0,0,0-.24-.14h-.52a.23.23,0,0,1-.25-.15c-.16-.32-.34-.63-.52-.94,0,0-.08-.1-.05-.15s.11-.05.17-.05h2.18Zm.79,1.25h-.37c-.15,0-.18.06-.11.19.18.33.38.65.54,1l0,0c.08.1.14.1.2,0a.84.84,0,0,1,.11-.21l.35-.53a.91.91,0,0,1,.16-.24c.06-.05.13-.12.09-.21s-.15-.06-.23,0A3.72,3.72,0,0,1,44.55,15.24Z"/><path class="cls-1" d="M24,45.53a1.13,1.13,0,0,1,0,.15,4.92,4.92,0,0,0-.15.61c0,.15-.06.15-.2.13a8.3,8.3,0,0,0-1.1-.24,1.72,1.72,0,0,1-.21-.07l-.17,0c-.17,0-.25,0-.26.18a3,3,0,0,1-.19.78s0,0,0,.06a10.75,10.75,0,0,1-.33,1.47,1.65,1.65,0,0,0,0,.32c0,.11,0,.14-.16.14A.39.39,0,0,1,21,49a1.58,1.58,0,0,0-.57-.13.9.9,0,0,1-.36-.12c-.1,0-.1-.1-.07-.2l.24-.89c.11-.44.16-.9.31-1.33a4.21,4.21,0,0,1,.09-.49c0-.07,0-.12-.1-.13s-.26-.09-.39-.11c-.36-.06-.71-.16-1.06-.22-.18,0-.23-.08-.17-.26a2.52,2.52,0,0,0,.17-.72c0-.13.08-.19.21-.14.32.12.67.14,1,.26l.13,0a6.65,6.65,0,0,1,1.25.28l.28,0c.4.11.81.17,1.21.3a.16.16,0,0,0,.09,0,4,4,0,0,1,.67.13C24,45.33,24,45.4,24,45.53Z"/><path class="cls-1" d="M44.11,40.17a1,1,0,0,1-.61-.2c-.15-.1-.29-.21-.45-.3a.13.13,0,0,1,0-.19.54.54,0,0,1,.09-.12,6,6,0,0,0,.45-.71.2.2,0,0,1,.31-.09l.06,0a.37.37,0,0,0,.53,0,2,2,0,0,0,.47-.6.7.7,0,0,0,.14-.37.42.42,0,0,0-.21-.43l-2.06-1.33c-.16-.1-.17-.15-.05-.3s.31-.48.48-.71l.06-.1c.11-.16.16-.17.3,0a2.39,2.39,0,0,0,.34.21c.62.41,1.23.82,1.86,1.21a1.73,1.73,0,0,1,.7.81.56.56,0,0,1,0,.42,7.29,7.29,0,0,1-1.3,2.22,1.72,1.72,0,0,1-.72.52A.81.81,0,0,1,44.11,40.17Z"/><path class="cls-1" d="M29.69,2.85a4.33,4.33,0,0,1,.85.13,3,3,0,0,0,.32.06c.11,0,.16.09.11.19a1.77,1.77,0,0,0-.12.64.07.07,0,0,1,0,0c-.16.43-.14.9-.28,1.33,0,.5-.24,1-.25,1.45a1.47,1.47,0,0,1-.08.35c0,.13-.09.17-.22.14l-.26-.07A5.35,5.35,0,0,0,29.07,7c-.2,0-.26-.11-.21-.3.13-.51.14-1,.32-1.55s.16-.85.2-1.29a.57.57,0,0,1,0-.18A1.75,1.75,0,0,0,29.54,3C29.53,2.87,29.58,2.84,29.69,2.85Z"/><path class="cls-1" d="M44.34,20.15c0-.1,0-.16.11-.18a.47.47,0,0,1,.2-.06,3.94,3.94,0,0,0,.49-.14c.23-.07.46-.15.7-.2l.79-.22L47.82,19l.31-.11c.16-.06.22,0,.28.12a2.4,2.4,0,0,1,.12.38,6.09,6.09,0,0,0,.17.61c0,.15,0,.15-.1.21a7.76,7.76,0,0,1-1.22.37c-.26.06-.5.16-.75.24a1.1,1.1,0,0,1-.26.06.3.3,0,0,0-.13,0,7.46,7.46,0,0,1-.8.26.49.49,0,0,1-.16.05,1,1,0,0,0-.38.11c-.13.07-.18,0-.23-.1a7.21,7.21,0,0,0-.31-1A.25.25,0,0,1,44.34,20.15Z"/><path class="cls-3" d="M9,16.32c0-.07,0-.16-.09-.19S9,16.06,9,16a.11.11,0,0,1,.14,0s0,.08,0,.12Z"/><path class="cls-3" d="M8.87,16.7A.46.46,0,0,1,9,16.41C9,16.54,8.93,16.61,8.87,16.7Z"/><path class="cls-3" d="M8.64,17.35s0-.05,0-.07S8.67,17.33,8.64,17.35Z"/><path class="cls-3" d="M8.68,16.31s0,0,0,0S8.65,16.29,8.68,16.31Z"/><path class="cls-3" d="M8.72,17.08s0-.06,0-.07A.06.06,0,0,1,8.72,17.08Z"/><path class="cls-2" d="M8.14,25.77a.53.53,0,0,1,0-.41.54.54,0,0,0,0-.25,8.87,8.87,0,0,1,.07-1.26c0-.15,0-.3.08-.45s0-.46.08-.68a1.42,1.42,0,0,1,.07-.22.1.1,0,0,1,.09-.08c.06,0,.07,0,.08.09v0a3,3,0,0,0,.18.72,4.75,4.75,0,0,0,.39.82,5.32,5.32,0,0,0,.67.89,5.19,5.19,0,0,0,1.3.92c.21.1.43.15.64.26l.09,0c.27,0,.53.13.81.15a3.72,3.72,0,0,0,1,0,4.11,4.11,0,0,1,.61-.12,1.14,1.14,0,0,0,.39-.14.33.33,0,0,1,.42.06l.34.31,2.07,2a.36.36,0,0,1,.11.35,4.33,4.33,0,0,0-.12.72c0,.2-.1.38-.12.58-.07.46-.15.93-.22,1.4a2.17,2.17,0,0,1-.07.35,1.54,1.54,0,0,0-.09.37.29.29,0,0,1-.23.29,4,4,0,0,0-1.31.61A4.39,4.39,0,0,0,14,34.9a2.33,2.33,0,0,0-.31.93.08.08,0,0,1,0,0,2.58,2.58,0,0,0-.11,1.07c0,.13,0,.26,0,.38a1.63,1.63,0,0,0,.09.49.93.93,0,0,1,0,.23,1.61,1.61,0,0,0,.23.7,3.13,3.13,0,0,0,.21.34s.06.07,0,.11-.09,0-.12,0a1.14,1.14,0,0,1-.16-.14,6.2,6.2,0,0,0-.8-.82A10.3,10.3,0,0,1,12,37c-.1-.15-.22-.29-.33-.44s0-.07,0-.11,0-.4.07-.59A12.1,12.1,0,0,0,12,34.33c0-.21,0-.44.1-.66.13-.45.14-.92.25-1.38,0-.16,0-.33.06-.49a3.53,3.53,0,0,0,.13-.54,4.64,4.64,0,0,1,.14-.83.27.27,0,0,0-.13-.34.43.43,0,0,1-.1-.09l-2.06-2L8.63,26.25Z"/><path class="cls-2" d="M43.65,23.62l0,.38a1.24,1.24,0,0,0,0,.47,1.4,1.4,0,0,1,.05.41,1,1,0,0,0,.06.49.3.3,0,0,1,0,.13c0,.23-.13.37-.27.5l-1.19,1.13-1.15,1.15c-.16.15-.33.29-.48.44-.48.46-.92,1-1.42,1.39a.21.21,0,0,0-.07.29.84.84,0,0,1,0,.17,6.61,6.61,0,0,0,.18,1,1.35,1.35,0,0,1,0,.28,3.5,3.5,0,0,0,.1.66,1.59,1.59,0,0,1,.06.3,2.54,2.54,0,0,0,.13.73.9.9,0,0,1,.06.22,3,3,0,0,0,.08.67c.07.33.08.67.17,1a1.37,1.37,0,0,1,.09.57.7.7,0,0,0,.14.44,2.06,2.06,0,0,1-.35.52,12.75,12.75,0,0,1-1.47,1.64,4.89,4.89,0,0,0-.5.52c-.05.06-.11.13-.17.09s0-.13,0-.19a2.79,2.79,0,0,1,.18-.34,3.15,3.15,0,0,0,.25-.77,1.4,1.4,0,0,0,0-.54,1.17,1.17,0,0,1,0-.32.13.13,0,0,0,0-.06,9,9,0,0,0-.14-1.26,6,6,0,0,0-.57-1.29,1.57,1.57,0,0,0-.19-.26,4.6,4.6,0,0,0-1.38-1.22,3.94,3.94,0,0,0-.89-.39l-.2-.07a.2.2,0,0,1-.13-.18c0-.44-.17-.86-.23-1.29a6.31,6.31,0,0,0-.16-1.06,5,5,0,0,1-.17-1,.25.25,0,0,0,0-.15c-.08-.12,0-.2.06-.29s.34-.36.53-.52c.53-.46,1-1,1.51-1.47l.42-.39a.27.27,0,0,1,.33-.07,4.13,4.13,0,0,0,1.2.29,2.58,2.58,0,0,0,1.14,0l.22-.05a3.93,3.93,0,0,0,1.6-.65,4.42,4.42,0,0,0,1.14-1.06,3.53,3.53,0,0,0,.48-.82s.05,0,.05-.06a3,3,0,0,0,.11-.32.44.44,0,0,0,.13-.36l0-.19c.06-.07.05-.16.09-.24s0-.12.08-.11.07.08.08.13v.06A3.83,3.83,0,0,0,43.65,23.62Z"/><path class="cls-2" d="M40.45,15.54c.2.25.37.53.55.8s.42.71.64,1.06a2.77,2.77,0,0,0,.27.61.58.58,0,0,0,.15.25l.08.09c0,.1.06.19,0,.28a4.59,4.59,0,0,0-.78-.68A6.6,6.6,0,0,0,40,17.34a11,11,0,0,0-1.27-.16c-.33.08-.67,0-1,.13a6.55,6.55,0,0,0-.85.29,5.33,5.33,0,0,0-.88.54,5.68,5.68,0,0,0-1,1c-.22.28-.16.29-.56.22s-.75-.12-1.13-.15-.62-.11-.93-.15-.76-.14-1.15-.18A.25.25,0,0,1,31,18.7c-.11-.27-.25-.52-.38-.77L30,16.72c-.14-.27-.27-.55-.41-.82l-.09-.21a.29.29,0,0,1,0-.32,4.81,4.81,0,0,0,.51-.81,2.35,2.35,0,0,0,.28-.78.64.64,0,0,1,.06-.18,2.13,2.13,0,0,0,.13-.83v-.46a2.65,2.65,0,0,0-.09-.68A5.37,5.37,0,0,0,30,10.36a4.43,4.43,0,0,0-.94-1.21,3.85,3.85,0,0,0-1.24-.79l-.06,0a.08.08,0,0,1-.05-.08.08.08,0,0,1,.07-.05l.25,0,.87.14.27,0a.52.52,0,0,1,.17,0,17,17,0,0,1,1.7.44,1.53,1.53,0,0,1,.29.07c.06.14.17.26.23.4l.38.81c.19.4.39.78.59,1.18s.41.8.6,1.21c.09.17.17.34.25.51s.24.51.37.76.19.38.28.58a.47.47,0,0,0,.4.3,7.35,7.35,0,0,1,.82.11,2.89,2.89,0,0,0,.6.1,2.76,2.76,0,0,1,.9.13s.08,0,.11,0a6,6,0,0,1,.74.09,2.74,2.74,0,0,0,.39.09,11,11,0,0,1,1.14.13c.22,0,.45,0,.66.09l.62.09h0A0,0,0,0,0,40.45,15.54Z"/><path class="cls-2" d="M20.52,9l.1-.06c.65-.17,1.29-.35,1.95-.47L23,8.36l1-.16.13,0c.05,0,.11,0,.13.06s0,.09-.09.11l-.3.12a4.69,4.69,0,0,0-1.29,1,4.27,4.27,0,0,0-.58.83,5.19,5.19,0,0,0-.3.68,4,4,0,0,0-.24,1,3.43,3.43,0,0,0,.07,1.46.56.56,0,0,1,0,.12,3.8,3.8,0,0,0,.76,1.67l.12.15a.2.2,0,0,1,0,.23c-.1.23-.21.46-.32.68l-.75,1.52-.46.9a.24.24,0,0,1-.21.14A4.78,4.78,0,0,0,20,19c-.47.07-.93.16-1.4.22s-.84.11-1.26.18a.34.34,0,0,1-.39-.16,5,5,0,0,0-.55-.67,5.23,5.23,0,0,0-1.36-1,2.17,2.17,0,0,0-.36-.12,2.83,2.83,0,0,0-1.07-.24,1.58,1.58,0,0,1-.38,0,.33.33,0,0,0-.14,0,4.89,4.89,0,0,1-.55.05,3.5,3.5,0,0,0-1.1.28,5.78,5.78,0,0,0-1,.54,3.18,3.18,0,0,0-.58.52l0,.06a.07.07,0,0,1-.09,0s0,0,0-.08a.36.36,0,0,1,0-.11c.18-.31.34-.64.5-1a13,13,0,0,1,.7-1.2c.14-.23.29-.44.43-.66a.57.57,0,0,1,.14-.13h.15c.27,0,.53-.11.79-.13.41,0,.81-.13,1.21-.15s.62-.11.93-.14a4.75,4.75,0,0,0,.84-.14,1.79,1.79,0,0,1,.51-.07,2.06,2.06,0,0,0,.35,0,11,11,0,0,1,1.15-.18.48.48,0,0,0,.44-.3c.17-.38.37-.74.55-1.12s.29-.58.43-.87.42-.83.62-1.25.37-.74.54-1.12a9.7,9.7,0,0,1,.48-1A.1.1,0,0,0,20.52,9Z"/><path class="cls-2" d="M20.32,42.84c-.22-.05-.43-.15-.64-.22-.05,0-.08-.06-.13-.06a1.69,1.69,0,0,1-.61-.24c-.16-.07-.33-.13-.49-.21-.38-.21-.78-.39-1.18-.59,0,0-.1,0-.08-.11s.08-.06.13,0l.1,0a1.1,1.1,0,0,0,.54.09,4.06,4.06,0,0,0,1.25-.13A4.63,4.63,0,0,0,21.5,40a4.08,4.08,0,0,0,.73-1.09,7.2,7.2,0,0,0,.33-.88,5.3,5.3,0,0,0,.12-1.37v-.19a.24.24,0,0,1,.15-.21c.23-.12.46-.23.69-.36s.75-.36,1.1-.59c.1-.06.22-.09.32-.15l.79-.44a.42.42,0,0,1,.43,0l1.4.74c.16.09.34.16.49.25.33.2.67.34,1,.53a.32.32,0,0,1,.17.3v.59a3.61,3.61,0,0,0,.08.66,5,5,0,0,0,.26.86A4.58,4.58,0,0,0,30.4,40a4.69,4.69,0,0,0,1.92,1.24,4.58,4.58,0,0,0,1.87.24.55.55,0,0,0,.22-.06.33.33,0,0,1,.22,0,.07.07,0,0,1,.07.06.08.08,0,0,1-.05.07,1.56,1.56,0,0,1-.28.16c-.42.16-.8.4-1.2.58s-1,.38-1.44.57a.25.25,0,0,1-.17,0c-.07-.1-.19-.11-.29-.17-.39-.22-.78-.44-1.17-.64s-.73-.4-1.1-.57-.58-.32-.88-.47-.7-.37-1.05-.55-.67-.33-1-.53a.28.28,0,0,0-.29,0l-.3.18c-.65.34-1.29.68-1.95,1-.25.13-.49.29-.75.4s-.54.32-.83.43a5.21,5.21,0,0,0-.52.28c-.24.13-.49.25-.72.39A2.3,2.3,0,0,0,20.32,42.84Z"/><path class="cls-2" d="M31.51,26.17l.09,0a.18.18,0,0,0,.13.06,1.09,1.09,0,0,1,.26.22.58.58,0,0,1,0,.43.91.91,0,0,1-.31.27s0,0,0,0a4.51,4.51,0,0,1-.9,0l-.36,0c-.51,0-1,0-1.51,0-.21,0-.23,0-.23.23a1.48,1.48,0,0,1,0,.21c0,.19,0,.22.21.22s.54,0,.81,0,.74,0,1.11,0,.61.24.55.58a.26.26,0,0,1-.1.19.61.61,0,0,1-.42.19c-.44,0-.87,0-1.3,0-.25,0-.49,0-.73,0s-.21,0-.2.21,0,.2,0,.3a.13.13,0,0,0,.12.16h1.11l.13,0c.39.09.78.12,1.17.18a5.28,5.28,0,0,0,1.05.05c.32,0,.64,0,1,0l.32,0c.16,0,.2,0,.21.18a.28.28,0,0,1-.08.22,3.51,3.51,0,0,1-1,.82,1.34,1.34,0,0,1-.76.21c-.15,0-.3-.08-.45-.11a4.8,4.8,0,0,1-.63-.15l-.16-.05c-.32,0-.61-.14-.92-.18a6,6,0,0,0-.61-.06c-.27,0-.53,0-.8,0s-.8,0-1.2.06-.74.11-1.11.16-.81.23-1.22.33a4.14,4.14,0,0,0-.59.21.73.73,0,0,1-.2.05.59.59,0,0,1-.58-.75,3.56,3.56,0,0,1,.36-.7.78.78,0,0,1,.37-.26.31.31,0,0,1,.3.07.47.47,0,0,0,.36.09c.28,0,.55-.12.83-.14s.64-.06.95-.11.35-.06.53-.07.4,0,.61,0,.19,0,.18-.18V29c0-.12-.06-.17-.19-.15-.31,0-.63,0-1,0a1.37,1.37,0,0,0-.45.07,3.2,3.2,0,0,1-.67.14.53.53,0,0,1-.37-.06.44.44,0,0,1-.19-.58,3.29,3.29,0,0,1,.21-.42.39.39,0,0,1,.56-.19.79.79,0,0,0,.34.06c.5,0,1-.06,1.51,0,.15,0,.18,0,.19-.17a2.81,2.81,0,0,0,0-.29.26.26,0,0,0-.36-.24,1,1,0,0,1-.43.05c-.28,0-.56,0-.84,0h-.16a.77.77,0,0,0-.37,0,2.61,2.61,0,0,1-1,0,1.25,1.25,0,0,1-.23-.23.65.65,0,0,1,0-.39l0-.06s.05,0,0-.06a3.16,3.16,0,0,1,.45-.51.67.67,0,0,1,.44-.06l.16.08a.12.12,0,0,0,.12.08,2.73,2.73,0,0,0,.49-.06,1.45,1.45,0,0,1,.29,0,.86.86,0,0,0,.39,0h.56s.09,0,.14,0h2c.05,0,.1,0,.14,0h.37s.06,0,.1,0a2.89,2.89,0,0,1,.83.08h0A3.62,3.62,0,0,1,31.51,26.17Z"/><path class="cls-2" d="M31.61,25.41l-.12.12s0,0,0,0l-.07.05c-.05,0-.07,0-.09.05a.51.51,0,0,1-.38.05c-.06-.06-.14,0-.21-.05a4.13,4.13,0,0,0-1.31-.1h-.16a2.36,2.36,0,0,0-.75,0h-.14a1.89,1.89,0,0,0-.67,0h-.24c-.2,0-.41,0-.61,0a1.34,1.34,0,0,0-.62.14c-.11,0-.23,0-.33.07a.89.89,0,0,1-.66,0,1.35,1.35,0,0,1-.47-.61.27.27,0,0,1,0-.26A2.78,2.78,0,0,0,25,23.65c0-.31,0-.61-.05-.91a.68.68,0,0,0-.18-.38c-.12-.11-.23-.22-.34-.34s-.11-.22,0-.33a.56.56,0,0,1,.24-.13,5.2,5.2,0,0,1,1.18-.2,4.33,4.33,0,0,0,1-.07,1.35,1.35,0,0,1,.4,0c.18,0,.23,0,.23-.2a.74.74,0,0,0-.15-.57.36.36,0,0,1,.05-.5l0,0a.61.61,0,0,1,.88,0,1.33,1.33,0,0,1,.27.26.13.13,0,0,1,.06.09,1,1,0,0,1-.05.64l-.07.11c0,.08,0,.16.09.16s.38.06.57.06h1.3a1.14,1.14,0,0,0,.62-.17.23.23,0,0,1,.28,0,2.6,2.6,0,0,1,.66.58.36.36,0,0,1,0,.44,2.59,2.59,0,0,0-.32.67.05.05,0,0,0,0,.05,3.19,3.19,0,0,0-.08.61c0,.48,0,.95,0,1.43a.75.75,0,0,0,0,.3,1.34,1.34,0,0,1-.07.18S31.6,25.39,31.61,25.41Zm-5-3a5.06,5.06,0,0,0-.78,0c-.11,0-.13,0-.12.14v.31c0,.18,0,.21.19.2.43,0,.86,0,1.28,0,.68,0,1.37,0,2.05,0a9,9,0,0,1,1.47,0c.11,0,.16,0,.19-.14a.78.78,0,0,0,0-.34c0-.14-.06-.19-.2-.2l-1,0a2.2,2.2,0,0,1-.57-.05,2.11,2.11,0,0,0-.26,0c-.21,0-.42.06-.63.06C27.68,22.36,27.12,22.34,26.58,22.39ZM26.31,24a3,3,0,0,0-.52,0c-.08,0-.11.05-.11.13s0,.25,0,.38.06.15.15.13a3.13,3.13,0,0,0,.43,0,5.15,5.15,0,0,1,.95-.08c.94,0,1.88,0,2.81,0a1.64,1.64,0,0,1,.66.07c.09,0,.15,0,.17-.1a2,2,0,0,0,.05-.55c0-.09-.06-.13-.16-.11a.18.18,0,0,0-.12.05.36.36,0,0,1-.31.11,6.66,6.66,0,0,1-.78-.05,4.73,4.73,0,0,0-.84,0,14.24,14.24,0,0,0-1.46,0C26.92,24,26.61,24,26.31,24Z"/><path class="cls-3" d="M40.34,36.4A.7.7,0,0,1,40.2,36a1.37,1.37,0,0,0-.09-.57c-.09-.32-.1-.66-.17-1a3,3,0,0,1-.08-.67.9.9,0,0,0-.06-.22,2.54,2.54,0,0,1-.13-.73,1.59,1.59,0,0,0-.06-.3,3.5,3.5,0,0,1-.1-.66,1.35,1.35,0,0,0,0-.28,6.61,6.61,0,0,1-.18-1,.84.84,0,0,0,0-.17.21.21,0,0,1,.07-.29c.5-.43.94-.93,1.42-1.39.15-.15.32-.29.48-.44l1.15-1.15L43.55,26c.14-.13.3-.27.27-.5a.3.3,0,0,0,0-.13,1,1,0,0,1-.06-.49,1.4,1.4,0,0,0-.05-.41,1.24,1.24,0,0,1,0-.47h0a1.36,1.36,0,0,1,0,.4c0,.14.1.26.09.41a2.18,2.18,0,0,0,0,.57,1,1,0,0,1,0,.45,3,3,0,0,0,0,.31,9.1,9.1,0,0,0,0,.91c-.13.49-.06,1-.16,1.5a4.83,4.83,0,0,1-.2,1,1.7,1.7,0,0,0,0,.22A10.91,10.91,0,0,1,43.06,31a11.46,11.46,0,0,1-.39,1.17,4.19,4.19,0,0,1-.24.62c-.08.13-.11.28-.18.42-.21.4-.39.8-.59,1.2a15.16,15.16,0,0,1-.95,1.54A1.83,1.83,0,0,1,40.34,36.4Z"/><path class="cls-3" d="M20.32,42.84a2.3,2.3,0,0,1,.4-.23c.23-.14.48-.26.72-.39a5.21,5.21,0,0,1,.52-.28c.29-.11.54-.31.83-.43s.5-.27.75-.4c.66-.33,1.3-.67,1.95-1l.3-.18a.28.28,0,0,1,.29,0c.32.2.66.36,1,.53s.69.38,1.05.55.58.32.88.47.73.39,1.1.57.78.42,1.17.64c.1.06.22.07.29.17A3.24,3.24,0,0,1,31,43l-.18,0c-.5.16-1,.26-1.51.37s-.88.12-1.32.21a4.62,4.62,0,0,1-.65.05c-.71.06-1.43,0-2.15,0-.35,0-.7,0-1.05-.06s-.9-.13-1.36-.17-.64-.15-1-.22l-.19,0a3.54,3.54,0,0,1-.44-.11Z"/><path class="cls-3" d="M8.14,25.77l.49.48L10.38,28l2.06,2a.43.43,0,0,0,.1.09.27.27,0,0,1,.13.34,4.64,4.64,0,0,0-.14.83,3.53,3.53,0,0,1-.13.54c0,.16,0,.33-.06.49-.11.46-.12.93-.25,1.38-.06.22-.06.45-.1.66a12.1,12.1,0,0,1-.29,1.48c-.06.19,0,.4-.07.59s0,.07,0,.11c-.14-.18-.27-.37-.4-.55-.28-.4-.53-.82-.78-1.23A9.33,9.33,0,0,1,10,33.9c-.12-.26-.27-.5-.38-.77s-.23-.52-.32-.79l-.24-.65a.15.15,0,0,1,0-.07c-.11-.47-.29-.92-.4-1.39s-.14-.72-.25-1.08a1.34,1.34,0,0,1-.05-.35,3.74,3.74,0,0,0-.09-.74c0-.2-.05-.4-.07-.61s0-.7,0-1a4.19,4.19,0,0,1,0-.5C8.11,25.86,8.1,25.81,8.14,25.77Z"/><path class="cls-3" d="M40.4,15.51l-.62-.09c-.21-.05-.44-.06-.66-.09A11,11,0,0,0,38,15.2a2.74,2.74,0,0,1-.39-.09,6,6,0,0,0-.74-.09s-.07,0-.11,0a2.76,2.76,0,0,0-.9-.13,2.89,2.89,0,0,1-.6-.1,7.35,7.35,0,0,0-.82-.11.47.47,0,0,1-.4-.3c-.09-.2-.18-.39-.28-.58s-.26-.5-.37-.76-.16-.34-.25-.51c-.19-.41-.4-.81-.6-1.21s-.4-.78-.59-1.18l-.38-.81c-.06-.14-.17-.26-.23-.4a2.67,2.67,0,0,1,.4.13,14.63,14.63,0,0,1,1.7.67,20.42,20.42,0,0,1,2.16,1.18A16.35,16.35,0,0,1,37.16,12l.91.78a11.79,11.79,0,0,1,.94.93c.11.11.21.24.32.36.33.35.6.75.91,1.12A.66.66,0,0,1,40.4,15.51Z"/><path class="cls-3" d="M20.52,9a.1.1,0,0,1,0,.09A9.7,9.7,0,0,0,20,10c-.17.38-.36.75-.54,1.12s-.42.83-.62,1.25-.3.58-.43.87-.38.74-.55,1.12a.48.48,0,0,1-.44.3,11,11,0,0,0-1.15.18,2.06,2.06,0,0,1-.35,0,1.79,1.79,0,0,0-.51.07,4.75,4.75,0,0,1-.84.14c-.31,0-.62.12-.93.14s-.8.12-1.21.15c-.26,0-.52.09-.79.13h-.15s0,0,0-.07c.27-.35.52-.71.82-1,.15-.16.27-.34.42-.5a15.71,15.71,0,0,1,1.77-1.69c.28-.23.56-.47.87-.68a16.17,16.17,0,0,1,1.56-1c.35-.19.7-.38,1.06-.56a14.18,14.18,0,0,1,1.54-.69A8.1,8.1,0,0,1,20.52,9Z"/><path class="cls-2" d="M14.18,36.82a3,3,0,0,1,.12-.9,3.8,3.8,0,0,1,.55-1.23,3.63,3.63,0,0,1,1.56-1.34l.19-.1a.24.24,0,0,1,.11-.06c.12,0,.18,0,.16.13a2.85,2.85,0,0,1-.07.51c-.09.31-.09.63-.16.94a11.64,11.64,0,0,1-.25,1.31.4.4,0,0,0,0,.15,7.19,7.19,0,0,1-.14.93c0,.46-.17.91-.24,1.37a9.1,9.1,0,0,1-.21,1.16.14.14,0,0,0,.05.16.2.2,0,0,0,.2,0,2,2,0,0,1,.32-.18c.27-.16.57-.27.85-.44s.78-.41,1.17-.63.76-.4,1.15-.59.9-.49,1.36-.72c.27-.13.53-.31.82-.43.06,0,.11-.09.17-.12s.19,0,.19.1a3.79,3.79,0,0,1-.13,1.11,3.84,3.84,0,0,1-.4.93,4,4,0,0,1-.88,1,4.07,4.07,0,0,1-.9.58,5.49,5.49,0,0,1-.68.24,3.12,3.12,0,0,1-1.21.12,3.53,3.53,0,0,1-.91-.2,3.38,3.38,0,0,1-1-.48,4.25,4.25,0,0,1-1.6-2A4.8,4.8,0,0,1,14.18,36.82Z"/><path class="cls-2" d="M37.69,36.87v.38a3.18,3.18,0,0,1-.63,1.83,3.73,3.73,0,0,1-.67.76,4.43,4.43,0,0,1-1.2.73,5.07,5.07,0,0,1-.76.22,2.37,2.37,0,0,1-1,0,4.41,4.41,0,0,1-1-.24,3.58,3.58,0,0,1-.89-.46,3.91,3.91,0,0,1-1.24-1.41A3.83,3.83,0,0,1,29.86,37a1.49,1.49,0,0,1,0-.21c0-.13.07-.17.17-.1s.46.24.69.37c.5.26,1,.51,1.49.78l1.11.59c.36.18.7.38,1.06.56s.78.41,1.17.61l.37.19a.15.15,0,0,0,.2,0s0-.1,0-.16,0-.44-.11-.65c-.11-.46-.09-.94-.23-1.39a2.8,2.8,0,0,1-.12-.76.57.57,0,0,0,0-.13c-.14-.42-.11-.86-.25-1.28a1.93,1.93,0,0,1-.07-.49c0-.32-.14-.62-.14-.94a2.37,2.37,0,0,0-.14-.57c0-.09-.08-.19,0-.26s.19,0,.27.05a2.81,2.81,0,0,0,.39.19,4.57,4.57,0,0,1,1.13,1,3.3,3.3,0,0,1,.68,1.14A3,3,0,0,1,37.69,36.87Z"/><path class="cls-2" d="M38.79,17.85a5.76,5.76,0,0,1,.59,0,3.9,3.9,0,0,1,1.79.78A3.61,3.61,0,0,1,42.27,20a1.32,1.32,0,0,1,.22.62c0,.1.09.2.11.3a5.78,5.78,0,0,1,.1,1A3.67,3.67,0,0,1,42.52,23a4.22,4.22,0,0,1-.37.81,4,4,0,0,1-.8.94,4.36,4.36,0,0,1-.85.57,2.59,2.59,0,0,1-.67.26c-.2,0-.39.12-.59.13a4.17,4.17,0,0,1-1.17,0c-.18,0-.36-.1-.55-.13s-.09-.06,0-.13a.12.12,0,0,1,.05,0A4,4,0,0,0,38,24.9c.66-.61,1.27-1.27,1.94-1.88s1-1,1.57-1.53c.25-.24.51-.46.74-.7,0-.06.15-.11.11-.21s-.14-.1-.23-.11c-.51-.08-1-.11-1.53-.23a2.84,2.84,0,0,0-.51,0,1.61,1.61,0,0,1-.49-.07,5.26,5.26,0,0,0-.78-.12L38.54,20a2.88,2.88,0,0,0-.59-.06,5.72,5.72,0,0,1-.81-.14c-.49-.05-1-.17-1.47-.21-.05,0-.11,0-.13-.06a.08.08,0,0,1,0-.1c.27-.24.49-.52.78-.74a4,4,0,0,1,1.52-.73A3.08,3.08,0,0,1,38.79,17.85Z"/><path class="cls-2" d="M13.07,25.71A2.59,2.59,0,0,1,12,25.52a3.71,3.71,0,0,1-1.47-.86,3.85,3.85,0,0,1-.69-.82,4.87,4.87,0,0,1-.5-1.28,4.3,4.3,0,0,1,0-1.29,5.88,5.88,0,0,1,.14-.73,4.84,4.84,0,0,1,.21-.47,7.23,7.23,0,0,1,.6-.95,1.38,1.38,0,0,1,.31-.28c.23-.18.47-.35.71-.52a2.62,2.62,0,0,1,.45-.21,3.18,3.18,0,0,1,.88-.24c.29,0,.58,0,.88,0a3.13,3.13,0,0,1,1.31.29,5.83,5.83,0,0,1,1,.67c.06.05.11.12.17.18s.22.26.35.37a.1.1,0,0,1,0,.12c0,.06-.06.06-.11.06a3.52,3.52,0,0,0-.79.13l-.36,0a4.13,4.13,0,0,0-.69.11,2.14,2.14,0,0,1-.5.06,2.8,2.8,0,0,0-.58.08l-1.19.19a5.11,5.11,0,0,1-.55.05c-.3,0-.58.12-.87.14s-.7.12-1.06.14c-.05,0-.11,0-.13.06s0,.11.06.15c.2.2.39.41.6.6.47.42.91.88,1.36,1.34.11.1.22.21.34.3a8.94,8.94,0,0,1,.89.85,12.87,12.87,0,0,0,1,.95c.21.18.38.42.61.6,0,0,.08.07.06.13a.13.13,0,0,1-.13.07,1.76,1.76,0,0,0-.41.1A2.84,2.84,0,0,1,13.07,25.71Z"/><path class="cls-2" d="M21.19,25c0-.72,0-1.44,0-2.16,0-.27,0-.54,0-.81a1.8,1.8,0,0,0-.1-.4A1.27,1.27,0,0,0,20.7,21a.52.52,0,0,1-.1-.11.17.17,0,0,1,0-.21,2.5,2.5,0,0,1,.72-.73.38.38,0,0,1,.42,0,1.8,1.8,0,0,1,.56.54.33.33,0,0,1,.05.16,1.51,1.51,0,0,1-.07.63,5.79,5.79,0,0,0-.21.71,1.2,1.2,0,0,0,0,.38c0,.72-.05,1.44,0,2.16-.11.37,0,.76-.1,1.14a.72.72,0,0,0,0,.21,3.12,3.12,0,0,1-.05.68.31.31,0,0,0,.07.29,8.56,8.56,0,0,0,1.33,1.36,2.5,2.5,0,0,1,.57.6.62.62,0,0,1,.1.59.56.56,0,0,1-.86.26,4.15,4.15,0,0,1-1.47-1.53h0c0-.07-.07-.17-.16-.15s0,.13-.07.19a5,5,0,0,1-.16.55c-.11.27-.22.53-.34.79s-.15.38-.24.56a4.94,4.94,0,0,1-.54.88,1.64,1.64,0,0,1-.72.55.42.42,0,0,1-.33,0,1,1,0,0,1-.52-.4,2,2,0,0,1-.32-.81c0-.13-.09-.24-.1-.37s.09-.31.31-.26a1.18,1.18,0,0,0,1.05-.27,3.6,3.6,0,0,0,.76-.93,6.23,6.23,0,0,0,.44-.8,4.29,4.29,0,0,0,.4-1.35.93.93,0,0,1,0-.23C21.13,25.72,21.15,25.35,21.19,25Z"/><path class="cls-2" d="M29.87,12.51v.56a1.65,1.65,0,0,1-.1.48,5.83,5.83,0,0,1-.4,1,1.1,1.1,0,0,1-.2.28c-.06.06-.13,0-.16,0a4.48,4.48,0,0,0-.4-.86c-.23-.5-.48-1-.73-1.49l-.6-1.22L26.69,10c-.08-.16-.16-.33-.25-.49s-.23-.56-.39-.83c-.05-.07,0-.11.08-.12h.07a6.85,6.85,0,0,1,1.26.32,5.2,5.2,0,0,1,.62.32,3.94,3.94,0,0,1,1.3,1.36,2.82,2.82,0,0,1,.33.78s0,0,0,0a2.15,2.15,0,0,1,.16,1.06v.06Z"/><path class="cls-2" d="M22,12.54a2.73,2.73,0,0,1,.21-1.27,3.79,3.79,0,0,1,1.51-2,3.67,3.67,0,0,1,1.68-.63,1.41,1.41,0,0,0,.22-.06c.07,0,.13,0,.18,0s0,.12,0,.18l-.33.71c-.27.55-.54,1.11-.82,1.66s-.5,1-.73,1.45-.39.81-.59,1.22l-.47.92c-.06.12-.14.12-.2,0s-.25-.5-.36-.75a7.75,7.75,0,0,1-.27-.94A1.73,1.73,0,0,1,22,12.54Z"/><path class="cls-2" d="M24.35,23c0,.18-.09.31-.17.44a1.83,1.83,0,0,0-.31.87,2.42,2.42,0,0,1-.1.45,4.37,4.37,0,0,0-.12.52,1.11,1.11,0,0,1-.64.8A.17.17,0,0,1,22.8,26a.14.14,0,0,1,0-.17.88.88,0,0,0,.11-.57c0-.52.09-1,.06-1.57a5.4,5.4,0,0,0-.08-.58.59.59,0,0,0-.1-.17.35.35,0,0,1,.17-.57c.1-.05.21-.07.32-.13a.15.15,0,0,1,.13,0,2.12,2.12,0,0,1,.66.28C24.2,22.67,24.37,22.79,24.35,23Z"/><path class="cls-2" d="M20.43,25.63v.27a.59.59,0,0,1-.13.33.33.33,0,0,1-.34.14.36.36,0,0,1-.28-.25,2.14,2.14,0,0,1-.16-.75,1.32,1.32,0,0,0-.09-.43,1.11,1.11,0,0,1-.08-.37A3.67,3.67,0,0,0,18.76,23a.38.38,0,0,1-.08-.17c0-.16,0-.25.2-.25a1.4,1.4,0,0,1,.78.1.9.9,0,0,1,.54.77,3.15,3.15,0,0,0,.06.61,6.27,6.27,0,0,1,.11,1A3.36,3.36,0,0,1,20.43,25.63Z"/><path class="cls-3" d="M43.65,23.62a3.83,3.83,0,0,1-.18-1v-.06c0-.05,0-.12-.08-.13s-.06.07-.08.11,0,.17-.09.24,0-.14,0-.22a2.62,2.62,0,0,0,0-.28c0-.11.06-.19.12-.19a.22.22,0,0,1,.16.17,2.81,2.81,0,0,1,0,.29,1.24,1.24,0,0,0,0,.43,1.91,1.91,0,0,1,.1.58A.11.11,0,0,1,43.65,23.62Z"/><path class="cls-1" d="M31.7,25.19a.75.75,0,0,1,0-.3c0-.48,0-.95,0-1.43a3.19,3.19,0,0,1,.08-.61.05.05,0,0,1,0-.05.41.41,0,0,1,0,.29,1.33,1.33,0,0,0-.05.4V24.7"/><path class="cls-3" d="M29.7,26s-.09,0-.14,0h-2c-.05,0-.1,0-.14,0s.09,0,.14,0h2C29.62,26,29.66,26,29.7,26Z"/><path class="cls-3" d="M29.39,25.56a4.13,4.13,0,0,1,1.31.1c.07,0,.15,0,.21.05a1.31,1.31,0,0,1-.59-.06,1.45,1.45,0,0,0-.29,0H29.5S29.4,25.63,29.39,25.56Z"/><path class="cls-3" d="M31.51,26.17a3.62,3.62,0,0,0-.47,0h0a2.89,2.89,0,0,0-.83-.08s-.08,0-.1,0a3.76,3.76,0,0,1,.75,0l.34,0A.54.54,0,0,1,31.51,26.17Z"/><path class="cls-3" d="M26.83,26a.86.86,0,0,1-.39,0,1.45,1.45,0,0,0-.29,0,2.73,2.73,0,0,1-.49.06.12.12,0,0,1-.12-.08c.22,0,.44,0,.65-.07A2.29,2.29,0,0,1,26.83,26Z"/><path class="cls-3" d="M24.64,27.33a2.61,2.61,0,0,0,1,0,.77.77,0,0,1,.37,0,.64.64,0,0,1-.4.11,4.2,4.2,0,0,1-.79.05C24.78,27.4,24.7,27.41,24.64,27.33Z"/><path class="cls-3" d="M26.2,25.7a1.34,1.34,0,0,1,.62-.14c.2,0,.41,0,.61,0,0,.06-.05.05-.09.05H27a1.31,1.31,0,0,0-.39.05A.78.78,0,0,1,26.2,25.7Z"/><path class="cls-3" d="M25.21,25.76a.89.89,0,0,0,.66,0,.53.53,0,0,1-.4.1c-.13,0-.13,0-.09.15a.67.67,0,0,0-.44.06c0-.09.09-.09.14-.11A.19.19,0,0,0,25.21,25.76Z"/><path class="cls-3" d="M42.12,18.63c.08-.09,0-.18,0-.28.1.1.12.24.22.35a.11.11,0,0,1,0,.16c-.06,0-.14,0-.19-.09A.32.32,0,0,1,42.12,18.63Z"/><path class="cls-3" d="M42.06,18.26a.58.58,0,0,1-.15-.25,2.77,2.77,0,0,1-.27-.61A4,4,0,0,1,42.06,18.26Z"/><path class="cls-3" d="M28.48,25.55a2.36,2.36,0,0,1,.75,0A3.76,3.76,0,0,1,28.48,25.55Z"/><path class="cls-3" d="M27.67,25.55a1.89,1.89,0,0,1,.67,0A2.5,2.5,0,0,1,27.67,25.55Z"/><path class="cls-3" d="M32,26.91a.58.58,0,0,0,0-.43.48.48,0,0,1,.15.22C32.18,26.79,32.1,26.86,32,26.91Z"/><path class="cls-3" d="M24.42,26.71a.65.65,0,0,0,0,.39A.26.26,0,0,1,24.42,26.71Z"/><path class="cls-3" d="M43.19,23a.44.44,0,0,1-.13.36C43,23.18,43.15,23.08,43.19,23Z"/><path class="cls-3" d="M31.29,25.66s0-.06.09-.05S31.35,25.69,31.29,25.66Z"/><path class="cls-3" d="M31.73,26.26a.18.18,0,0,1-.13-.06S31.71,26.19,31.73,26.26Z"/><path class="cls-3" d="M43,23.64s0,.06-.05.06S42.91,23.65,43,23.64Z"/><path class="cls-3" d="M31.68,27.2s0,0,0,0S31.71,27.22,31.68,27.2Z"/><path class="cls-3" d="M24.49,26.59s0,.05,0,.06S24.45,26.6,24.49,26.59Z"/><path class="cls-3" d="M31.61,25.41s0,0,0,0S31.64,25.41,31.61,25.41Z"/><path class="cls-3" d="M31.45,25.56s0,0,0,0S31.48,25.57,31.45,25.56Z"/><polygon class="cls-3" points="26.21 27.24 26.21 27.24 26.21 27.25 26.21 27.24"/><path class="cls-3" d="M40.45,15.54a0,0,0,0,1-.05,0S40.43,15.52,40.45,15.54Z"/><path class="cls-2" d="M35.69,44a.5.5,0,0,1,.46.27,4.62,4.62,0,0,1,.47,1,.6.6,0,0,1-.23.52,3,3,0,0,1-.65.32l-.91.43a2.47,2.47,0,0,0-.46.23c-.08.06-.15,0-.2-.08s-.2-.41-.29-.62l-.44-.93c0-.07,0-.13,0-.17a.87.87,0,0,1,.3-.16.6.6,0,0,0,.23-.1l1.25-.57.18-.1A.41.41,0,0,1,35.69,44Z"/><path class="cls-2" d="M12.63,42.56a.4.4,0,0,1-.31-.12c-.42-.36-.84-.73-1.24-1.11a1.8,1.8,0,0,0-.2-.18c-.11-.08-.11-.16,0-.25a2.2,2.2,0,0,0,.41-.45c.07-.1.12-.11.2,0,.45.45.94.86,1.4,1.3a.35.35,0,0,1,.1.11c.19.29.18.31,0,.6C12.93,42.53,12.83,42.56,12.63,42.56Z"/><path class="cls-2" d="M45.18,33.08a5.51,5.51,0,0,1,.1-.55c.09-.26.18-.52.26-.78a3.55,3.55,0,0,1,.29-.79.36.36,0,0,1,.47-.21c.31.11.65.14,1,.28a1.18,1.18,0,0,1,.32.21.42.42,0,0,1,.07.45c-.09.27-.13.55-.23.81a4.54,4.54,0,0,0-.23.74,1.64,1.64,0,0,1-.23.48.36.36,0,0,1-.32.18,1.3,1.3,0,0,1-.52-.1c-.22-.1-.47-.14-.68-.25A.41.41,0,0,1,45.18,33.08Z"/><path class="cls-2" d="M9.4,11.18a.41.41,0,0,1,.26.09,7.15,7.15,0,0,1,.77.59.83.83,0,0,1,.19.26.35.35,0,0,1,0,.37c-.09.14-.2.27-.3.4a11.86,11.86,0,0,1-.94,1.18.6.6,0,0,1-.08.08c-.22.22-.34.25-.6.08a4.34,4.34,0,0,1-.94-.77.47.47,0,0,1,0-.52c.16-.24.35-.46.53-.68s.51-.59.73-.91A.43.43,0,0,1,9.4,11.18Z"/><path class="cls-2" d="M38.82,42.05a.33.33,0,0,1,.11-.27l.33-.34,1.07-.95.26-.2a.26.26,0,0,1,.31,0,.79.79,0,0,1,.18.14,5.74,5.74,0,0,1,.72.76.5.5,0,0,1,0,.69c-.32.3-.62.63-1,.9s-.41.37-.64.52a.3.3,0,0,1-.39,0,3.75,3.75,0,0,1-.87-1A.44.44,0,0,1,38.82,42.05Z"/><path class="cls-2" d="M16.71,44.37a9.31,9.31,0,0,0,0,1.18c0,.05,0,.12,0,.15a.17.17,0,0,1-.2,0,7.9,7.9,0,0,0-.91-.48c-.14-.08-.16-.11,0-.21l.6-.43a2.54,2.54,0,0,0,.36-.29c0-.05.09-.1.16-.07S16.72,44.3,16.71,44.37Z"/><path class="cls-2" d="M8.61,37c.09,0,.12,0,.11.12a.53.53,0,0,1-.06.14L8.24,38a.87.87,0,0,0-.07.17.61.61,0,0,1-.07.14.13.13,0,0,1-.23,0,5.71,5.71,0,0,0-.56-.88.29.29,0,0,1-.07-.12c0-.05,0-.1.07-.11.42,0,.85-.09,1.27-.16Z"/><path class="cls-2" d="M44.55,15.24a3.72,3.72,0,0,0,.77,0c.08,0,.19,0,.23,0s0,.16-.09.21a.91.91,0,0,0-.16.24l-.35.53a.84.84,0,0,0-.11.21c-.06.12-.12.12-.2,0l0,0c-.16-.34-.36-.66-.54-1-.07-.13,0-.18.11-.19Z"/><path class="cls-1" d="M26.58,22.39c.54-.05,1.1,0,1.66-.05.21,0,.42-.06.63-.06a2.11,2.11,0,0,1,.26,0,2.2,2.2,0,0,0,.57.05l1,0c.14,0,.19.06.2.2a.78.78,0,0,1,0,.34c0,.11-.08.16-.19.14a9,9,0,0,0-1.47,0c-.68,0-1.37,0-2.05,0-.42,0-.85,0-1.28,0-.17,0-.21,0-.19-.2v-.31c0-.11,0-.14.12-.14A5.06,5.06,0,0,1,26.58,22.39Z"/><path class="cls-1" d="M26.31,24c.3,0,.61,0,.91-.05a14.24,14.24,0,0,1,1.46,0,4.73,4.73,0,0,1,.84,0,6.66,6.66,0,0,0,.78.05.36.36,0,0,0,.31-.11.18.18,0,0,1,.12-.05c.1,0,.16,0,.16.11a2,2,0,0,1-.05.55c0,.1-.08.14-.17.1a1.64,1.64,0,0,0-.66-.07c-.93,0-1.87,0-2.81,0a5.15,5.15,0,0,0-.95.08,3.13,3.13,0,0,1-.43,0c-.09,0-.14,0-.15-.13s0-.26,0-.38,0-.13.11-.13A3,3,0,0,1,26.31,24Z"/><path class="cls-4" d="M76.22,20.76C78,18.4,79.63,14.55,81.72,7.5l.2-.68H77.79l-.2.68c-2,6.66-3.61,10.58-5.3,12.71l-.76,1h4.38Z"/><path class="cls-4" d="M101.44,30.38h9.32l1.13-3.82h-9.32l.6-2h9.32l1.15-3.86H89.54l-1.15,3.86H97.9l-.6,2H87.8l-1.14,3.82h9.51l-.6,2H85.3L86.6,28l-3.45-6.29a34.56,34.56,0,0,0,1.24-3.51l.2-.68h3.66L93.77,7,90.23,19h23.92l4.45-15H108.51L110,1.66h-5.48L103,3.94h-8.3l-.86,2.88H89.67l-4.52,8.83,4.16-14H84.17l-5,16.88a23,23,0,0,1-9.84,13.15l-.34.2-1.57,5.3,1.34-.67A30.24,30.24,0,0,0,80.18,27l4,8-.33,1.14h26.38l1.13-3.82H100.84ZM98.9,7.68h13.32l-.54,1.84H98.35Zm-1.66,5.58h13.33L110,15.1H96.7Z"/><path class="cls-4" d="M127.69,8.77c-2.42,8.16-6.73,19.86-10.91,26l-.62.9h5.75l.3-.47c3.26-5,7.84-16.13,10.89-26.42l.2-.67h-5.41Z"/><polygon class="cls-4" points="151.86 22.36 150.98 1.62 145.27 1.62 146.1 22.36 151.86 22.36"/><polygon class="cls-4" points="158.11 8.1 154.85 33.86 160.18 33.86 163.68 8.1 158.11 8.1"/><path class="cls-4" d="M145.91,32.1h-7.45c-2.62,0-3.23-.79-2.5-3.26l7.16-24.11h-5.5l-7.26,24.45c-1.47,5,.57,7.38,6.23,7.38h8a14.15,14.15,0,0,0,7.52-1.64l.35-.2,1.6-5.39-1.5,1a12.2,12.2,0,0,1-6.69,1.82"/><path class="cls-4" d="M176.61,14.73l-1,3.25h34.79l.95-3.2c.94.19,1.91.34,2.91.46l.81.1,1.37-4.62-.63-.07c-7.69-.91-12.92-4-14.74-8.71L201,1.62h-6.21l-.31.31c-4.61,4.62-11.52,7.64-20,8.72l-.66.08-1.37,4.63.88-.12c1.1-.14,2.21-.31,3.28-.51M196.53,6c2,3.39,5.64,6,10.5,7.64h-25.7A40.31,40.31,0,0,0,196.53,6"/><path class="cls-4" d="M211.9,26.15l1.28-4.31H170.53l-1.28,4.31H177l-4.87,5.61-1.57,0-2.18,0h-.74l-1.34,4.54h10.93c11.12,0,18.42-.15,25.31-2.13l.66,2.54h6.1l-2.83-10.52Zm-33.49,5.61,4.91-5.61h17l1.08,4c-6.15,1.47-12.55,1.57-23,1.57"/><polygon class="cls-4" points="245.82 25.73 263.19 25.73 264.46 21.43 224.28 21.43 223 25.73 240.37 25.73 238.53 31.91 219.89 31.91 218.61 36.22 261.31 36.22 262.59 31.91 243.99 31.91 245.82 25.73"/><path class="cls-4" d="M253,1.62h-5.45l-.58,1.94H228.3l-2.69,9.07h5.32L232.32,8H240c-1.89,4.13-5,7-13.23,7.38l-.71,0-1.33,4.49.82-.07c10.65-.87,16.61-4.41,19.87-11.83h4.68l-1.9,6.4c-.82,2.77.88,4.5,4.44,4.5h6.67a10.64,10.64,0,0,0,4.54-.92l.41-.2,1.46-4.92-1.5.95a7.27,7.27,0,0,1-3.7,1h-5.85c-.49,0-1.28-.13-1-1L255.39,8h8.94L263,12.63h5.36L271,3.56H252.4Z"/><path class="cls-4" d="M295.73,16.36h17.32l1.3-4.38H297l1.48-5a144.68,144.68,0,0,0,16.14-1.73l.63-.11L316.6.71l-.94.16c-11.41,2-22.06,2.16-37,2.16h-.74l-1.29,4.35h.74c5.84,0,10.91,0,15.53-.16L291.48,12H274.21l-1.3,4.38h17.27l-1.33,4.5H270.3L269,25.24h18.55l-1.34,4.53c-.38,1.25-.58,1.65-2.54,1.65h-8.1l-1.33,4.49h9.14c5.76,0,7.33-2.63,8.17-5.47l1.55-5.2h18.55l1.3-4.38H294.4Z"/><path class="cls-4" d="M325.72,29.57l4.11-13.87H319.54l-1.35,4.53h5.07l-2.68,9.05L314.71,32l-1.54,5.17,8-3.75c1.07,1.75,2.83,2.82,7.75,2.82h27.2l1.29-4.34H330.92c-4.18,0-5-1.11-5.2-2.31"/><polygon class="cls-4" points="332.69 5.45 323.81 1.28 322.38 6.09 331.23 10.39 332.69 5.45"/><path class="cls-4" d="M362.78,1.62h-5.66l-2.58,3.14H346.1a16.67,16.67,0,0,0-.72-2.67l-.16-.47h-6l.52,1.07a9.32,9.32,0,0,1,.76,2.07h-5.62l-1.2,4h11.44l-1.29,1.65h-9.4l-5.78,19.47h28.12l5.78-19.47h-13l1.27-1.65h13.41l1.19-4H360.2Zm-10.36,24.6H335l.5-1.68h17.39ZM354,20.94H336.6l.48-1.65h17.4Zm2-6.89-.48,1.65h-17.4l.49-1.65Z"/><path class="cls-4" d="M373.92,29.45l4.6-15.51h3.79l1.3-4.38h-3.79l2.36-7.94H377L374.6,9.56h-3.8l-1.3,4.38h3.79l-5,16.91c-1.11.19-2.2.34-3.26.43l-.68.06L363,35.72l.82-.06a48.4,48.4,0,0,0,12.94-3.07l.45-.19,1.49-5-1.35.68a22.94,22.94,0,0,1-3.47,1.4"/><path class="cls-4" d="M410,21.13l1.18-4H381.89l-1.18,4h6.58a12.44,12.44,0,0,1-6.71,2.74l-.7.05-1.31,4.43.89-.11a20.71,20.71,0,0,0,6.27-1.87h3.67a23.11,23.11,0,0,1-10.61,3.52l-.69.05-1.25,4.2.81-.06c5.69-.37,13.13-3.74,17-7.71h2.88a21,21,0,0,1-12.81,6.33l-.67.08-1.18,4,.85-.08a27.55,27.55,0,0,0,18.52-10.3h1.35l-1.32,4.46a2.56,2.56,0,0,1-2.67,1.94h-3.94l-1.16,3.9h4.67A8,8,0,0,0,407.1,31l2.52-8.5H391.48c.48-.45.91-.9,1.31-1.35Z"/><path class="cls-4" d="M414.38,2.29H387.54l-4,13.6h26.84Zm-8.31,9.93H389.91l.4-1.35h16.16Zm1.48-5H391.38l.41-1.35H408Z"/><polygon class="cls-4" points="78.85 52.05 77.24 49.56 75.36 50.61 74.86 52.05 70.88 52.05 73.3 45.03 77.28 45.03 76.34 47.74 80.92 45.03 85.64 45.03 80.58 47.87 83.45 52.05 78.85 52.05"/><path class="cls-4" d="M86.27,48.54c.83-2.42,4-3.75,8.06-3.75s6.31,1.33,5.48,3.75-4,3.75-8.06,3.75S85.44,51,86.27,48.54m9.5,0c.34-1-.47-1.61-2.18-1.61s-2.94.61-3.28,1.61.47,1.6,2.18,1.6,2.94-.6,3.28-1.6"/><path class="cls-4" d="M115.81,45l-1.28,3.71c-.75,2.2-3.44,3.55-7.33,3.55s-5.65-1.35-4.9-3.55L103.58,45h4l-1.2,3.49c-.31.89.06,1.6,1.58,1.6a2.58,2.58,0,0,0,2.69-1.6l1.2-3.49Z"/><path class="cls-4" d="M128.84,49.72c-.53,1.57-2.83,2.57-6.57,2.57a12.31,12.31,0,0,1-6.16-1.3l2.44-1.55a9.35,9.35,0,0,0,4.43,1c1.17,0,1.77-.12,1.85-.37s-.26-.35-1.89-.45c-3.08-.19-5.65-.7-5.08-2.35s3.27-2.44,6.57-2.44a12.57,12.57,0,0,1,5.36,1l-2.34,1.55a8.21,8.21,0,0,0-3.65-.68c-.87,0-1.86.06-2,.33s.58.3,2,.38c3.33.2,5.59.65,5,2.36"/><polygon class="cls-4" points="145.68 45.03 143.26 52.05 139.28 52.05 140.14 49.56 135.59 49.56 134.73 52.05 130.75 52.05 133.16 45.03 137.14 45.03 136.32 47.41 140.87 47.41 141.7 45.03 145.68 45.03"/><polygon class="cls-4" points="146.45 52.05 148.87 45.03 152.85 45.03 150.43 52.05 146.45 52.05"/><polygon class="cls-4" points="168.55 45.03 166.14 52.05 162.64 52.05 158.78 48.23 157.46 52.05 153.62 52.05 156.03 45.03 160.24 45.03 163.55 48.41 164.71 45.03 168.55 45.03"/><polygon class="cls-4" points="177.29 52.05 175.68 49.56 173.8 50.61 173.31 52.05 169.32 52.05 171.74 45.03 175.72 45.03 174.78 47.74 179.36 45.03 184.08 45.03 179.03 47.87 181.9 52.05 177.29 52.05"/><path class="cls-4" d="M192.59,51h-4.52L187,52.05h-4.13l7.37-7h4.32l2.54,7h-4.18Zm-.5-1.71-.54-1.87-1.82,1.87Z"/><polygon class="cls-4" points="199.18 52.05 201.59 45.03 205.57 45.03 203.16 52.05 199.18 52.05"/><polygon class="cls-4" points="223.81 52.05 222.21 49.56 220.32 50.61 219.83 52.05 215.85 52.05 218.26 45.03 222.24 45.03 221.31 47.74 225.88 45.03 230.61 45.03 225.55 47.87 228.42 52.05 223.81 52.05"/><path class="cls-4" d="M239.11,51h-4.52l-1.08,1.1h-4.12l7.36-7h4.32l2.54,7h-4.18Zm-.49-1.71-.54-1.87-1.82,1.87Z"/><path class="cls-4" d="M253.67,52.05l-1.57-1.93h-1.78l-.66,1.93h-4l2.42-7h7.15c2.76,0,4.72.8,4.12,2.54-.4,1.15-1.6,1.89-3.17,2.26l1.94,2.22Zm-2.74-3.69h2.85c.77,0,1.38-.18,1.55-.7S255,47,254.27,47h-2.86Z"/><path class="cls-4" d="M269.32,51H264.8l-1.08,1.1H259.6L267,45h4.32l2.53,7h-4.18Zm-.49-1.71-.54-1.87-1.82,1.87Z"/><polygon class="cls-4" points="288.43 47.08 284.68 47.08 282.97 52.05 278.99 52.05 280.69 47.08 276.94 47.08 277.65 45.03 289.14 45.03 288.43 47.08"/><polygon class="cls-4" points="301.13 50.1 300.46 52.05 289.23 52.05 291.64 45.03 302.72 45.03 302.05 46.97 294.87 46.97 294.65 47.63 300.42 47.63 299.82 49.37 294.05 49.37 293.79 50.1 301.13 50.1"/><path class="cls-4" d="M326.46,48.54c-.77,2.24-3.71,3.51-7.63,3.51h-6l2.41-7h6c3.93,0,6,1.27,5.22,3.51m-4.07,0c.32-.9-.5-1.43-2.21-1.43h-1.71l-1,2.85h1.7c1.71,0,2.88-.52,3.19-1.42"/><path class="cls-4" d="M328.74,48.54c.83-2.42,4-3.75,8.06-3.75s6.31,1.33,5.48,3.75-4,3.75-8.06,3.75-6.31-1.33-5.48-3.75m9.5,0c.35-1-.47-1.61-2.18-1.61s-2.93.61-3.28,1.61.47,1.6,2.18,1.6,2.93-.6,3.28-1.6"/><path class="cls-4" d="M348.08,50.12a2.21,2.21,0,0,0,2.37-1.5L351.68,45h4l-1.31,3.81c-.72,2.1-3.26,3.45-6.93,3.45-2.22,0-3.57-.5-4.37-1.36l3.07-1.61a2.38,2.38,0,0,0,2,.8"/><path class="cls-4" d="M357,48.54c.83-2.42,4-3.75,8.06-3.75s6.3,1.33,5.47,3.75-4,3.75-8.05,3.75S356.19,51,357,48.54m9.5,0c.34-1-.48-1.61-2.18-1.61s-2.94.61-3.29,1.61.48,1.6,2.19,1.6,2.93-.6,3.28-1.6"/></g></g></svg>