<svg xmlns="http://www.w3.org/2000/svg" viewBox="0 0 305.39 351.6"><defs><style>.cls-1{fill:#f2f2f2;}</style></defs><g id="Layer_2" data-name="Layer 2"><g id="レイヤー_1" data-name="レイヤー 1"><path class="cls-1" d="M205.83,206.25c.43.68.85-.45,0,0Zm87.3,84.34c-2.64-.6-8-4.77-10.48-6.84,1.41-1.95,2.71-3.68,2.71-3.68s-8-4.58-9.15-6.25-1.67.48-4.53-3.09-32.39-10.06-39.89-12.92-11.6-6.07-11.79-7.68-1.42-2-3-1.43-2.86-2.49-3.22-3.57-.53-4.46-2.14-4.83-1.07-3.38-2.14-5.35-8.1-13.46-7.74-14.71a10,10,0,0,0,0-4.64c-.36-.72.36-2.33,1.25-4.11.31-.61.21-2.32,0-4.31a20.12,20.12,0,0,0,2.89-.93c-.43-.67,1.17-8.8.13-10.13s-1.51-4.15-2-5.71-1.93-4.65-2-5.54-3.48-8-3.48-8a8.51,8.51,0,0,0-1.4-2.29c-.7-3.62-1.85-4.05-3.76-5.1v-8.22l.35-1.8a60.46,60.46,0,0,0,9.18-5.1c3.45,2.58,7,3.47,8.1,3.2,1.9-.45,11.9-9.62,14.29-11.45s13.33-14.68,16.19-15.14,2.86-5.5,3.33-12.38-8.09-15.59-10.48-17.43a9.67,9.67,0,0,1-3.8-7.79c0-3.22-2.86-4.59-5.24-6s-10.48-8.25-12.39-9.62-2.34-3.65-4.29-5.05c-.61-.45-2.77-.89-5.52-1.17-.49-1.27-1.3-2.3-2.57-2.11-2.5.35-3.22-.72-6.43-2.15a12.47,12.47,0,0,0-6.07-1.06s-3.15-7-5.64-6.45c-.85-1.56-1.47-5.7-1.47-5.7a11.17,11.17,0,0,0,5,5.68,13.14,13.14,0,0,1-2.27-3.87,25.89,25.89,0,0,0,2.72,2,36.64,36.64,0,0,1-3.18-8.41c2.27,5,4.77,7.27,6.14,8a23.47,23.47,0,0,1-3.18-8s2.27,2,3.18,2.72c-.23-.21-.91-3.85-1.82-6.36s5.46-18,1.82-27.28-5.45-22-34.78-17.73c-.72.1-11.83,3.17-14.1,11.6s-4.25,7.4.26,11.88a17.68,17.68,0,0,1,.88,2.14l-.37,1.38.5.63a2.7,2.7,0,0,0-.13.76,26.43,26.43,0,0,1-2.13,5.53c-.63.75-1.51,3.15.75,3.77,0,0,1.26,0,1.38.5a4,4,0,0,1-.37,2.4c-.38.5.25,1.13.37,1.63s1,1,1,1,.13.12-.5.88-.88,1.88-.13,2.39a4.85,4.85,0,0,1,1,3.4c-.13,2.13-1,3.26,2,3.76s7-1.12,7.8-.62-.51,1.88.63,3a3.36,3.36,0,0,1,.78,2.43l-2.25.42L149,63.71s-2.86-1.78-4.65-.35-2.14,2.86-3.93,3.57-7.5-.36-7.5-.36-3.21.36-4.64,2.14-1.43-2.49-3.94.36-8.57,1.79-13.21,3.22-9.29,1.07-12.86,1.07S76.1,74.79,67.17,76.93,41.45,78,41.45,81.22v.62c-6.45.73-12.34,1.35-13.57,1.29a99.61,99.61,0,0,1-15.16-3.31c-.85-.51-3.18-2.7-5.09,1.2a72.92,72.92,0,0,1-5.34,5.36C.67,87.63-.27,89.09.07,90.44S2.62,92.7,3.72,94A7.38,7.38,0,0,0,6.87,96a1.33,1.33,0,0,0-1.4,1.33c-.18,1.43-1.67,2.23,0,3.46s5.14.3,7-.13S18,98.8,19.16,98.91s5.5-.09,7.85-2.11,2.51-4.22,4.08-4.5c.91-.15,5.94,1.18,11.35,2.45.8,6.24,2.23,13.09,4.72,17.2,0,0,8.93,2.49,10.72,1.77s17.15-2.85,18.94-3.21,14.29-3.21,16.43-2.14,7.5-.36,10.71-1.07,13.22.35,14.29,0,7.5-2.14,7.5-.36a21.22,21.22,0,0,0,.37,6.43c.71,3.21,2.14,8.21,3.92,14.29s1.07,8.22,1.79,11.07,1.07,4.29,1.79,6.43,1.43,6.07.35,8.21-1.07,3.58.36,4.3,2.15,1.07,2.15,2.86,2.14,11.07.71,13.21-12.09,6.86-22.8,24c0,0-22.87,10.35-30.72,17.14s-10.72,23.58-10,48.59,1.42,42.5,0,44.65,0,5.36.35,8.93-1.79,8.57-1.79,9.29c0,.44,10.14,1.42,19.47,1.87-1.75,3-6.33,5.54-10.41,8.61-5.72,4.28-10.49,4.76-13.34,5.71s-3.33,2.86-3.33,2.86c-3.34,1.42-4.29,5.24-1,5.72a18.34,18.34,0,0,0,6.67-.48c8.1,2.85,18.1-1.43,21.91-1.91s14.76,2.39,20-1,1-11.43-.47-14.77a16.6,16.6,0,0,1-.76-5.27,32.47,32.47,0,0,1,6.95.75s-1.43-9.29-2.5-11.43-.81-16.83-1.16-18.63,1.78-11.78.71-14.29-1.78-5.72-.71-8.21.45-3.88,1.52-7.1,2.14-4.28.71-5.72-.71-2.86-1.43-4.28-.35-6.43-.35-8.93,1.07-.72,2.5-3.58a11,11,0,0,0,1.43-4.28c3.21-.36,14.29-7.86,16.43-8.93,1.54-.78,17.13-3.8,28.8-7.43,2.29,5.91,5.48,12.69,6.21,19.22,1.07,9.65,14.76,26.07,17.14,28.93s14.41,12.15,16.08,12.87,40.6,18.48,42.57,19.47c4.5,2.26,20.21,8.7,20.21,8.7s3.92-7.58,7.46-14.52a2.25,2.25,0,0,0,1.16,1.05c4.7,1.62,3.49,9,3.62,16.13s1.51,10.78-.61,12.93-1.7,4-1.7,4c-3.25,1.79-1.47,6.61,1.72,5.54a18.12,18.12,0,0,0,5.74-3.43c8.52-1.08,9.07-17.61,10.91-21s10.59-10.57,11-16.77S296.67,291.38,293.13,290.59ZM203.28,121.94a32.41,32.41,0,0,0-.15-4.78,34.67,34.67,0,0,1,4,3.71c1.33,3.85,2.91,4.1,3.72,3.9-1.8,1,.81,3-1.82,3-2.86,0-2.38,2.29-2.38,2.29l-6.38,2C201.31,128.63,203,123.63,203.28,121.94Zm-7,23.19a16.43,16.43,0,0,0,.76,2c-.4-.13-.81-.26-1.21-.37C195.94,146.26,196.09,145.71,196.26,145.13Zm-17-86.74c0-.21,0-.41-.08-.61a16,16,0,0,0,2.07,1.52C180.78,59.05,180.1,58.73,179.29,58.39Z"/></g></g></svg>