<svg xmlns="http://www.w3.org/2000/svg" viewBox="0 0 326.23 303.79"><defs><style>.cls-1{fill:#f2f2f2;}</style></defs><g id="Layer_2" data-name="Layer 2"><g id="レイヤー_1" data-name="レイヤー 1"><path class="cls-1" d="M1.69,290c-1.24,2,1,3.83,2.08,3.92.1,2.14-.1,4.53,2.55,4.75-.79,3.15,1.45,5.57,3.06,5.07,2.75-.85,3.13-5.63,3.21-6.42a25,25,0,0,1,4.11-7.68c2.07-2.51,4.69-11.38,6.36-12.32a68.41,68.41,0,0,1,11-3c4,4.74,7.07,11.07,10.64,11.07,3.73,0,15.45-2.12,21.32-1.59s22.38,2.66,25.59,2.13,17.59-9.06,20.78-13.86,11.2-46.37,12.79-51.17,10.66-10.13,12.8-11.19,2.66-3.74,6.39-4.79,24.52-5.34,26.65-7.47,35.72-6.93,37.31-7.47a122.15,122.15,0,0,1,12.26-3.2c5.33-1.07,35.27-14.57,38.47-16.16S276.44,165,276.44,165s-1.17-7.73-2.74-16.59c3.08-2.12,5.44-3.86,6.58-4.54,4.67-2.83,12.41-5.37,13.45-4.1,2.19,4.09,9,3.6,12.15,1.35s7.34-11.16,8.49-14,6.05-5.82,9.37-10.26,2.54-9.77,2-12a6.29,6.29,0,0,0-1.11-3.92,6.24,6.24,0,0,0-.73-2.69c-.78-1.69-1.82-2.74-1.8-3.07a3.44,3.44,0,0,0-3.89-1.54c-2,.77-1.57,4.66-1.54,6.08s-2.45,6.36-2.45,6.36-4.05,3.41-6.06,4S290.23,121.64,289,122.22s-17.3,6.17-17.74,6.29l-1.59.42a21.46,21.46,0,0,0-2.11-5.81c-1.32-1.76-18,7.7-20.78,8.58a101.07,101.07,0,0,0-11.82,5.46c-1.6,1.07-15.46,4.27-19.2,5.34s-10.23-.07-14.38,1.06A104.16,104.16,0,0,1,188,146.23c-3.73.53-12.26,2.13-14.4,2.67S163,150,160.84,150.49s-18.12,7.46-20.78,6.39a10.46,10.46,0,0,0-5.34-.52c-1.06-5.34-6.92-8-6.92-8h-4.26l-1.07-12.79s2.13-4.27,2.13-6.41-3.2-8.52-3.2-8.52l14.39,3.2s9.6,1.07,11.2.53,4.8-11.72,4.8-11.72a36.52,36.52,0,0,0,1.49-5.21c2.35-.53,4-.93,4.28-.9.85.11,1.07-1.06,1.49-1.17s2.75.63,5.73,1.17,8.38-1.49,9.33-2.34,4.25-1.17,5.2-1.06,4.14.33,5.83-.42a1.15,1.15,0,0,0,0-2.23c-.53.11-3-.1-3.5-.1s-4.34.42-4.88-.11.43-1.28.74-1.49,2.76-1.38,2.76-1.38.43.53,1.81-.52a1.9,1.9,0,0,0-.32-3.19c-.85-.21-3.08.54-3.82.75s-3.19,1.27-3.93.74,0-1,.11-1.28a21.72,21.72,0,0,1,2.54-2.12l1.39-1a2.06,2.06,0,0,0,1.59-1A1.65,1.65,0,0,0,178,87.34c-1.81,0-5.84,3.18-6.27,3.5a2,2,0,0,1-1.9,0c-.75-.33-.54-.43-.54-.85s.86-1.06.95-1.38.54-.53,1.49-1.06a2,2,0,0,0,.86-2.86c-.65-1.28-2.87-.75-3.61-.54s-4,3.83-4.14,4.25-3.18,1.7-3.61,1.8-1-.42-1-.42v-1.7s.63.21,1.27-2.23-2.54-3.71-2.76-2.53a9,9,0,0,1-2.22,4A15,15,0,0,0,154,91.79c-.74,1.7.74,4.78.21,4.56s-1.7,1-2,1H150.7c-1.56-2.58-3.17-4.92-3.17-4.92s-13.87,3.2-18.67,2.13-12.25-3.73-13.32-5.86-3.2-2.13-4.79-3.19-4.81-10.67-5.34-12.28-3.2-11.18-5.33-14.37A9.41,9.41,0,0,0,98.15,57,7.86,7.86,0,0,0,99,56.5a5.84,5.84,0,0,1,3.48-1.2c.91.11,3.15,1.78,4.56,2.64s3.07-2.17,3.75-2.25c1-.11,1.32.08,1.38-.73s-.39-.78-.15-1.14,1-.72.52-1.13a14.74,14.74,0,0,1-2.32-1.79c-.06-.31.42-3.15,2.47-3.39.31,0,3.44,1.22,3.88,1.22s1-.67,1-.67c1.34.56,1.52,0,1.45-.4-.18-.79-.28-1.34.09-1.64s1.57-.08,3-.19,2.51.4,1.79-2.32-.65-5.69-.41-6.07.47-.22.45-.75,1.86-.48,1.64-1a8.08,8.08,0,0,1,.07-2.4l1.44-.91a3.37,3.37,0,0,0,.66-2.53s0-.17.07-.45c5.65-4.19,3.78-9.62,1-13.61l.26-.2a20.59,20.59,0,0,1,3.08,2.67c-.72-1.39-1.41-2.6-2.08-3.63,1.9-2.07,3.07-5.37.34-10.29,0,0,.78,5.7-1.56,8.56a15.63,15.63,0,0,0-2.54-2.69c0-1.64-.7-4.37-4.46-6.74C116-.14,105.23-1.22,96.58,1.61S77.12,3.36,72.47.37A57.91,57.91,0,0,0,81.22,5a26.19,26.19,0,0,1-6.84-1.2A62.68,62.68,0,0,0,82,7.16a19.24,19.24,0,0,1-2.48-.65s1,.52,2.49,1.22a25.82,25.82,0,0,1-6.83-1.19,60.89,60.89,0,0,0,9.57,4c-.28,0-.55,0-.83,0A33.05,33.05,0,0,1,69.87,6.71c1.4.82,4.21,2.43,7.16,3.81a27,27,0,0,0-6,.42,28.83,28.83,0,0,1-5.64-3.06c1,.73,2.66,2,4.62,3.26a19.23,19.23,0,0,0-3.29,1.09s2.17-.07,4.86-.08c2.64,1.65,5.49,3.19,7.58,3.62.35.08.73.14,1.12.19a55.84,55.84,0,0,1-11.12-.58A96.8,96.8,0,0,0,82.05,18a11.54,11.54,0,0,1-2.61.35A25.37,25.37,0,0,0,70.35,20a29.91,29.91,0,0,1-6.11-2c1.09.55,3,1.47,5.13,2.4A17.74,17.74,0,0,0,66.32,22s2.11-.46,4.76-.94c2.89,1.16,6,2.17,8.12,2.23a10.79,10.79,0,0,0,1.13,0c-.88.2-1.82.4-2.81.57a56.3,56.3,0,0,0-11.25-1.63,26.86,26.86,0,0,1,7.26,2.19c-1.34.13-2.76.23-4.26.26,0,0,2.35.24,5.6.34.76.36,1.56.77,2.39,1.23l.56.28a31.2,31.2,0,0,1-8.56,1.4,32.28,32.28,0,0,0,12.22-.06l.83.2a31,31,0,0,1-8.51,1.38,30.65,30.65,0,0,0,8,.48,31.34,31.34,0,0,1-3.89.33,27.7,27.7,0,0,0,5.39.55,31.6,31.6,0,0,1-7.49,1.09,28.79,28.79,0,0,0,5.13.54,31.36,31.36,0,0,1-7.6,1.11,31.06,31.06,0,0,0,9.24.37,31.2,31.2,0,0,1-6.93.94,26.41,26.41,0,0,0,4,.5,35.24,35.24,0,0,1-3.7.31,29.89,29.89,0,0,0,7.34.51,32.12,32.12,0,0,1-5.92,2.52A17.31,17.31,0,0,0,86,36.86V37c-2,1.84-4,3.38-4,3.38a12.68,12.68,0,0,0,3.92-1,16.69,16.69,0,0,1-.4,2.45,11.27,11.27,0,0,1-2.78,5.49c-3.51-2-6.17-3.48-6.17-3.48l-1.06,8S64.37,63.07,60.1,65.21,50,96.65,46.77,105.18s.54,38.38,2.67,41.58,6.93,4.8,10.13,5.33,4.26,1.6,4.26,1.6l4.27,4.79c-4.27,6.93-6.93,21.86-5.34,30.39s-.52,18.12.54,16,7.46-2.68,7.46-2.68l-.54-1.59c-.53-1.61-.53-8-.53-12.26.53,4.79,6.4,15.46,5.33,17.58s1.6,4.8,3.21,6.93,1.07,9.6,1.6,11.2,0,13.32,0,19.18-6.93,3.2-17.07,2.68-19.71,7.45-24,8-6.41.53-7.47-1.07-3.56,2.9-4.68,7.55a12.48,12.48,0,0,1-1.93.23c-4.81.13-8.18-4.42-11.81.62A181.79,181.79,0,0,0,2.51,277,5.61,5.61,0,0,0,.58,284C.05,287.18.21,288.53,1.69,290ZM80.34,25,81.65,25l-.71.34A3.7,3.7,0,0,1,80.34,25Zm3.57-5.26a17,17,0,0,1-5.35,1A36.06,36.06,0,0,1,74,20.59,36.48,36.48,0,0,1,80.25,20,27.74,27.74,0,0,0,83.91,19.78Zm.47-6.65a16.66,16.66,0,0,1-5.45.07,35.77,35.77,0,0,1-4.43-1,37.55,37.55,0,0,1,6.23.53A28.57,28.57,0,0,0,84.38,13.13Zm43.53,3.3.06,0c2.25,4.53,1.69,8,.15,10.54.14-1.13.31-2.39.42-3.4A16.07,16.07,0,0,0,127.91,16.43ZM89,7.68l.21.05H89ZM64.46,7.22s.31.26.88.66Zm4.46-1.08s.33.23,1,.57ZM63.27,17.47s.34.2,1,.5Z"/></g></g></svg>