<svg xmlns="http://www.w3.org/2000/svg" viewBox="0 0 326.67 394.66"><defs><style>.cls-1{fill:#e6e6e6;}</style></defs><g id="Layer_2" data-name="Layer 2"><g id="レイヤー_1" data-name="レイヤー 1"><path class="cls-1" d="M326.34,326.7s1.32-2-1.33-9.59-13.9-35.07-15.55-38.38-2-16.88-5.95-21.18-6.95-10.26-16.55-13.9-25.81-18.86-31.1-20.18a100.53,100.53,0,0,1-19.19-7.94c-4-2.31-13.23-15.55-13.23-16.54s-.67-13.24-.67-13.24,3.64-4,3.31-6.94c-.09-.78-.13-1.36-.17-1.87a49.88,49.88,0,0,0,9.33-.12s4,1.76,6.17.44-.44-3.09,2.21-5.29,0-4.86,0-4.86,3.09-1.76,4-4-2.21-4.41-2.21-4.41l1.77-1.76c1.76-1.77.44-4.86-1.33-5.74s-7.5-.44-7.5-.44a5.16,5.16,0,0,0,1.77-6.62c-1.33-3.09-4,2.65-7.94,5.3-2.31,1.54-5.1,3.86-7.37,5.69a6.2,6.2,0,0,1,.31-.84c1-2,7.61-12.58,7.61-14.89s-8.61-33.42-11.91-40c-2.63-5.25-3.8-10.7-5-13.06,5.56-15.38,3.58-36.6-4.6-41.87a6.85,6.85,0,0,1-1.22-.94c.55-.89.89-1.37.89-1.37,3.09-2.47,3.87-9.56,1.53-11.29,2-11-4-23.48-14.14-28.41A18.66,18.66,0,0,0,186.7.13C166.26,2.4,165.86,21.64,165.53,24a48.64,48.64,0,0,0,.66,10.26c.33,1.32-3.31,1-.66,7.28,1.8,4.28,4.24,5,5.29,6.29,4.92,6.14,3.5,9.75,1.7,11.61-5.28.34-7,2.28-7,2.28s-.33,9.27-1,10.59-4.3,3.64-7.61,6.95c-1.62,1.61-3.46,3.07-5.05,4.64a8.41,8.41,0,0,0-5.54,1.64c-3.31,2.65-9.93,9.93-12.57,10.59s-4.64-4-4-7.94.66-13.9-1.33-12.57a13.48,13.48,0,0,1-2.44,1c-.36-7-.61-14.12-1.09-18,0,0,4.19-1.55,5.52-8.83,4-4,6.11-6.77,6.61-10.59,1.33-9.92-4.63-7.5-4.63-7.5s-2.21-9.26-7.94-10.58c-3.36-.78-8.6-1.55-7.94,4.41-4.63,0-4.63,1.76-4,5.07-4,0-5.29-.66-5.29,5.3-2.65,2-4.63,5.29-4.63,7.27s5.51,13.9,5.51,17.21c0,2.71-.3,11.3-1.37,23.25-5.14,3.39-18,11.81-18,14.25,0,2.64,7.94,19.41,9.92,28s7,22.32,14.78,24c7.94,1.76,17.65-7.5,21.62-10.15s5.29-2,5.29-2a32,32,0,0,1,7.17-1.52,120.32,120.32,0,0,1,3.09,20.05c.33,7.28,1.32,8.61.33,13.57s1,8.6,2.32,9.92,5.53-.32,5.53-.32l-.45,10s-9.06,4.53-13.59,10.41-13.14,17.67-14,19-14,11.32-15.85,15.85,2.26,7.7,2.26,7.7-.45-3.63,1.36-3.17,2.72,4.53,2.72,4.53-23.1,27.63-28.08,34.87S85,291.34,85,291.34s-8.6,1.81-11.77,4.53-30.8,27.18-33.52,29-8.6,7.7-8.6,7.7a7.82,7.82,0,0,0-.45,4.08c.45,1.81-10.42,17.21-13.14,20.83s-8.78,7.59-10.42,11.32c-1.7,3.9-2,4.9-5.34,8.54-2.2,2.42-3.26,11.85,2.63,13.2s12.68,1.36,14.49,2.27,5,1.81,5.89.45c0,0,2.47,1.28,4.12-.37,1.32,1.65,4.63.66,5.62,0a12.12,12.12,0,0,0,7.28,1.33c3-.34,4.63-6.62.33-6.62a28.26,28.26,0,0,1-3-1.33c-2-1-6-5.29-8.27-7.28s-1.32-1.32-.33-3.63,1.65-2.66,2.32-5,11.58-10.92,12.9-11.58c0,0,9.6,5.95,11.58,7.61S69.58,377.66,70.9,379s9.93,6.62,11.58,5.3,27.79-31.77,30.44-35.74S126.49,334.65,128.8,330a65.39,65.39,0,0,1,6.95-10.59c1.32-1.65,32.76-33.42,36.07-38.71s10.25-17.2,10.25-17.2,4.63-4.63,5.3-3S190,270.79,190,270.79l3.65-1.33S224.42,288,231,289.31s18.53,8.27,19.19,10.26,1.66,2,2.65,2.31,2.65,2,4.63,4l4.63,4.63c1.33,1.32,8.61,16.21,8.61,22.17a54.94,54.94,0,0,0,2.64,14.89c.67,2-.33,7.28,2,6s4.63-2.32,4.3-1.33.66,20.19-1.65,22.83-6.95,13.9-2,15.22,11.25-.33,14.23.33,16.55,1.33,17.87,2.65,6.28,2.32,8.27.33a8.84,8.84,0,0,0,4.63-.66s2.32,2,3.31,0-1-4.3-3.64-5a21.56,21.56,0,0,1-6.29-2.32c-3.31-1.66-10.91-8.6-14.89-12.91s.67-29.11,1.33-30.77S326.34,326.7,326.34,326.7ZM204.57,75.24c-.26-.24-.65-.56-1.14-.93a16.53,16.53,0,0,0-.18-2.38c-1.27-8.71,1.14-16.8,3.57-22.36,5.6,7.73,5.23,22.12,4.52,32.55C209.08,79.82,206.36,76.82,204.57,75.24Z"/></g></g></svg>