<svg xmlns="http://www.w3.org/2000/svg" viewBox="0 0 459 430"><defs><style>.cls-1{fill:#fff;}.cls-2{fill:#ccc;}</style></defs><g id="Layer_2" data-name="Layer 2"><g id="レイヤー_1" data-name="レイヤー 1"><rect class="cls-1" width="459" height="430"/><path class="cls-2" d="M411.15,379.66c-.34-4.18.88-7.47-3.85-10.22s-4.61-5.49-5.05-6.6.32-.55.32-.55a14.91,14.91,0,0,1,1.21-1.09c.33-.23-1.42-6.27-2.3-7.91s-1.43-4.74-2.53-6.38-24.34-29-26.87-32-9.78-12.21-10.88-14.08-5.61-12.09-10.34-13.62-7.25-.22-10-2.75-3.95-1.32-4.61-4.18-4.18-15.82-5.06-19.11a21.73,21.73,0,0,0-3.4-6.71c-.33-.45-5.39-8.69-5.72-9s3.08-1.09,4.4-2.42,2-2.3,1.53-2.3-7.58-10.23-9.44-12.53-9-18.57-12-19.57A9.57,9.57,0,0,1,302,205l-.66-8.24s3-.66,1.87-2.2a7.77,7.77,0,0,0-3.08-2.75c-.55-.11-.71-7.52.28-8.73s2.09-3.4,2.53-3.74.66-4.5.66-4.5.55-3.52.87-3.52,15.61,5.06,17.26,4.84,4.61,3.29,6.48,2.2,8.36-6.27,10.12-7.81,5.27-6.59,5.6-8.24,1.21-18.68-.66-21.54-3-5.17-3.74-5.5,3.28-4.87,3.28-4.87a77.09,77.09,0,0,1,6-6.41c1.7-1.34,7.14-6.54,7.62-6.9s2.06-3.14.12-5.07-4.71-9.32-6.89-9.68-2.18,1.33-2.54,1.21-2.66-1.69-4.71-.85-1.09,1.45-1.45,1.45-2.91-1.08-4.48.49l-1.57,1.57s-1.33-.49-2.54,1.33a7.35,7.35,0,0,0-.72,6.28,3.13,3.13,0,0,1,.24,2.55s-4,4.83-3,9.18-.37,5-.37,5-2.63,4.32-2.52,4.65a16.1,16.1,0,0,1-1,3s-.88-.77-2.75,1.43c0,0-.55-1.32-2.2-.55,0,0-1-6.7-1.32-7.81s-7.8-14.5-9.45-15.93-10.77-6.6-14.95-7.8c0,0-1.87-3.74-2.52-5.06s0-4-1.76-3.74A4.23,4.23,0,0,0,287.4,100a2.47,2.47,0,0,1-1.54.87,44,44,0,0,1,.71-5c.22-.65.43-1.3.74-2.55l.1.19.21,1.81a9.57,9.57,0,0,1,.53-1.7,16.68,16.68,0,0,0,.75-2l.2-1c1.86-.67,2.17-3.2,2.58-4.45.5-1.49,1.65-4.12,1.49-6.6-.06-.93-.45-1.22-.91-1.24a7.39,7.39,0,0,0,.26-1.41,11.55,11.55,0,0,1,.32-1.39c.11-.64.21-2.56.21-2.56l.43-1.38V70.36a9,9,0,0,0,.32-1.49,31.81,31.81,0,0,0,.42-4.69,19.14,19.14,0,0,0-1.91-8c-1.17-2-5.54-5.22-5.54-5.22a6.29,6.29,0,0,1,1.6-.22,9.25,9.25,0,0,0-4.69-1.81,3.3,3.3,0,0,1,.29-.27,4.93,4.93,0,0,1,2.8-1c-1-.32-3.09-1.07-4.69-.74a8.65,8.65,0,0,1,2.56-1.5,41.1,41.1,0,0,0-6.61,1l1.17-1.6C278.66,45,277,46,277,46l1.28-2.35a19.53,19.53,0,0,0-4.26,2l1.17-1.81c-1.81.43-4.8,3.31-4.8,3.31l.75-1.82s-.75.75-2,1.82A11.42,11.42,0,0,1,271,43.61c-2,.75-4.37,4.8-4.37,4.8a7.08,7.08,0,0,0-3.2.21c-.42.1,1.81.43,1.92.43a19.89,19.89,0,0,0-4.48.74l2.14.43c-3.1.53-6.51,5.11-7.68,6.93s-1.81,5.22-2.24,6.92a3.29,3.29,0,0,1-1.59,2.24c.53-.11,1.81-.85,1.7.42a12.37,12.37,0,0,0,.43,3.41c.1.54.42,4.59.42,4.9s-.1,2.14-.1,2.14l.53-.86.43.75V79.2l.32-1.17.1.54.11,1s0,.53.43.64l.21.64,0,.07c-1.64,1.83,0,5.08.63,6.72a5.91,5.91,0,0,0,2.8,2.81c.33,5.93,4.28,7.58,4.61,8.9a48,48,0,0,1,.17,6.6s-4.61,5.71-5.49,7.69a22.62,22.62,0,0,0-4.18,3.29c-1.32,1.55-5.06,2-5.28,4.41s-7.2,17.85-6.76,21.81,1.1,18.46.88,22a52.32,52.32,0,0,0,.33,5.64c-2.8.4-6.07.78-6.48.58a13.91,13.91,0,0,0-2.81-1.32c-.49,0-.49-1-2.31-.83a3,3,0,0,0-3.29,0c-1.16-.16.33-2.31-2.15-2.63s-3.13,2.3-3.13,3.62c0,.59-2.3,0-2.47,1s-1.32,8.08,0,8.57,1.48,3.46,3.63,3c2,.33,1.81,0,2.47-.82a2.79,2.79,0,0,0,3,0c1,.49,3.46.49,4.28-.66,1.49-.5,4.29-2,5.77-2.14.7-.08,2.53.09,4.34.08.51,5.22.92,10.27.61,12.11-.66,4-2.42,3.52-2,5.94S245,202,245,203.1s.22,6.38,0,8.35a7.28,7.28,0,0,0,2,5.28,7.45,7.45,0,0,1,1.54,2.86,9.2,9.2,0,0,0-4.62,2.85c-1.76,2.2-5.5,5.06-6.81,7.26s-10.56,9.89-14.51,12.75-6.6,6.59-8.13,7-4.18,1.75-3.3,3.08c0,0-5.28,8.35-7.7,11.43s-1.53,17.8-1.09,22.64,2.85,34.29,3.07,40.66-2,12.1-1.1,12.75,21.11-.44,22-.87a18.21,18.21,0,0,0-4.84,4.61c-1.29,1.86-7.91,3.73-10.11,5.05s-4.18-.22-5.72.22-2.42.45-2.86,2.64,1.76,4.18,5.5,2.2c0,0,8.57,2.41,14.29,1.32s8.57-1.32,12.31-1.1,10.11.88,10.55-2.64-2.2-5.93-2-8.13a21.75,21.75,0,0,0-.22-4.84,32.55,32.55,0,0,0,5.06-1.21c.65-.44-1.87-6.15-2.42-10.66s-2.09-12.52-2-16.48.88-8.35,0-9.45-.88-4-.66-4.73,1-2.31.22-2.75a3.84,3.84,0,0,1-1.65-1.65c-.11-.44-.11-2.09.22-2.3.18-.12,3.9-5.82,7.53-11.3,0,.8,0,1.48,0,2,.32,4.42-1.63,13.56-1.63,13.56l5.73-.12a87.87,87.87,0,0,1-.07-8.81c.1-1.89.44-7.78.78-13.85,1-1.4,1.71-2.4,2-2.71a30,30,0,0,0,4.15.56c-.13,5.63-.77,18.23,0,22.19.87,4.4-1.32,13.63-1.32,13.63l8.79-.43a58.87,58.87,0,0,1-.88-8.8V268.4A35.51,35.51,0,0,0,272,268c.43-.23.65-15.06.65-15.06s3,12.75,4.07,14.62,12.64,20,14.51,23.19,15.61,22.74,20.66,25.93,6.49,7,8.24,9.12,4.62,6.82,5.83,7.59,29.73,26.86,32.14,28.19a18.59,18.59,0,0,1,5.83,5.49,44.57,44.57,0,0,1,3.19,6.82l.65,3.4s5.39-1,7.7-1.21a18,18,0,0,0,8.1-4,2.85,2.85,0,0,0,.25-.32c1-1.54-.77,6-1.65,7.14s-5.93,3.85-6.92,5.28a14.86,14.86,0,0,1-4.84,3.73c-1.1.44-3.07,1.32-2.31,3.3s3.85,1.54,3.85,1.54c-.88,2,3,3.41,5.06,1.87,1.1,2.08,4.83,2.74,5.82.43,1.21,1.76,2.64.88,3.41.77-.11.88,2.64,2.53,4.72-.1.66-.55,3-1.87,4.4-2.86s5.94-5.17,9-6.82S411.48,383.84,411.15,379.66Z"/></g></g></svg>