<svg xmlns="http://www.w3.org/2000/svg" viewBox="0 0 240 240"><defs><style>.cls-1{fill:#e6e6e6;}.cls-2,.cls-3{fill:#ccc;}.cls-3{font-size:19.46px;font-family:KozGoPr6N-Bold, KozGoPr6N Bold-90ms-RKSJ-H;font-weight:700;}.cls-4{fill:none;stroke:#ccc;stroke-miterlimit:10;stroke-width:3px;}</style></defs><g id="Layer_2" data-name="Layer 2"><g id="レイヤー_1" data-name="レイヤー 1"><circle class="cls-1" cx="120" cy="120" r="120"/><path class="cls-2" d="M205,195.11c-.19-2.34.49-4.18-2.15-5.72a5,5,0,0,1-2.83-3.69c-.25-.61.18-.31.18-.31a8.74,8.74,0,0,1,.68-.61,16.49,16.49,0,0,0-1.29-4.43c-.49-.92-.8-2.64-1.42-3.57s-13.61-16.2-15-17.91S177.71,152,177.1,151s-3.14-6.76-5.78-7.62-4.06-.12-5.6-1.54-2.21-.73-2.58-2.33-2.34-8.86-2.83-10.7a12.26,12.26,0,0,0-1.9-3.75c-.19-.25-3-4.86-3.2-5s1.72-.62,2.46-1.36,1.11-1.28.86-1.28-4.24-5.73-5.29-7-5-10.39-6.7-11a5.34,5.34,0,0,1-2.58-2l-.37-4.61s1.66-.37,1-1.23A4.38,4.38,0,0,0,142.91,90c-.3-.06-.4-4.2.16-4.88s1.17-1.9,1.41-2.09a9.78,9.78,0,0,0,.37-2.52s.31-2,.49-2,8.73,2.83,9.66,2.71,2.58,1.84,3.62,1.23,4.68-3.51,5.66-4.37a15.07,15.07,0,0,0,3.14-4.61c.18-.92.67-10.45-.37-12s-1.66-2.89-2.1-3.07,1.84-2.73,1.84-2.73a42.54,42.54,0,0,1,3.38-3.59c1-.74,4-3.65,4.26-3.86a2.13,2.13,0,0,0,.07-2.83c-1.08-1.09-2.64-5.21-3.86-5.41s-1.22.74-1.42.67-1.49-1-2.64-.47-.6.81-.81.81-1.62-.61-2.5.27l-.88.88s-.74-.27-1.42.74a4.11,4.11,0,0,0-.4,3.52,1.73,1.73,0,0,1,.13,1.42s-2.23,2.71-1.69,5.14-.2,2.77-.2,2.77a21.06,21.06,0,0,0-1.42,2.6,8.71,8.71,0,0,1-.55,1.66s-.49-.42-1.54.8c0,0-.3-.73-1.23-.3,0,0-.55-3.75-.73-4.37S149,48,148.05,47.19a39.09,39.09,0,0,0-8.36-4.37L138.27,40c-.37-.73,0-2.21-1-2.09a2.37,2.37,0,0,0-1.48.74,1.34,1.34,0,0,1-.86.49,26,26,0,0,1,.4-2.8c.12-.36.24-.72.41-1.42l.06.1.11,1a6.38,6.38,0,0,1,.3-1,9.58,9.58,0,0,0,.42-1.13l.11-.56c1-.37,1.22-1.79,1.45-2.49A9.86,9.86,0,0,0,139,27.2c0-.52-.25-.69-.51-.7a3.7,3.7,0,0,0,.15-.78,6.69,6.69,0,0,1,.18-.78c.06-.36.12-1.43.12-1.43l.23-.78v-.65a4.86,4.86,0,0,0,.18-.83,17.11,17.11,0,0,0,.24-2.63,10.79,10.79,0,0,0-1.07-4.47,15.62,15.62,0,0,0-3.1-2.92,3.65,3.65,0,0,1,.89-.12,5.15,5.15,0,0,0-2.62-1l.17-.15a2.66,2.66,0,0,1,1.56-.57A5.75,5.75,0,0,0,132.84,9a4.93,4.93,0,0,1,1.43-.83,22.81,22.81,0,0,0-3.7.54l.66-.9c-.3.12-1.26.66-1.26.66l.72-1.31a10.84,10.84,0,0,0-2.39,1.13l.66-1a9,9,0,0,0-2.68,1.85l.42-1s-.42.42-1.14,1a6.41,6.41,0,0,1,1.08-2c-1.14.42-2.45,2.68-2.45,2.68a4,4,0,0,0-1.79.12c-.23.06,1,.24,1.08.24a11.23,11.23,0,0,0-2.51.41l1.2.24c-1.73.3-3.64,2.86-4.3,3.88a14.88,14.88,0,0,0-1.25,3.87,1.83,1.83,0,0,1-.89,1.25c.3-.06,1-.47,1,.24a7.06,7.06,0,0,0,.24,1.91c.06.3.24,2.56.24,2.74s-.06,1.19-.06,1.19l.3-.47.24.41V27l.18-.65.05.3.06.53s0,.3.24.36l.12.36,0,0c-.92,1,0,2.84.35,3.76a3.34,3.34,0,0,0,1.57,1.57c.18,3.32,2.39,4.24,2.58,5A27.42,27.42,0,0,1,122.9,42a37.67,37.67,0,0,0-3.07,4.3,12.72,12.72,0,0,0-2.34,1.85c-.74.86-2.83,1.1-2.95,2.46s-4,10-3.78,12.2.61,10.33.49,12.29a27.79,27.79,0,0,0,.19,3.16,18.5,18.5,0,0,1-3.63.32,7.75,7.75,0,0,0-1.57-.74c-.28,0-.28-.55-1.29-.46a1.68,1.68,0,0,0-1.85,0c-.64-.09.19-1.29-1.2-1.47s-1.75,1.28-1.75,2c0,.33-1.29,0-1.38.55s-.74,4.53,0,4.8.83,1.94,2,1.66c1.1.19,1,0,1.38-.46a1.53,1.53,0,0,0,1.66,0,2.28,2.28,0,0,0,2.4-.37,25.29,25.29,0,0,1,3.22-1.2c.39,0,1.42.06,2.43,0a39.24,39.24,0,0,1,.34,6.78c-.37,2.21-1.35,2-1.1,3.32s1,2.7,1,3.32.12,3.56,0,4.67a4.09,4.09,0,0,0,1.11,2.95,4.11,4.11,0,0,1,.86,1.6,5.16,5.16,0,0,0-2.58,1.6c-1,1.23-3.08,2.82-3.82,4.06s-5.9,5.53-8.11,7.13S95.88,122,95,122.28s-2.34,1-1.85,1.73c0,0-3,4.67-4.3,6.39s-.86,10-.62,12.66,1.6,19.19,1.73,22.75-1.11,6.77-.62,7.13,11.81-.24,12.3-.49A10.43,10.43,0,0,0,99,175c-.72,1-4.42,2.09-5.65,2.83s-2.34-.12-3.2.12-1.35.25-1.6,1.48,1,2.34,3.08,1.23c0,0,4.79,1.35,8,.74a24.69,24.69,0,0,1,6.89-.62c2.08.13,5.65.49,5.9-1.47s-1.23-3.32-1.11-4.55a12.5,12.5,0,0,0-.12-2.71,18.82,18.82,0,0,0,2.83-.67c.36-.25-1-3.45-1.36-6s-1.17-7-1.1-9.22.49-4.67,0-5.29a4,4,0,0,1-.37-2.64c.12-.43.55-1.29.12-1.54a2.11,2.11,0,0,1-.92-.92c-.07-.25-.07-1.17.12-1.29s2.18-3.26,4.21-6.32c0,.44,0,.83,0,1.12a38.84,38.84,0,0,1-.91,7.59l3.2-.07s-.16-2.72,0-4.92c.06-1.06.25-4.36.44-7.75a17.63,17.63,0,0,1,1.12-1.52,17.54,17.54,0,0,0,2.33.31c-.08,3.15-.43,10.2,0,12.42.49,2.46-.74,7.62-.74,7.62l4.92-.24a33.12,33.12,0,0,1-.49-4.92v-15a19.36,19.36,0,0,0,2.64-.26c.25-.12.37-8.42.37-8.42s1.66,7.13,2.28,8.18,7.07,11.19,8.11,13,8.73,12.72,11.56,14.51,3.63,3.93,4.61,5.1,2.58,3.81,3.26,4.25,16.63,15,18,15.76A10.3,10.3,0,0,1,178.6,188a24.37,24.37,0,0,1,1.78,3.81l.37,1.9s3-.55,4.31-.67a10.15,10.15,0,0,0,4.53-2.22,1,1,0,0,0,.14-.18c.55-.86-.43,3.38-.92,4s-3.32,2.16-3.87,3a8.57,8.57,0,0,1-2.71,2.09c-.62.24-1.72.73-1.29,1.84s2.15.86,2.15.86c-.49,1.11,1.66,1.91,2.83,1.05.61,1.16,2.7,1.53,3.26.24.67,1,1.47.49,1.9.43-.06.49,1.48,1.42,2.65-.06.36-.3,1.66-1,2.46-1.6a49.48,49.48,0,0,1,5-3.81C203,197.75,205.22,197.44,205,195.11Z"/><text class="cls-3" transform="translate(21.74 110.67)">NoPhoto</text><path class="cls-4" d="M180,212.23A110,110,0,1,1,110,10.45"/><path class="cls-4" d="M151,14.41a110,110,0,0,1,57.69,170.74"/></g></g></svg>