<svg xmlns="http://www.w3.org/2000/svg" viewBox="0 0 428.65 499.92"><g id="Layer_2" data-name="Layer 2"><g id="レイヤー_1" data-name="レイヤー 1"><path d="M358.53,132.7c.4,17.41,12.61,32,12.61,32l3.63-19.95c2.91,4.7,6.38,10.46,7.78,13.42,2.6,5.48.8,18.14-.8,20.94-1,1.69-2,1.34-3.29.14-.85-.79-1.8-1.95-2.91-3.14-2.81-3-14.62-22-17-29a20.3,20.3,0,0,1-1-5.94A27.48,27.48,0,0,1,358.53,132.7Z" fill="#a2a2a2"/><path d="M386.22,88.13c.27,2.8-1.2,1.46-5.6,0s-3.47.74-8.54,1.64-3.07.43-8.41,0a30.9,30.9,0,0,0-4.77,0c0-.66,0-1.35,0-2.06.2-3.8,6.61-4.2,6.61-4.2.4-3.81,7.6-2.41,10.41-1.61s6.8,2.81,11.41,3.41a5.42,5.42,0,0,1,2.31.88C387.81,86.28,386.09,86.75,386.22,88.13Z" fill="#d2d2d3"/><path d="M357.49,141.17c-5.53,6.71-15.91,19.12-20.78,23.56-6.8,6.2-11.81,17.81-11.81,18.21s-.8-15.41,0-20.62,2.6-9.4,5.41-19.61a39.61,39.61,0,0,0,1.09-5.14,21.26,21.26,0,0,1,3.51,2.13c3.8,3,10.21,8.81,10.21,8.81s4.6-6.6,6.6-9.61,6.81-6.2,6.81-6.2A27.48,27.48,0,0,0,357.49,141.17Z" fill="#f0f2f2"/><path d="M214.33,112.68c-3.89,1-3.13-4.6-5.13-9.11-1-2.32-2-4.28-2.71-5.65.5-1.4,1-2.89,1.49-4.33l5.42,9.2c2.21,3.71,2.41-6.72,3.41-12.13s2.8-11.21,1.4-12.41-5.41-7.61-5.41-7.61c-1.4-3-4.4-12.61,0-16.21s9.41,2.6,9.41,2.6a9.34,9.34,0,0,1,5.81,2.6c2.8,2.61,3.6,9,5.4,10s1.4-4.6,3.2-8c1.48-2.8,3.27-5.08,6.83-8.57,2.31.76,5.1,1.7,7.39,2.56,4.8,1.8,4.6,1,9.38,10.21s.22,7.21,0,13.41.22,3.4,2.23,2.14,6.6-7.94,9-8.14c1.73-.15,3.76,5.68,4.77,9.29-1.22,2.94-4.17,4.54-4.77,6.92s-3.2,4-4.6,6.21a4.68,4.68,0,0,0-.27.46c-2.31-1.31-6.25-3.2-8.94-2.67-4,.81-8,3.41-4,6.81,2.86,2.44,7.16,2.82,10.11,2.32-.43,1.1-.71,1.88-.71,1.88a36.45,36.45,0,0,1-.8,3.87,25.55,25.55,0,0,1-1.61,4.54c-.24.52-.59,1.25-1,2.12a9.64,9.64,0,0,1-4.4,1.28,15.86,15.86,0,0,1-4-.26c-3.43-4.55-9.54-12.65-12.27-16.15-3.9-5,.7-5.2,3.3-6.41s11.21-7.8,11.41-8.6-2.2.2-11-2.41-9.61,0-11,3-7.41,6-7.41,6,.8,8.41,2,16.22-.6,12.21,0,14c.34,1,3.34,2,6,2.6h0c.2,1.2,3.6,3.81,7,4.81,2.23.65,7.72,2.16,11.24,3.13a50.6,50.6,0,0,1-3.64,5.27c-5.2,6.41-26.42,34.63-26.42,34.63s-1.8-16.61-4-27.22c-1.22-5.85-3.46-15.45-5.6-23.81,2.43.49,5.46,1.58,7,4,2.8,4.41,3.2-1.2,3-7.81S218.21,111.68,214.33,112.68Z" fill="#949595"/><path d="M253.65,100.27c-4-3.4,0-6,4-6.81,2.69-.53,6.63,1.36,8.94,2.67a61.21,61.21,0,0,0-2.82,6.46C260.81,103.09,256.51,102.71,253.65,100.27Z" fill="#212020"/><path d="M362.73,118.49c.4-3-2.2-6.81-2.8-10.61s3-10.81,3-10.81c-3.25-1.95-4-4.44-4-7.35a30.9,30.9,0,0,1,4.77,0c5.34.43,3.33.89,8.41,0s4.13-3.11,8.54-1.64,5.87,2.8,5.6,0c-.13-1.38,1.59-1.85,3.45-2,3.08,2,4.45,6.77,2.49,8.72-2.4,2.41-6.81,13.42-8.81,19.62s-7.8,26-7.8,26l-.78,4.27-3.63,19.95s-12.21-14.62-12.61-32C358.53,132.7,362.33,121.49,362.73,118.49Z" fill="#8d8d8d"/><path d="M268.45,212.24c-6.34-2.67-12.34,0-19.55,2.13s-48.84,5.6-48.84,5.6-.27-1.86,2.13-13.61c0,0,0,0,0-.06,11.78-.35,36.41-.9,44.82.21,11.21,1.47,33.1,1.72,37.1,3.06s14.95-7.48,15.75-8.41,11.48,4.13,17.62,6c4.62,1.41,13.32,3.42,17.34,4.33-.08,2.87-4.53,2.88-4.53,2.88a6.55,6.55,0,0,1-1,4.14c-4.65-.43-8.4-.94-8.4-.94,1.2,2.2-1.8,2.61-6.41,2.81s-8-.8-12-2-11.81,0-11.81,0C285.79,218.85,274.79,214.9,268.45,212.24Z" fill="#7c7c7c"/><path d="M374.61,185.54a28.57,28.57,0,0,0,3.85-6.26c1.29,1.2,2.33,1.55,3.29-.14,1.6-2.8,3.4-15.46.8-20.94-1.4-3-4.87-8.72-7.78-13.42l.78-4.27c5.4,4.6,11,26.82,11.81,31s-2.61,10.41-8.21,15.22-6.61,11.41-11,17.81-18,13.81-25.22,14.41c-.16,0-.33,0-.49,0,5.17-4.4,12.15-10.19,18.3-14.77C372.21,195.69,370.61,190.62,374.61,185.54Z" fill="#cccdcd"/><path d="M195.79,183.14c-3.74-1.33-9.08-2.85-9.08-2.85s14.42-.08,18.69,1.25a25.75,25.75,0,0,1,7.56,4,45.59,45.59,0,0,0-3.38,4.36C205.35,187.67,198.33,184.05,195.79,183.14Z" fill="#fff"/><path d="M209.58,189.9a45.59,45.59,0,0,1,3.38-4.36c5.17,1.51,13.16,2.36,21.54,2.82,3.22.17,6.48.29,9.67.36,6.26.15,12.23.12,16.88,0,13.21-.27,15.08-6.14,18.28-10.14a6.17,6.17,0,0,1,4.18-2.24,15.06,15.06,0,0,1,3.56,0,43.48,43.48,0,0,1,4.78.79c1.37.29,2.84.63,4.39,1l2,.47c9.34,2.13,8.27,10.4,8.27,10.4s17.88,9.35,21.35,12.15a8.77,8.77,0,0,1,3.48,6.27,4.24,4.24,0,0,1,3.46,3.74c0,.11,0,.21,0,.32-4-.91-12.72-2.92-17.34-4.33-6.14-1.87-16.82-6.94-17.62-6s-11.74,9.74-15.75,8.41S258.24,208,247,206.51c-8.41-1.11-33-.56-44.82-.21A46.15,46.15,0,0,1,209.58,189.9Z" fill="#a4a5a5"/><path d="M249.7,173.53c4.27-5.33,18.75-32.82,18.75-32.82s-8.87,24.55-14.8,36a45.17,45.17,0,0,1-9.48,12c-3.19-.07-6.45-.19-9.67-.36C239.15,184.19,246.81,177.15,249.7,173.53Z" fill="#abacac"/><path d="M290.81,164.73c-.54-6.94,1.33-21.09,1.33-21.09s1.6,19.22,2.33,27.49a18.12,18.12,0,0,0,1.77,7c-1.55-.36-3-.7-4.39-1C291.57,174,291.14,169,290.81,164.73Z" fill="#8a8b8b"/><path d="M307.08,134.7c-5.4,5.81-4.2,16.81-5.4,22.62s-.6-18.82,2.4-27.87-7.4-6.36-12.41-9-10.21-1-12.41,4.6-4.8,6-5.8,0-5.61-11.41-8.81-13.83a8.6,8.6,0,0,1-2.4-2.92,36.45,36.45,0,0,0,.8-3.87c14.81,3.21,52.24,19.82,54.65,22.42a36.92,36.92,0,0,1,4.6,7S312.49,128.89,307.08,134.7Z" fill="#f0f2f2"/><path d="M146.58,233.59c7.3-4.27,24.12-18.15,20.12-10.41a53.5,53.5,0,0,0-5.08,13.88l11.75-15.88s-3.47,12.14-5.87,15.34S158.59,245.24,159,250s2.32,10.32,4.45,12.18c1.36,1.19,9.73,7.45,15.65,11.85a51,51,0,0,1-8.44-1.7c-8.81-2.94-17.95-9.48-17.95-9.48-3-1.6-5.2-7.6-6.81-10s-4.2-1.4-4.8-4a56.54,56.54,0,0,1-.85-7.8A16.12,16.12,0,0,1,146.58,233.59Z" fill="#eff0f0"/><path d="M149.35,221.18a9.23,9.23,0,0,1-3.41-2.81c-1.2-1.8-1.4-12-1.4-12a47.37,47.37,0,0,1,4,5.61C149.88,214.37,151.08,220.14,149.35,221.18Z" fill="#eee"/><path d="M242,110.28s-1,7-4.21,7.21-9.6,1-8,2,2.2,3.6,2.4,4.8c-2.67-.64-5.67-1.59-6-2.6-.6-1.8,1.21-6.21,0-14s-2-16.22-2-16.22,6-3,7.41-6,2.2-5.61,11-3,11.21,1.61,11,2.41-8.81,7.4-11.41,8.6-7.2,1.4-3.3,6.41c2.73,3.5,8.84,11.6,12.27,16.15a9.15,9.15,0,0,1-3.57-1.54C246.43,113.68,242,110.28,242,110.28Z" fill="#767676"/><path d="M153,143.64s-6.41,2.27-10,3.47-6.67,4.54-5.2,4.94,12.68-1.6,12.14,0S138,155.39,137.2,157s-.53,9.07.54,11.21,3.07,9.74,5.07,10.27-7.74-12.94-1.2-10.27,2.8,13.07,10.27,22.68,4.54,13.08,6.68,16.42-3.34,3.2-5.88-2.67-13.74-23.76-14.54-18c-.43,3.08.18,8.37.83,12.63-2.66-4.86-8.05-22.62-8.64-28.31-.49-4.74-.31-21.48,1-31.39a16.47,16.47,0,0,0,3.9,1.7C140.14,142.84,153,143.64,153,143.64Z" fill="#f4f4f5"/><path d="M109.58,335.81S87.69,329.4,79.15,327s-13.61-3.47-13.61-3.47a227.12,227.12,0,0,1,20,12.28c7.74,5.6,16.81,14.68,18.68,16.28,1.48,1.27,2.15,2.37,4.36,3.31l-.09,0c-5.6-1.68-20.82-8.35-33.09-11s-22.69-13.74-22.69-13.74-8.07,5.67-11.28,7.47-1-5.21-1-9a7.77,7.77,0,0,1,1.16-4.1,2.56,2.56,0,0,1,1.84-.29,2.56,2.56,0,0,0-1.84.29c1.17-2,3.23-3.81,6.25-6.11,5-3.8,19-7.87,19-7.87S82.36,318.19,88,321.4,109.58,335.81,109.58,335.81Z" fill="#c7c7c8"/><path d="M64.21,344.35c5.6,3.47,13.61,7.24,19.61,11.5s6.28,8,7.88,9.85,7.38,3.17,7.38,3.17a4.58,4.58,0,0,1-3.38,1.77c-2.54.35-9.87,2.13-12.81,2.4s-5.21,3.74-6.14,7.61,0,4.8-1.47,2.67S72,374.24,69,364.5s-10-17.88-11.87-21.73a24.69,24.69,0,0,1-2.09-8.49h0C57.27,337.59,60.79,342.23,64.21,344.35Z" fill="#d5d6d7"/><path d="M134.67,133.1c.08-.69.33-2.48.61-4.56,5.19-7.63,15.47-17.5,22.07-19.86,8.41-3,39.44-9,39.44-9a56.71,56.71,0,0,1,3.6-8.21c2.2-4,10.21-6,10.21-6s-.35,1.13-.9,2.85c-3.65,1.26-5.91,4.84-5.91,7A20.41,20.41,0,0,0,205,102c.36,1.13.82,2.39,1.43,3.89.7,1.73,1.77,5.3,2.95,9.68-1.65-1.86-4.53-5.13-6.09-7.15-2.27-2.94-4.54-9.12-6-5.62s-4.94,8.16-3.61,9.76,4.27,5.74,1.6,5.6-4.27-.26-6.54-1.73-1.86-2.27,0-3.87,3.74-9,3.74-9-10.41,2.57-8.27,3.64,4,4.1,2,4.05-6.27-.88-6.67,0,1.73,3.16.53,3.56-2.4-3.47-4.27-4.54S170,109,171,110s4,3.93,5.33,7,4.54,4.54,4.94,8.14.54,5.47-3.33.94A87.86,87.86,0,0,0,168,116c-3.2-2.81-9.74-6.81-8-3.74s6.54,9.41,6.54,9.41-6.8-5.54-9.34-7-2.8.8-1.2,2.54,5.74,4.67,3.2,5.74-5.07-.14-8.4-.14-7.48,1.34-6.28,2.27,2,4.21,1.34,4.91-.8.3-4.41,1-4.13,1.87-4.93,2.14S134.4,135.23,134.67,133.1Z" fill="#e1e1e1"/><path d="M209.7,88.31c.55-1.72.9-2.85.9-2.85a16.78,16.78,0,0,0,.49-5.42c1-2.35,2.75-7.17,1.71-9.4,0,0,4,6.41,5.41,7.61s-.4,7-1.4,12.41-1.2,15.84-3.41,12.13L208,93.59C208.64,91.63,209.24,89.77,209.7,88.31Z" fill="#c3c4c4"/><path d="M237.82,117.49c3.21-.21,4.21-7.21,4.21-7.21s4.4,3.4,5.6,4.2A9.15,9.15,0,0,0,251.2,116a15.86,15.86,0,0,0,4,.26,9.64,9.64,0,0,0,4.4-1.28c-1.95,4.07-5.58,11.43-9.17,17.23-3.52-1-9-2.48-11.24-3.13-3.41-1-6.81-3.61-7-4.81h0c-.2-1.2-.8-3.8-2.4-4.8S234.62,117.69,237.82,117.49Z" fill="#111010"/><path d="M271.45,73.25c-2.4.2-7,6.87-9,8.14s-2.45,4.07-2.23-2.14,4.79-4.2,0-13.41-4.58-8.41-9.38-10.21c-2.29-.86-5.08-1.8-7.39-2.56.77-.75,1.6-1.55,2.56-2.44,5.37-5,13-7.61,13-7.61-2.8,3-4.2,10-4.2,10,2.2-4.81,10.61-11.41,10.61-11.41-1,1.6-1.6,7.61-1.6,7.61,1.4-3.61,6.6-7.61,6.6-7.61-.2,2,0,7.61,0,7.61C274.06,45,280.88,44,280.88,44s-.22,8.81,0,11.41-1,8-1.4,10.41-2,13.61-3.2,16.61l0,.09C275.21,78.93,273.18,73.1,271.45,73.25Z" fill="#868686"/><path d="M270.45,49.23s-.2-5.61,0-7.61c0,0-5.2,4-6.6,7.61,0,0,.6-6,1.6-7.61,0,0-8.41,6.6-10.61,11.41,0,0,1.4-7,4.2-10,0,0-7.66,2.6-13,7.61-1,.89-1.79,1.69-2.56,2.44-2.56-.83-4.52-1.44-4.52-1.44s2,.61,4.52,1.44c-3.56,3.49-5.35,5.77-6.83,8.57-1.8,3.4-1.4,9-3.2,8s-2.6-7.4-5.4-10a9.34,9.34,0,0,0-5.81-2.6s-5-6.2-9.41-2.6-1.4,13.21,0,16.21l-2.2-.4,2.2.4c1,2.23-.73,7-1.71,9.4-.3-4.81-2.32-9.29-3.49-12.8-1.6-4.8-1.2-6.8-1.8-15S206.2,30,208.4,23s9.81-13.41,19.42-14.41,10,3,10,3c2.41-.4,2.61-3.8,1.41-5.2s-7.61,0-7.61,0S234.82,2.18,241,4s3.8,10.4,3.8,10.4c7.61-8.8-5-14-5-14,7.8-1.8,14.61,3.21,17.21,5.81s2,6.2,8.81,8.41,12,9,15.81,12.61,2.21,5.6,2.21,5.6c3,.8,3.7,5.81,3.7,5.81-1.49-1.21-3.3-2.41-3.3-2.41s4,5,3.2,8.21-5,4.81-5,4.81,2-3,2.21-5.21-3.79,0-3.79,0S274.06,45,270.45,49.23Z" fill="#0c0c0c"/><path d="M206.49,97.92c.71,1.37,1.68,3.33,2.71,5.65,2,4.51,1.24,10.11,5.13,9.11s6.28-2,6.48,4.6-.2,12.22-3,7.81c-1.54-2.41-4.57-3.5-7-4-.5-1.94-1-3.81-1.46-5.54-1.18-4.38-2.25-8-2.95-9.68-.61-1.5-1.07-2.76-1.43-3.89C205.43,100.84,206,99.43,206.49,97.92Z" fill="#747373"/><path d="M209.7,88.31c-.46,1.46-1.06,3.32-1.72,5.28-.48,1.44-1,2.93-1.49,4.33s-1.06,2.92-1.52,4.07a20.41,20.41,0,0,1-1.18-6.72C203.79,93.15,206.05,89.57,209.7,88.31Z" fill="#4f4c4c"/><path d="M283.51,176.37c.08-4.14-.14-10.26-2.05-11.64-2.93-2.14-5.6-6.71-5.6-6.71s4.27.57,6.67-2.87,2.94-9.37,2.94-9.37,1.6,10.94,1.6,16.19v14.39A15.06,15.06,0,0,0,283.51,176.37Z" fill="#676767"/><path d="M156.07,341.32c2.79-15.66,5.72-33.42,5.29-37-.8-6.68,3.73-18.42,3.73-18.42s6.41,12,10.15,13.08,14.94,2.13,18.41,1.6a30.41,30.41,0,0,0,7.47-2.73,14.92,14.92,0,0,0,.87,5.4c2,6,4.21,6.2,0,9s-5.4,7.4-8,8.2-3.54-1.53-8.88-2.87-16.55-3.87-12.94,0,11.1,9.48,15.76,14.68,16.45,11,16.46,12.41c0,1,2,12.88,3,18.92l-13.81-4.9s-12-4.74-20.22-8.21A166.67,166.67,0,0,1,156.07,341.32Z" fill="#eee"/><path d="M173.37,350.49c8.27,3.47,20.22,8.21,20.22,8.21-11.21,6.8-42.24,8-42.24,8s2.31-11.91,4.72-25.38A166.67,166.67,0,0,0,173.37,350.49Z" fill="#b6b6b6"/><path d="M103.44,363.3c2.94-.27,15.75.53,17.35-1.6s-6.14-4.54-10.14-5.61a15.22,15.22,0,0,1-2.05-.69c5.52,1.62,6.32-1.71,6.32-1.71s-.8,3.33-6.32,1.71c-2.21-.94-2.88-2-4.36-3.31-1.87-1.6-10.94-10.68-18.68-16.28a227.12,227.12,0,0,0-20-12.28s5.07,1.07,13.61,3.47,30.43,8.81,30.43,8.81S93.57,324.6,88,321.4,66.87,311,66.87,311l10.19,2.47L66.87,311s12,1.6,23,4.13,33.89,10.28,33.89,10.28-17.08-11.48-23-15.21-14.41-12.55-14.41-12.55,29.63,16,33.89,19.95c3,2.81,14.81,9.9,21.33,13.76q-.24,1.83-.51,3.66a331.81,331.81,0,0,1-6.94,34.3c-23.22,4-32.62-3.81-32.62-3.81S100.5,363.57,103.44,363.3Z" fill="#b9b9b9"/><path d="M132.73,384.72c.8-2.6,1.4-15.41,1.4-15.41a331.81,331.81,0,0,0,6.94-34.3q.27-1.83.51-3.66c2.32-17.25,3.58-34.45,8.57-41.18a65.62,65.62,0,0,1,11.21-11.74l-10-9L152,266l.8-3.21s9.14,6.54,17.95,9.48a51,51,0,0,0,8.44,1.7c13.09,1.8,35.59,2.6,54.81,1.77,24.56-1.07,47.91-10.75,47.91-10.75l-.2,5a4.52,4.52,0,0,1-.39,1.76c-.95,2.38-4.14,6.64-14.89,9.58-15.61,4.27-52,10.95-52,10.95a33.57,33.57,0,0,1,8.42,15.74h0c1.82,9.1,8.3,28.43,11.42,46.75.08.49.17,1,.25,1.48,0,0,2.4,36,2.6,40s-2.8,3.2-5.8,2.2-1.8-4.2-3-7.41-3.61-21.41-3.61-21.41-4-25.63-6.53-35-6-28.82-8.15-32.83-1.33-8-4.27-6.4c-1.18.64-2.81,1.5-4.54,2.34a30.41,30.41,0,0,1-7.47,2.73c-3.47.53-14.68-.53-18.41-1.6s-10.15-13.08-10.15-13.08-4.53,11.74-3.73,18.42c.43,3.58-2.5,21.34-5.29,37-2.41,13.47-4.72,25.38-4.72,25.38-1.4,8-5.41,27.83-5.41,27.83s-9.8-1.4-12.21-2.81S131.93,387.32,132.73,384.72Z" fill="#161616"/><path d="M338.31,364.5c7.21-2.4,10.61-8.81,16-14.41A124.65,124.65,0,0,0,363,339.64l3.78-1.16c4.6-1.4,11.61-8,10-1.6s-10.21,17-16.22,26.42-8.41,17.21-12.81,25.62-6.4,11.61-4,15.62,5.4,9.6,11.41,13,12,3.8,19.81,3,3.61-1.4,17,2.4c3.88,1.1,7.32,2.29,10.25,3.42-7.41,2.86-14.45,5.39-14.45,5.39s-9,10.41-29.23,8.61a7.88,7.88,0,0,1-2.2-2.61c-.8-1.6-6.41-15.81-10.21-19.81s-3.6-10.81-3.6-10.81c-5.61-1-14.82-8-15.62-12s3.21-20.62,3.21-20.62L313.66,374c3-2.49,6.11-5,7.44-5.93C323.9,366.1,331.11,366.9,338.31,364.5Z" fill="#d2d2d3"/><path d="M204.39,344.68c0,1,2,12.88,3,18.92l17.21,6.11s-4-25.63-6.53-35-6-28.82-8.15-32.83-1.33-8-4.27-6.4c-1.18.64-2.81,1.5-4.54,2.34a14.92,14.92,0,0,0,.87,5.4c2,6,4.21,6.2,0,9s-5.4,7.4-8,8.2-3.54-1.53-8.88-2.87-16.55-3.87-12.94,0,11.1,9.48,15.76,14.68S204.38,343.28,204.39,344.68Zm-.6-19.41c-1.8,1.8,1,4,0,7.2s-5.2,4.42-7.2,1.81-3.4-1.61,0-6,6.41-9.81,8.81-9.81C206.81,318.46,205.6,323.47,203.79,325.27Z" fill="#d1d1d2"/><path d="M259.24,356.29s2.81-16.94,3.81-21.28c.48-2.11.82-3.46,1.05-4.31a90.21,90.21,0,0,1,10.56-4.43c4.2-1.2,28.42-15.88,22.62-11.15s-26.43,20.58-26.43,20.58,12-2.76,19.22-5.09,22-5,25.42-6.67,26.23-9.75,26.23-9.75a31.45,31.45,0,0,1-13,8.68c-8.2,2.8-49.24,15-43.63,15.61s10.41,1,18.81-1.8,51.65-15.42,51.65-15.42-14.21,8.41-18.82,10.61,14.41-1.8,8.61.8-12,6.21-18.62,9.61-16,8.41-18.71,10.81,9.71,2.8,16.71,0,29-5.92,30.83-8.81a23.83,23.83,0,0,1,2.46-3.1l5-1.54a124.65,124.65,0,0,1-8.63,10.45c-5.41,5.6-8.81,12-16,14.41s-14.41,1.6-17.21,3.6c-1.33.95-4.42,3.44-7.44,5.93-5.73-.17-11.85-.36-16.38-.52-11.41-.4-31.23-4.8-40.24-7.61s-22.62-9.61-22.62-9.61c-.08-.49-.17-1-.25-1.48Z" fill="#c2c3c3"/><path d="M12,379.91c5.4-8.8,10-34.83,12-41.23s7.2-16.42,17.61-21.82S78.89,296,86.29,292.44s37-18.22,47.44-23.22S152,266,152,266l-.6,3.43,10,9a65.62,65.62,0,0,0-11.21,11.74c-5,6.73-6.25,23.93-8.57,41.18-6.52-3.86-18.28-11-21.33-13.76-4.26-3.93-33.89-19.95-33.89-19.95s8.54,8.81,14.41,12.55,23,15.21,23,15.21-23-7.74-33.89-10.28-23-4.13-23-4.13-14,4.07-19,7.87c-3,2.3-5.08,4.16-6.25,6.11a20.52,20.52,0,0,0-8.16,6.7c-2.81,4.21-4.41,6.81-5.21,10.81s-5.2,6.81,0,6.21,5.71-1.8,6.36,2,2,25,4,31.43,4.6,13.81,9,20.81,16.61,15,13.41,15.62-5.2-4.41-12.61-7-15.61-4.8-17.62-6.2-4.8-7.21-5.1-4.21.3,5.61,4.9,8.21,15,7.61,15,7.61a123,123,0,0,1-20-4.41c-10-3.2-20-3.6-13.44-.4,4.54,2.21,1.32,7.72-2.11,10.95-5.07-1.91-9.75-6-10.1-7.54C-.38,413.74,6.62,388.72,12,379.91Z" fill="#e1e0e1"/><path d="M12.23,412.14c-6.61-3.2,3.4-2.8,13.44.4a123,123,0,0,0,20,4.41s-10.41-5-15-7.61-5.2-5.2-4.9-8.21,3.1,2.81,5.1,4.21,10.21,3.6,17.62,6.2,9.41,7.61,12.61,7-9-8.61-13.41-15.62-7-14.41-9-20.81-3.4-27.63-4-31.43-1.15-2.6-6.36-2-.8-2.2,0-6.21,2.4-6.6,5.21-10.81a20.52,20.52,0,0,1,8.16-6.7,7.77,7.77,0,0,0-1.16,4.1c0,3.8-2.2,10.81,1,9s11.28-7.47,11.28-7.47.9,1.56,2.32,3.67h0a24.69,24.69,0,0,0,2.09,8.49c1.88,3.85,8.93,12,11.87,21.73s4.8,16.68,6.27,18.82.54,1.2,1.47-2.67,3.2-7.34,6.14-7.61,10.27-2.05,12.81-2.4a4.58,4.58,0,0,0,3.38-1.77h0a31.19,31.19,0,0,0-2.58,5c-2,5-5.8,20.62-9.81,30.23s-9.41,25.22-9.41,25.22,0,1.6.13,4.18a41.25,41.25,0,0,1-7.93,2.82c-7.41,1.81-14.24-.72-19.42-2.8,0,0-9.41-4.2-15.41-4.8s-16.62-3.61-22.42-5a16.57,16.57,0,0,1-2.11-.66C13.55,419.86,16.77,414.35,12.23,412.14Z" fill="#bcbdbd"/><path d="M91.7,365.7c-1.6-1.87-1.87-5.6-7.88-9.85s-14-8-19.61-11.5c-3.42-2.12-6.94-6.76-9.16-10.07l2.71,2.42-2.71-2.42c-1.42-2.11-2.32-3.67-2.32-3.67l2.32,3.16-2.32-3.16s10.41,11.07,22.69,13.74,27.49,9.34,33.09,11l.09,0a15.22,15.22,0,0,0,2.05.69c4,1.07,11.74,3.47,10.14,5.61s-14.41,1.33-17.35,1.6-1.93,2.2-1.93,2.2a27.57,27.57,0,0,0-2.43,3.38h0S93.3,367.57,91.7,365.7Z" fill="#f1f3f3"/><path d="M64.27,472.8c-1.4,2.6-12.81,11.81-15.81,14.41a68.19,68.19,0,0,1-8.16,5.08l-.85.12C29.24,494,25,490.81,25,490.81c-3.8,0-4.4-3.8-4.4-3.8-2-1.6,1.2-4.6,7.8-6.21s14.21-8.2,20-13.41A16.66,16.66,0,0,0,51.4,464C56.67,466.53,65.25,471,64.27,472.8Z" fill="#9a9b9b"/><polygon points="99.08 368.88 99.08 368.88 99.08 368.87 99.08 368.88" fill="none" stroke="#009fe8" stroke-miterlimit="10" stroke-width="0.08"/><path d="M69.48,436.36a41.25,41.25,0,0,0,7.93-2.82c.31,9.28,1.24,31.24,3.28,37.65,2.6,8.21,3,13,1.4,16.82s-12,1.2-16.82,2-15,.81-25,2.28a68.19,68.19,0,0,0,8.16-5.08c3-2.6,14.41-11.81,15.81-14.41,1-1.82-7.6-6.27-12.87-8.79,2.56-4,2.15-7.9,2.46-12.43.4-5.81-3.8-18-3.8-18C55.24,435.64,62.07,438.17,69.48,436.36Z" fill="#514e4f"/><path d="M387.76,431.76s-3.61,13.61-4.61,21.82,1.8,11.21,5,17.21c1.83,3.45,8.35,7.88,14.82,11.83a45.27,45.27,0,0,0-4.61,2c-4.24,2.21-13.22.8-18.42,0s-11.61-4-12.61-9.21c-.53-2.73-4.83-6.54-8.82-9.56,0,0,0,0,0,0,.8-4.8,0-25.42,0-25.42C378.75,442.17,387.76,431.76,387.76,431.76Z" fill="#5e5e5e"/><path d="M222.75,308.06c1.82,9.1,8.3,28.43,11.42,46.75l25.07,1.48s2.81-16.94,3.81-21.28c.48-2.11.82-3.46,1.05-4.31s.35-1.23.35-1.23,30.22-19,28-19.82-6.54,0-8.87,0-.74-9-2.94-7.2-11.61,13.61-11.61,13.61,2.2-15.82,2.4-19.82,4.41-6.2-3.2-3.4-11.41,2-17.41,5.2-8,4.61-9,3-2.4-3.61-6.61-2C231.91,300.31,225.37,305.79,222.75,308.06ZM249,302.29a56,56,0,0,1,14.5-4.4s-6.25,3.06-9.31,4.4-9.54,6.24-11.13,6.24S242.65,305.47,249,302.29Z" fill="#f5f5f5"/><path d="M135.2,141.24c4.94,1.6,17.75,2.4,17.75,2.4s-6.41,2.27-10,3.47-6.67,4.54-5.2,4.94,12.68-1.6,12.14,0S138,155.39,137.2,157s-.53,9.07.54,11.21,3.07,9.74,5.07,10.27-7.74-12.94-1.2-10.27,2.8,13.07,10.27,22.68,4.54,13.08,6.68,16.42-3.34,3.2-5.88-2.67-13.74-23.76-14.54-18c-.43,3.08.18,8.37.83,12.63.06.1.12.23.17.32a29.22,29.22,0,0,0,5.4,6.8,47.37,47.37,0,0,1,4,5.61c1.33,2.4,2.53,8.17.8,9.21,0,0-7.41,3.8-8.61,9.2a44,44,0,0,0-.45,10.62,16.12,16.12,0,0,1,6.29-7.41c7.3-4.27,24.12-18.15,20.12-10.41a53.5,53.5,0,0,0-5.08,13.88l11.75-15.88s-3.47,12.14-5.87,15.34S158.59,245.24,159,250s2.32,10.32,4.45,12.18c1.36,1.19,9.73,7.45,15.65,11.85,13.09,1.8,35.59,2.6,54.81,1.77,24.56-1.07,47.91-10.75,47.91-10.75s8.21-4,12.81-6.4,2.61-13.41-3.8-17.42c0,0,1.4-16-.2-22.82-4.88.48-15.88-3.47-22.22-6.13s-12.34,0-19.55,2.13-48.84,5.6-48.84,5.6-.27-1.86,2.13-13.61c0,0,0,0,0-.06a46.15,46.15,0,0,1,7.37-16.4c-4.23-2.23-11.25-5.85-13.79-6.76-3.74-1.33-9.08-2.85-9.08-2.85s14.42-.08,18.69,1.25a25.75,25.75,0,0,1,7.56,4c5.17,1.51,13.16,2.36,21.54,2.82,4.65-4.17,12.31-11.21,15.2-14.83,4.27-5.33,18.75-32.82,18.75-32.82s-8.87,24.55-14.8,36a45.17,45.17,0,0,1-9.48,12c6.26.15,12.23.12,16.88,0,13.21-.27,15.08-6.14,18.28-10.14a6.17,6.17,0,0,1,4.18-2.24c.08-4.14-.14-10.26-2.05-11.64-2.93-2.14-5.6-6.71-5.6-6.71s4.27.57,6.67-2.87,2.94-9.37,2.94-9.37,1.6,10.94,1.6,16.19v14.39a43.48,43.48,0,0,1,4.78.79c-.28-3.14-.71-8.11-1-12.42-.54-6.94,1.33-21.09,1.33-21.09s1.6,19.22,2.33,27.49a18.12,18.12,0,0,0,1.77,7l2,.47c9.34,2.13,8.27,10.4,8.27,10.4s17.88,9.35,21.35,12.15a8.77,8.77,0,0,1,3.48,6.27,4.24,4.24,0,0,1,3.46,3.74c0,.11,0,.21,0,.32-.08,2.87-4.53,2.88-4.53,2.88a6.55,6.55,0,0,1-1,4.14,94.39,94.39,0,0,0,13.13.49c5.17-4.4,12.15-10.19,18.3-14.77,11.48-8.54,9.88-13.61,13.88-18.69a28.57,28.57,0,0,0,3.85-6.26c-.85-.79-1.8-1.95-2.91-3.14-2.81-3-14.62-22-17-29a20.3,20.3,0,0,1-1-5.94c-5.53,6.71-15.91,19.12-20.78,23.56-6.8,6.2-11.81,17.81-11.81,18.21s-.8-15.41,0-20.62,2.6-9.4,5.41-19.61a39.61,39.61,0,0,0,1.09-5.14,72.35,72.35,0,0,0-9.1-3.67s-9.81-5-15.22.8-4.2,16.81-5.4,22.62-.6-18.82,2.4-27.87-7.4-6.36-12.41-9-10.21-1-12.41,4.6-4.8,6-5.8,0-5.61-11.41-8.81-13.83a8.6,8.6,0,0,1-2.4-2.92,25.55,25.55,0,0,1-1.61,4.54c-.24.52-.59,1.25-1,2.12-1.95,4.07-5.58,11.43-9.17,17.23a50.6,50.6,0,0,1-3.64,5.27c-5.2,6.41-26.42,34.63-26.42,34.63s-1.8-16.61-4-27.22c-1.22-5.85-3.46-15.45-5.6-23.81-.5-1.94-1-3.81-1.46-5.54-1.65-1.86-4.53-5.13-6.09-7.15-2.27-2.94-4.54-9.12-6-5.62s-4.94,8.16-3.61,9.76,4.27,5.74,1.6,5.6-4.27-.26-6.54-1.73-1.86-2.27,0-3.87,3.74-9,3.74-9-10.41,2.57-8.27,3.64,4,4.1,2,4.05-6.27-.88-6.67,0,1.73,3.16.53,3.56-2.4-3.47-4.27-4.54S170,109,171,110s4,3.93,5.33,7,4.54,4.54,4.94,8.14.54,5.47-3.33.94A87.86,87.86,0,0,0,168,116c-3.2-2.81-9.74-6.81-8-3.74s6.54,9.41,6.54,9.41-6.8-5.54-9.34-7-2.8.8-1.2,2.54,5.74,4.67,3.2,5.74-5.07-.14-8.4-.14-7.48,1.34-6.28,2.27,2,4.21,1.34,4.91-.8.3-4.41,1-4.13,1.87-4.93,2.14-2.14,2.13-1.87,0c.08-.69.33-2.48.61-4.56a23.07,23.07,0,0,0-2.95,5.56,36.38,36.38,0,0,0-1,5.44A16.47,16.47,0,0,0,135.2,141.24Zm98,124.64s20.82-6.94,24.23-8.3,10.47-5.84,10.07-3.54c0,0,4.14-6.57,6.81-10s11.21-19.49,11.21-19.49-3.21,13.35-5.61,17.08-9.34,12.82-9.34,12.82,9.07-1.34,10.94,1.06-14.68,10.14-20.41,11.75-6.54-1.87-11.45-1.34-14.48,2.67-14.48,2.67Zm-3.47-21.35s8.76-6.25,14.19-2.65,11.44-2.69,17.18-5.32,14.81-2.44,14.81-2.44a139.88,139.88,0,0,1-14.81,7.47c-7.61,3.21-12.68,8.28-14.28,5.5s-4.27-2.56-8.81,0-7.21,2.56-7.21,2.56Zm-1.06-5.61s32.29-9.6,26.69-6.93-26.69,9.6-26.69,9.6Zm-3.47-11.47c13.88-7.48,22.15-8.54,17.35-5.07s-14.68,13.34-14.68,13.34Z" fill="#f6f7f6"/><path d="M261.05,262.81s6-6.47,6.4-8.77c0,0,4.14-6.57,6.81-10s11.21-19.49,11.21-19.49-3.21,13.35-5.61,17.08-9.34,12.82-9.34,12.82S266.52,262.41,261.05,262.81Z" fill="#a4a5a5"/><path d="M266.38,281.36c10.75-2.94,13.94-7.2,14.89-9.58,2.24.71,6.94,2.39,8,4.31,1.4,2.54,4.4,5.34,8,7.54a29.72,29.72,0,0,0,9.4,3.4c.61,0-3.6,6.61-3,7.61s3.81,2.2,9,1.2,18.42.75,22.22.38,3.4.42-3.6,2.82a47.17,47.17,0,0,0-11.61,5.81s9-2.2,16-3.8,26,3.8,26,3.8-20.82,3.2-27.82,4.6-23.42,10.21-23.42,10.21,31-10,44-10.21,17,1.8,17,1.8-13.81,5.41-22,7.21-43,13.61-43,13.61,34.64-8.6,38-9.81,27.82-7.14,27.82-7.14-1,3.74-9.61,5.94-20,8.61-20,8.61,15.41-3.6,19.21-4c0,0-12.21,8.6-20,11.41s-22.62,15-22.62,15,34.63-13.61,37.83-18.22,9.61-5.4,5.2,0-16.21,11-16.21,11l11.87-3.7a23.83,23.83,0,0,0-2.46,3.1c-1.79,2.89-23.82,6-30.83,8.81s-19.42,2.4-16.71,0,12.11-7.41,18.71-10.81,12.81-7,18.62-9.61-13.21,1.41-8.61-.8,18.82-10.61,18.82-10.61-43.24,12.61-51.65,15.42-13.21,2.4-18.81,1.8,35.43-12.81,43.63-15.61a31.45,31.45,0,0,0,13-8.68s-22.82,8.07-26.23,9.75-18.21,4.33-25.42,6.67-19.22,5.09-19.22,5.09,20.62-15.84,26.43-20.58-18.42,9.95-22.62,11.15a90.21,90.21,0,0,0-10.56,4.43c.24-.9.35-1.23.35-1.23s30.22-19,28-19.82-6.54,0-8.87,0-.74-9-2.94-7.2-11.61,13.61-11.61,13.61,2.2-15.82,2.4-19.82,4.41-6.2-3.2-3.4-11.41,2-17.41,5.2-8,4.61-9,3-2.4-3.61-6.61-2c-3.31,1.27-9.85,6.75-12.47,9h0a33.57,33.57,0,0,0-8.42-15.74S250.77,285.63,266.38,281.36Z" fill="#eaebeb"/><path d="M367.34,475.4c1,5.2,7.41,8.41,12.61,9.21s14.18,2.21,18.42,0a45.27,45.27,0,0,1,4.61-2c4.81,2.93,9.59,5.6,12.4,7.39,6.61,4.2,6.41,9.21-1,9.81-5.9.48-21.34-.95-29.19-2a29.63,29.63,0,0,0-8.84-5.25c-8-2.8-9.87-3.54-16.82-2a23.11,23.11,0,0,0-6.54,2.56c-1.73-3.23.31-9.74,1.54-13a80.47,80.47,0,0,0,4-14.36C362.51,468.86,366.81,472.67,367.34,475.4Z" fill="#a5a6a6"/><path d="M374.94,420.55c-7.8.8-13.81.4-19.81-3s-9-9-11.41-13-.4-7.21,4-15.62,6.81-16.21,12.81-25.62,14.61-20,16.22-26.42-5.41.2-10,1.6L363,339.64c2.53-3.33,4.38-6,4.38-6s-1.85,2.64-4.38,6l-5,1.54c2-2.23,4.34-4.3,4.34-4.3S360,339,358,341.18l-11.87,3.7s11.81-5.6,16.21-11-2-4.6-5.2,0-37.83,18.22-37.83,18.22,14.81-12.21,22.62-15,20-11.41,20-11.41c-3.8.4-19.21,4-19.21,4s11.41-6.4,20-8.61,9.61-5.94,9.61-5.94-24.42,5.94-27.82,7.14-38,9.81-38,9.81,34.84-11.81,43-13.61,22-7.21,22-7.21-4-2-17-1.8-44,10.21-44,10.21,16.41-8.81,23.42-10.21,27.82-4.6,27.82-4.6-19-5.41-26-3.8-16,3.8-16,3.8A47.17,47.17,0,0,1,331.31,299c7-2.4,7.4-3.2,3.6-2.82s-17-1.38-22.22-.38-8.41-.2-9-1.2,3.61-7.61,3-7.61a29.72,29.72,0,0,1-9.4-3.4c-3.61-2.2-6.61-5-8-7.54-1.06-1.92-5.76-3.6-8-4.31a4.52,4.52,0,0,0,.39-1.76s2.4-1.2,8,1.2,6.41,8.21,11,10.61,19.42,4.4,25.42,5.8,41.64,16,58,23.22,18.22,13.62,19.22,21.22,9.41,32.23,9.41,38.44,14,35.83,15.61,39.43-4.4,6.81-12.21,10.61c-3.24,1.58-8.7,3.78-14,5.82-2.93-1.13-6.37-2.32-10.25-3.42C378.55,419.15,382.75,419.75,374.94,420.55Z" fill="#e7e7e7"/><path d="M376.35,492.61a29.63,29.63,0,0,1,8.84,5.25c-2-.25-3.51-.48-4.24-.64-3.6-.8-19.42-1.4-25.22-2.2a3.49,3.49,0,0,1-2.74-1.85,23.11,23.11,0,0,1,6.54-2.56C366.48,489.07,368.34,489.81,376.35,492.61Z" fill="#5a5959"/><path d="M257.38,257.58c3.41-1.36,10.47-5.84,10.07-3.54s-6.4,8.77-6.4,8.77c5.47-.4,9.47-8.4,9.47-8.4s9.07-1.34,10.94,1.06-14.68,10.14-20.41,11.75-6.54-1.87-11.45-1.34-14.48,2.67-14.48,2.67l-2-2.67S254,258.94,257.38,257.58Z" fill="#ebecec"/><path d="M242.5,222.38c-4.81,3.47-14.68,13.34-14.68,13.34l-2.67-8.27C239,220,247.3,218.91,242.5,222.38Z" fill="#b3b4b4"/><path d="M255.31,232c-5.61,2.66-26.69,9.6-26.69,9.6v-2.67S260.91,229.32,255.31,232Z" fill="#b3b4b4"/><path d="M246.77,247.09c-1.61-2.78-4.27-2.56-8.81,0s-7.21,2.56-7.21,2.56l-1.07-5.12s8.76-6.25,14.19-2.65,11.44-2.69,17.18-5.32,14.81-2.44,14.81-2.44a139.88,139.88,0,0,1-14.81,7.47C253.44,244.8,248.37,249.87,246.77,247.09Z" fill="#b3b4b4"/><path d="M203.79,332.47c-1,3.21-5.2,4.42-7.2,1.81s-3.4-1.61,0-6,6.41-9.81,8.81-9.81c1.41,0,.2,5-1.61,6.81S204.8,329.27,203.79,332.47Z" fill="#e9eaea"/><path d="M249,302.29a56,56,0,0,1,14.5-4.4s-6.25,3.06-9.31,4.4-9.54,6.24-11.13,6.24S242.65,305.47,249,302.29Z" fill="#cbccce"/></g></g></svg>