<svg xmlns="http://www.w3.org/2000/svg" viewBox="0 0 417.02 570.67"><g id="Layer_2" data-name="Layer 2"><g id="レイヤー_1" data-name="レイヤー 1"><path d="M222.29,300c-5.45,1.75-22.2,8-21.61,8.18a70.57,70.57,0,0,0,17.72-1.36c6.12-1.25,12.69-7.16,15.95-10.44a16.36,16.36,0,0,1-5.68-1.66A11.51,11.51,0,0,1,222.29,300Z" fill="#d6d6d8"/><path d="M266.31,261.21a4.91,4.91,0,0,1,.18-4.88,25.57,25.57,0,0,0-8.36-.77,7.76,7.76,0,0,1-4.14-.43,7.74,7.74,0,0,1-.93,2.77c-1.36,2.14-3.28,4.67-3.1,5.65.13.69,6.07,10,9.61,17a28.64,28.64,0,0,0,.5-4.76c.2-6-1-12.85,0-17.13s1.17,6.62,6.63,7.79S268.25,265.1,266.31,261.21Z" fill="#474343"/><path d="M262.41,231.87c2.53.06,2.53,2.85,4.88,4s1.16-2.72,2.7-4a38.27,38.27,0,0,1-4.27-2.44c-2.92-2.15-4.09-5.82-7.58-1.85C259.37,229.62,261,231.83,262.41,231.87Z" fill="#949595"/><path d="M256.36,285.74c-4,1.37-18.05,4.91-19.26,3.71-1.37-1.37-5.85-13.05-14.61-28.05-4.26-7.29-9.63-19.18-14-29.48-4.63-10.88-8.18-20-8.18-20L190,219l-3.3,2.26L205.77,258l15.16,29.12s.78,1.36,4.68,5.26a13.09,13.09,0,0,0,3.06,2.31,16.36,16.36,0,0,0,5.68,1.66c1.12.16,2.29.3,3.52.51a24,24,0,0,0,15.39-3.12C256.5,291.93,256.63,288.36,256.36,285.74Z" fill="#282727"/><path d="M268.64,240.2c1.37-.18,3.31,2.12,3.12,5.82a5.42,5.42,0,0,0,5.06,6c2.73.2,3.12-4.67,3.12-6.62a19.4,19.4,0,0,0-1.33-4.75,17.77,17.77,0,0,1-4.51-5,7.64,7.64,0,0,0-1.17-1.57C271.61,238.67,267.53,240.34,268.64,240.2Z" fill="#999a9a"/><path d="M322.59,161.11c-5.46,3.5-7,5.45-13.44,9.74s-15,11.29-16,14,3.7,2.53,6.82,0,22.2-19.67,17.52-13.63S308,181,300.78,186.84s-12.66,11.47-12.27,14.58-2.53,12.27,5.65,5.65,15.76-19.67,14.7-10.71-3.22,18.3-4.19,20.64-5.84,10.52-5.45,1.75,6.62-16.35,1-12.46-6.24,12.46-11.88,13.44-15.58,1.1-6.42,3,6.62,4.22,17.52,4.22,10.91-3.7,21.62-9.93,13.05-12.07,15.77-13.44,18.7-9.93,23.37-15.77c2.59-3.23,4.93-8.9,6.51-13.32-3.89,2.09-8.72,3.11-12.54,4.17-9.16,2.53-9.55-4.87-13.44-8.77a20.61,20.61,0,0,1-5.06-9,86.64,86.64,0,0,1-7.82-5.4A16.15,16.15,0,0,1,322.59,161.11Z" fill="#f5f5f5"/><path d="M270.34,225.85c-.33-4.76-.52-9.63-3-12.35s-10.38-10.13-10.38-10.13l-10.66,1.17s.25.66.62,1.7A78,78,0,0,1,250,216.81c.6,3.49,4.11,11,5.64,14.12a27.59,27.59,0,0,1,2.53-3.3h0c3.49-4,4.66-.3,7.58,1.85a38.27,38.27,0,0,0,4.27,2.44l.46.27A62.48,62.48,0,0,0,270.34,225.85Z" fill="#242222"/><path d="M289.87,261.48c-.34-2.32-7.52-15.06-9.84-19.79h0s-.59-.37-1.42-1a19.4,19.4,0,0,1,1.33,4.75c0,1.95-.39,6.82-3.12,6.62a5.42,5.42,0,0,1-5.06-6c.19-3.7-1.75-6-3.12-5.82-1.11.14,3-1.53,4.29-6.07a10.72,10.72,0,0,0-2.48-1.95l-.46-.27c-1.54,1.26-.36,5.15-2.7,4s-2.35-4-4.88-4c-1.38,0-3-2.25-4.27-4.25h0a27.59,27.59,0,0,0-2.53,3.3,63.45,63.45,0,0,0-3.7,7.1c-1.76,3.51-2.93,6.09-.78,10.45,1.51,3.07.9,5.62,2.87,6.65a7.76,7.76,0,0,0,4.14.43,25.57,25.57,0,0,1,8.36.77,4.45,4.45,0,0,1,4.1-2.33c2.73.39,5.84,3.7,9.74,7.6s4.28,12.07,8.18,12.46c1.38.14,2-1.09,2.2-2.83C291.09,268.07,290.12,263.19,289.87,261.48Zm-32.52-27.37c.19-2.36,4.87.61,6,2,0,0,4.81,0,3.93,1.92s-4.88.78-8.19,0S257.15,236.48,257.35,234.11Zm10,14.37c-1.25,3.24-3.23-1.1-2.64-3.43s-1.56-.2-6.43-1.17.2-1.95,3.83-2a6.14,6.14,0,0,1,5.14-.53C270.21,242.32,268.64,245.24,267.39,248.48Z" fill="#565454"/><path d="M250,263.55s-3.13-1-6.05,2.82-5.45,7.25-8,7.18-3.51-4-1-6.31,13.64-4,11.3-8.32-16.75-29.66-18.5-33.07-1-9.07-3.31-7.11-1,5.66-4.09,2.74-5.46-7.6-6.62-5.45c-.85,1.55-3.72,10.39-5.26,15.89,4.39,10.3,9.76,22.19,14,29.48,8.76,15,13.24,26.68,14.61,28.05,1.21,1.2,15.29-2.34,19.26-3.71a4.43,4.43,0,0,0,1-.41c.8-.54,1.67-2,2.22-4.76C256,273.59,250.09,264.24,250,263.55Z" fill="#e2e2e3"/><path d="M67.86,68.61c5.46-8.18,5.46-21.81,5.46-21.81H69.81l-4.41-.56a46.1,46.1,0,0,1-5.72,4.45C56.18,53,48,49.52,42.94,47.57s-11.3-9.34-15.58-14c-1.74-1.89-4.69-3.14-7.58-4,3,3.8,6.47,8.63,9.91,12.53,5.85,6.62,26.88,40.12,26.88,40.12A85,85,0,0,0,67.86,68.61Z" fill="#6d6c6c"/><path d="M217.82,159c-15.58,5.06-16.36,1.17-20.26-3.51s-21.7-14.52-22.18-14.79A60.52,60.52,0,0,1,170,159.6a50.27,50.27,0,0,0,2.06,5.41c1.95,4.28,1,8,4.87,5.06S185.68,165,188.6,166a10.92,10.92,0,0,1,3.55,2,7.21,7.21,0,0,1,2.69,5,23.87,23.87,0,0,0,1.31,5.83c1.11,3.27,2.84,6.69,4.92,8.19,3.5,2.53.58,6.23,9.74,4.67s26.29-9.34,34.66-19.47c5.71-6.9,23.63-22,34.47-31C261.19,147.32,232.92,154.06,217.82,159Z" fill="#efefef"/><path d="M254,171.82c-9.54,6.62-9.93,11.69-15.19,16.16s-23.18,11.69-6.82,8.77,28.13-17.92,24.87-11.3-8.7,10.32-9.68,12,6.23,1.65,10.91-2.44,35.05-16.55,42.06-22.2,7.6-6.62,11.88-10.51,17.92-4.87,10.13-9.93c-3.86-2.51-7.29-10.95-9.77-18.82-7.36-.74-14.61,1.68-25.48,5.36a89.47,89.47,0,0,1-10.32,12.48C270.2,157.6,263.58,165.2,254,171.82Z" fill="#ebecec"/><path d="M147.51,139.46c2.15,1.2,3.12,4.71,6.24,8,1.55,1.65,3.55,1.17,5.15.17-3.67-4.45-7.72-9.34-11.17-13.47C147,136.34,146.36,138.82,147.51,139.46Z" fill="#c2c1c2"/><path d="M192.15,168a64.86,64.86,0,0,0-3.67,9.12c-1.48,5.13-5,6.48-3,11.2s1.82,8.63,3.54,5,2.53-6.88,4.15-6.88c1,0,2.21-4.39,3-7.61a23.87,23.87,0,0,1-1.31-5.83A7.21,7.21,0,0,0,192.15,168Z" fill="#9fa0a0"/><path d="M122,133.65c-5.84,7.79.78,9.35-3.11,12.46s-4.29,11.69,0,7.4,1.6-11.67,6.64-17.32c4.27-4.79,9.59-13.2,11.12-15.66-.9-.29-1.9-.65-3-1.1C131.22,122.24,126.21,128,122,133.65Z" fill="#828384"/><path d="M120.83,108.72a27.68,27.68,0,0,0,12.86,10.71l1.55-1.75-1.55,1.75c1.06.45,2.06.81,3,1.1l.45-.72-.45.72c.65.2,1.23.36,1.76.5-.8-5,2.29-9.58,2.29-9.58s-25.32-25.71-36.23-39.34a63.79,63.79,0,0,0-12.4-11.7c1.18,8.33,5.44,21.1,11.24,28.06C111.1,97.82,113.82,97.43,120.83,108.72Z" fill="#e2e2e3"/><path d="M42.94,47.57c5.06,2,13.24,5.46,16.74,3.12a46.1,46.1,0,0,0,5.72-4.45L63.58,46c0-4.29-12.07-11.3-12.07-11.3s12.85,1.56,14-3.11-12.08-3.12-12.08-3.12S64,27.32,64.36,23.82s-4.29-3.51-4.29-3.51c1.56-4.28-8.56-3.89-10.9-3.51s.78-5.06,3.5-6.23,1.56-3.5-3.11-2.33S28.91,8.63,21.13,4,3.6-3.06.48,7.46s9.74,14,13.63,16.36c1.61,1,3.54,3.11,5.67,5.77,2.89.82,5.84,2.07,7.58,4C31.64,38.23,37.87,45.63,42.94,47.57Z" fill="#9fa0a0"/><path d="M175.36,140.66c-3.89-5.06-9-21-10.51-30s-9.74,0-9.74,0c-9.74-10.9-14.41.78-14.41.78s-3.09,4.63-2.29,9.58a9.47,9.47,0,0,0,2.29,4.83c1.4,1.6,4,4.66,7,8.32,3.45,4.13,7.5,9,11.17,13.47,5.79,7,10.62,12.88,10.62,12.88l.47-.93a60.52,60.52,0,0,0,5.39-18.93Z" fill="#a6a7a7"/><path d="M208.47,231.92c1.54-5.5,4.41-14.34,5.26-15.89,1.16-2.15,3.5,2.53,6.62,5.45s1.75-.78,4.09-2.74,1.56,3.71,3.31,7.11,16.16,28.74,18.5,33.07-8.77,6-11.3,8.32-1.56,6.24,1,6.31,5.06-3.38,8-7.18,6.05-2.82,6.05-2.82c-.18-1,1.74-3.51,3.1-5.65a7.74,7.74,0,0,0,.93-2.77c-2-1-1.36-3.58-2.87-6.65-2.15-4.36-1-6.94.78-10.45a63.45,63.45,0,0,1,3.7-7.1c-1.53-3.14-5-10.63-5.64-14.12a78,78,0,0,0-3.09-10.57c-3.26.54-8.9,1.6-11.32,2.71-3.51,1.62-5.4,2.7-10.25,2s-4.72-.95-9.58-1.76-6.47-2.42-11.06-4.85-7.68-2.91-15.24-5.9-10.92-6.65-11.19-7.59-3.64-5.26-12.41-8.09-9-1.35-9.44,2.56-4.18,13.55-.4,13.12S162,180,162.31,185s.68,11.06.41,19.55-2.56,17.48.27,22.43,4.72,17.76,6.74,6.3,4.18-21.15,2.29-29.86-10.11-22.44,1.35-8.63A173.47,173.47,0,0,1,190,219l10.33-7.08S203.84,221,208.47,231.92Z" fill="#9fa0a0"/><path d="M373.05,167.37c1.17,4.4,2.16,10.86-1.39,14.77-5.64,6.23-12.81,22.59-19.45,26.88s-22.61,9.54-20.66,12.46,7.79,3.12,12.46,0,15.42-9.54,8.2-2.14-20.86,14-8.79,10.13,13.05-7.79,17.73-11.5,4.67,2.15.77,5.07-20.64,17.69-5.45,7.58,11.88-11.28,22.79-19.07,13.63-5.26,9.15-2-13.63,6-14.41,9.15,7.21-2.33,8.57-1.75-6,6.23-10.32,7.6-26.1,11.68-12.66,8.18,12-4.68,21.84-9.35c5.05-2.38,10.55-7.19,14.61-10.92-1.17-8-6-18.47-11.52-27.45-7.41-12.07-6.63-16-8.18-20.64a38.8,38.8,0,0,0-4.2-8C373.77,161.06,373.9,164.6,373.05,167.37Z" fill="#f5f5f5"/><path d="M372.25,249.72c-5.07,1.95-5.26,4.87-16,7.59s-10.13,5.46-18.11,3.51-10.54-4.48-14.71-6.82-10-1.87-10.8-2.3-11.3-3.54-16.36-5.68-3.31-3.31-9.55-4.09-8.17-4.05-7.39-1.73a12.51,12.51,0,0,0,.67,1.49c2.32,4.73,9.5,17.47,9.84,19.79.25,1.71,1.22,6.59.84,9.75,1.9.3,4.46.68,6.76.88,4.28.39,4.67-2.14,8.95-4.09s16.17,4.09,19.84,3.12,8-7,9.38-7.21,1.94,7,5.45,9.16,5.65-3.7,12.85-7,10.91-7.21,17.35-10.72c2.46-1.33,5.26-2.61,7.85-3.7,1.41-2,2.87-4.32,4.3-6.72C379.69,246.66,375,248.65,372.25,249.72Z" fill="#f1f3f3"/><path d="M205.77,258a114.25,114.25,0,0,0-5.11,15.56c-2.58,10.57-4.14,19.14-5.95,25.37-1.17,4-1.48,10.88-1.35,15.71a56.4,56.4,0,0,1,8.88-11c6.23-6.23,18.69-16.55,18.69-16.55Z" fill="#dcdcdd"/><path d="M352.77,236.86c-3.5,2.54-17.52,2.93-6,3.32s24.14-4.48,28.62-4.87,5.07,0,3.9,2.14,6.23-3.51,7.2-5.26,2.15-5.65-1.75-3.7c-3.41,1.71,1.11-2.57,9.75-5.1.6-1.45,1.06-2.69,1.35-3.66a9.39,9.39,0,0,0,.21-.95c-3.27,2.38-8,5.4-12.67,8.15C375.36,231.61,356.28,234.33,352.77,236.86Z" fill="#d3d3d5"/><path d="M415.29,113c3.89-3.51,0-13.24,0-13.24-4.29,10.51-7.4-.78-8.18-3.9s-9.35-14-16-16.75S374,79.9,374,79.9s-7-8.18-24.54-3.5c-7.88,2.1-13.69,7.19-17.94,12.8,2.94,1.16,6,1.92,8.2,1.22,5.46-1.75,14.81.78,16.75,5.45s1.56,3.51,3.31,12.46,5.07,7.6,3.31,13.64,4.48,2.53,8.38-1.17,10.51-3.51,9.93-.59c-.29,1.44-.67,5-1,8.37,4.06-3.5,6.5-10.43,6.5-10.43s3.9,10,7,11.61,7.4-7.4,7.4-7.4c1.56,3.89,9.35,3.11,9.35,3.11-4.28.39-4.28-10.13-4.28-10.13A10.78,10.78,0,0,0,415.29,113Z" fill="#343232"/><path d="M240.41,557c1.16,9,23.75,7.79,36.22,7.4s29.6,8.18,38.17,5.85-.39-8.18-.39-8.18c-2.34-5.85-14.8-5.85-26.1-11.69s-19.86-8.18-19.86-22.59c0-2.86.06-6.63.17-10.95a174.53,174.53,0,0,1-27.05-6.58C245.47,532.87,239.24,548.06,240.41,557Z" fill="#757474"/><path d="M371.47,120.8c-3.9,3.7-10.13,7.2-8.38,1.17s-1.55-4.68-3.31-13.64-1.36-7.79-3.31-12.46-11.29-7.2-16.75-5.45c-2.17.7-5.26-.06-8.2-1.22a64.8,64.8,0,0,0-9.32,18.36c-2.34,7,4.28,9.73,2.34,14.8S321.42,136,321.42,136s.43,10.44,1.56,14.21c.44,1.49,2.5,3.47,4.83,5.32a87,87,0,0,0,7.82,5.39,20.7,20.7,0,0,0,5.07,9c3.89,3.9,4.28,11.3,13.44,8.77,3.82-1.06,8.65-2.08,12.54-4.17,2.95-1.59,5.36-3.79,6.37-7.1.85-2.77.72-6.31-.91-10.92-1.14-1.74-2-2.94-2-2.94l.38-7.4c.39-7.4,3.12-13.63,8.18-16.35a10,10,0,0,0,1.68-1.18c.38-3.4.76-6.93,1-8.37C382,117.29,375.36,117.1,371.47,120.8Z" fill="#bebebe"/><path d="M267.54,432.78c-.26.91-10.65-.78-11-.78s4.68-39.6,4.81-43.11,5.19-30.12,5.19-30.12c-.1-1.11-.83-3.46-1.66-6.61a30.81,30.81,0,0,1-8.79-2.6c-5.13-2.6-9.15-13-14.09-7.53s-5.19,11.42-16.61,16.74-.26-2.2,3.89-8.69,8.57-7,13.24-13,6.75-15.06,9.25-23.37-11.06,16.36-17.82,14.54-5.45-2.07-17.46-6.75-12.4-3.63-9-1.59,7.21,10.68,1,13.28-3.16,3.89,2.3,11.16,6.75,16.88,7.75,22.07-11.39-11.16-11.07-13c.26-1.42-7.33-8.84-11.59-11.9,3.5,8.43,9.2,22.3,9.84,41,.78,22.59-3.11,37.78-3.11,48.3s-2.73,19.47-1.95,28.82.78,30-.39,38.56,2.72,9.35,10.52,9.74,30.76,2.33,30.76,2.33a174.53,174.53,0,0,0,27.05,6.58c.45-17.43,1.7-43.87,2.94-56a216.23,216.23,0,0,0,.39-31.94c6.24-11.29,1.95-33.49,1.95-33.49s0-.26.07-.69h0S267.8,431.87,267.54,432.78Zm-19.61-76.47c-4.93-.78-2.07,1.55-2.59,3.89s-5.45-1-6.75-3.11.78-6.75,3.37-9.35,4.68.78,10.91,3.89,10.39,7.27,11.16,8.57a4.84,4.84,0,0,1-5.71,2.86C254.17,362,252.87,357.09,247.93,356.31Z" fill="#d0d0d1"/><path d="M352.77,236.86c3.51-2.53,22.59-5.25,30.58-9.93,4.7-2.75,9.4-5.77,12.67-8.15a18.47,18.47,0,0,0,0-6.27c-4.06,3.73-9.56,8.54-14.61,10.92-9.89,4.67-8.4,5.84-21.84,9.35S368,226,372.25,224.6s11.68-7,10.32-7.6-9.35,4.87-8.57,1.75,9.93-5.84,14.41-9.15,1.75-5.84-9.15,2-7.6,9-22.79,19.07S358,226,361.92,223s3.9-8.77-.77-5.07-5.65,7.6-17.73,11.5,1.56-2.73,8.79-10.13-3.53-1-8.2,2.14-10.52,2.92-12.46,0,14-8.18,20.66-12.46,13.81-20.65,19.45-26.88c3.55-3.91,2.56-10.37,1.39-14.77-1,3.31-3.42,5.51-6.37,7.1-1.58,4.42-3.92,10.09-6.51,13.32-4.67,5.84-20.64,14.41-23.37,15.77S331.74,210.77,321,217s-10.71,9.93-21.62,9.93-8.37-2.33-17.52-4.22.77-2,6.42-3,6.23-9.54,11.88-13.44-.58,3.7-1,12.46,4.48.59,5.45-1.75,3.12-11.68,4.19-20.64-6.53,4.09-14.7,10.71-5.26-2.53-5.65-5.65,5.06-8.76,12.27-14.58,12.07-9.57,16.74-15.6-14.41,11.1-17.52,13.63-7.79,2.72-6.82,0,9.54-9.74,16-14,8-6.24,13.44-9.74a16.15,16.15,0,0,0,5.23-5.59c-2.34-1.85-4.4-3.83-4.84-5.32-1.13-3.77-1.56-14.21-1.56-14.21a29.39,29.39,0,0,0-9-2.46c2.48,7.87,5.91,16.31,9.77,18.82,7.79,5.06-5.84,6-10.13,9.93s-4.87,4.87-11.88,10.51S262.8,190.91,258.13,195s-11.88,4.09-10.91,2.44,6.43-5.36,9.68-12-8.51,8.38-24.87,11.3,1.56-4.29,6.82-8.77,5.65-9.54,15.19-16.16,16.16-14.22,22.59-20.45A89.47,89.47,0,0,0,287,138.89l-5.26,1.77-1.75.57c-10.84,8.94-28.76,24.08-34.47,31-8.37,10.13-25.51,17.92-34.66,19.47s-6.24-2.14-9.74-4.67c-2.08-1.5-3.81-4.92-4.92-8.19-.74,3.22-1.92,7.61-3,7.61-1.62,0-2.43,3.24-4.15,6.88s-1.51-.27-3.54-5,1.49-6.07,3-11.2a64.86,64.86,0,0,1,3.67-9.12,10.92,10.92,0,0,0-3.55-2c-2.92-1-7.79,1.17-11.68,4.09s-2.92-.78-4.87-5.06A50.27,50.27,0,0,1,170,159.6l-.47.93s-4.83-5.89-10.62-12.88c-1.6,1-3.6,1.48-5.15-.17-3.12-3.31-4.09-6.82-6.24-8-1.15-.64-.56-3.12.22-5.28-3.06-3.66-5.63-6.72-7-8.32a9.47,9.47,0,0,1-2.29-4.83c-.53-.14-1.11-.3-1.76-.5-1.53,2.46-6.85,10.87-11.12,15.66-5,5.65-2.36,13-6.64,17.32s-3.9-4.28,0-7.4-2.73-4.67,3.11-12.46c4.21-5.61,9.22-11.41,11.69-14.22a27.68,27.68,0,0,1-12.86-10.71c-7-11.29-9.73-10.9-17.52-20.25-5.8-7-10.06-19.73-11.24-28.06-6.86-5.06-12.94-8.18-15.64-12.84-4.28-7.4-6.62-.77-6.62-.77h3.51s0,13.63-5.46,21.81A85,85,0,0,1,56.57,82.24l-10.52,14s51.41,69.33,63.49,80.62,12.46,21,16.75,29.61,15.19,18.3,21.81,33.1,19.08,35.83,24.15,49.47c3.77,10.16,12.53,27.69,17.87,39a56.83,56.83,0,0,0,1-7.09,14.56,14.56,0,0,1,2.22-6.36c-.13-4.83.18-11.7,1.35-15.71,1.81-6.23,3.37-14.8,5.95-25.37A114.25,114.25,0,0,1,205.77,258l-19.11-36.71L190,219a173.47,173.47,0,0,0-16.59-24.28c-11.46-13.81-3.23-.08-1.35,8.63s-.26,18.4-2.29,29.86-3.91-1.35-6.74-6.3-.54-13.93-.27-22.43-.14-14.56-.41-19.55S159.75,198,156,198.47s0-9.21.4-13.12.68-5.39,9.44-2.56,12.14,7.15,12.41,8.09,3.64,4.59,11.19,7.59,10.66,3.47,15.24,5.9,6.21,4,11.06,4.85,4.72,1.08,9.58,1.76,6.74-.41,10.25-2c2.42-1.11,8.06-2.17,11.32-2.71-.37-1-.62-1.7-.62-1.7l10.66-1.17s7.84,7.4,10.38,10.13,2.72,7.59,3,12.35a62.48,62.48,0,0,1,.11,6.33,10.72,10.72,0,0,1,2.48,1.95,7.64,7.64,0,0,1,1.17,1.57,17.77,17.77,0,0,0,4.51,5c.83.64,1.42,1,1.42,1h0a12.51,12.51,0,0,1-.67-1.49c-.78-2.32,1.16,1,7.39,1.73s4.48,1.95,9.55,4.09,15.58,5.26,16.36,5.68,6.62,0,10.8,2.3,6.72,4.87,14.71,6.82,7.4-.78,18.11-3.51,10.9-5.64,16-7.59c2.76-1.07,7.44-3.06,11.19-4.78a178.25,178.25,0,0,0,11-21.55c-8.64,2.53-13.16,6.81-9.75,5.1,3.9-2,2.73,1.95,1.75,3.7s-8.37,7.4-7.2,5.26.58-2.53-3.9-2.14-17.13,5.26-28.62,4.87S349.27,239.4,352.77,236.86ZM78,95.87c-2.34-16.36,2.73-26.09,2.73-26.09s.78,24.53,3.5,37,10.91,35.05,10.91,35.05S80.33,112.23,78,95.87Zm51.19,51.41c-4.7,2.53-5,14.61-7,14.41s-.78-5.25,2.92-14.21,12-8,12-8S133.88,144.75,129.18,147.28Zm9.09-1.94c-.86-5.65,6.13-11.69,6.13-11.69a123.52,123.52,0,0,0-3.1,15C140.73,154.29,139.14,151,138.27,145.34ZM150,171.82c-3.5,5.26-2.33,7.6-5.64,5.65s.39-5.45,4.68-9.15.58-6.63-2-2.54.47-7.2.08-11.09.39-6.24,5.07-7.21c0,0-.2,5.65,1.75,5.84s-1.17,3.7.78,5.45S153.55,166.56,150,171.82Zm206.82,82c-4.87,1.36-5.06,2.92-12.85,4.67s-9.15-2.14-14.8-4.09-1.75-3.31,0-3.31,10.13,3.7,15.58,3.9-2.73-4.68-1.37-4.67,7.6-.2,12.66,0,5.84-2.33,6-3.89c0-.15-.14-.25-.43-.3a22.88,22.88,0,0,1,5.05.69C370.19,248,361.73,252.44,356.86,253.81ZM358,243.1c8.37-.78,13.05-3.51,16.36-5.07,0,0,3.31.2,2.34,2.17s-5.85,1.92-13.05,4.26c-3.6,1.17-3.7,1.46-2.47,1.61-3.78-.18-18.24,2.69-19.93.34C339.34,243.68,349.66,243.88,358,243.1Z" fill="#c2c1c2"/><path d="M80.72,69.78S75.65,79.51,78,95.87s17.14,46,17.14,46S87,119.24,84.22,106.78,80.72,69.78,80.72,69.78Z" fill="#c2c2c2"/><path d="M125.12,147.48c-3.7,9-4.87,14-2.92,14.21s2.28-11.88,7-14.41,7.92-7.79,7.92-7.79S128.82,138.52,125.12,147.48Z" fill="#7b7b7b"/><path d="M138.27,145.34c.87,5.64,2.46,8.95,3,3.31a123.52,123.52,0,0,1,3.1-15S137.41,139.69,138.27,145.34Z" fill="#7b7b7b"/><path d="M153.94,153.32c-1.95-.19-1.75-5.84-1.75-5.84-4.68,1-5.46,3.32-5.07,7.21s-2.7,15.18-.08,11.09,6.33-1.17,2,2.54-8,7.2-4.68,9.15,2.14-.39,5.64-5.65,6.62-11.29,4.68-13S155.89,153.51,153.94,153.32Z" fill="#7b7b7b"/><path d="M341.28,246.41c1.69,2.35,16.15-.52,19.93-.34-1.23-.15-1.13-.44,2.47-1.61,7.2-2.34,12.07-2.29,13.05-4.26s-2.34-2.17-2.34-2.17c-3.31,1.56-8,4.29-16.36,5.07S339.34,243.68,341.28,246.41Z" fill="#d8d8d9"/><path d="M362.12,246.41c-.2,1.56-1,4.09-6,3.89s-11.29,0-12.66,0,6.82,4.86,1.37,4.67-13.83-3.9-15.58-3.9-5.65,1.36,0,3.31,7,5.84,14.8,4.09,8-3.31,12.85-4.67,13.33-5.84,9.88-7a22.88,22.88,0,0,0-5.05-.69C362,246.16,362.14,246.26,362.12,246.41Z" fill="#e1e1e1"/><path d="M259.1,238c3.31.78,7.3,1.95,8.19,0s-3.93-1.92-3.93-1.92c-1.14-1.39-5.82-4.36-6-2S255.79,237.25,259.1,238Z" fill="#676565"/><path d="M262.15,241.88c-3.63.05-8.7,1-3.83,2s7-1.17,6.43,1.17,1.39,6.67,2.64,3.43,2.82-6.16-.1-7.13A6.14,6.14,0,0,0,262.15,241.88Z" fill="#a3a4a4"/><path d="M236.45,312c-7.21.93-16,1.71-10.33,6.65s6,9.25,11,7-3.73-8.49-2.69-8.4,6.6-3,11.95-3.29,3.57-5.72,3.57-5.72C247.68,309.57,243.67,311.07,236.45,312Z" fill="#7b7b7b"/><path d="M264,360.2c-.77-1.3-4.93-5.45-11.16-8.57s-8.31-6.49-10.91-3.89-4.67,7.27-3.37,9.35,6.23,5.45,6.75,3.11-2.34-4.67,2.59-3.89,6.24,5.71,10.39,6.75A4.84,4.84,0,0,0,264,360.2Z" fill="#d6d6d8"/><path d="M371.29,255.36c-6.44,3.51-10.14,7.41-17.35,10.72s-9.35,9.15-12.85,7-4.09-9.35-5.45-9.16-5.7,6.24-9.38,7.21-15.55-5.06-19.84-3.12-4.67,4.48-8.95,4.09c-2.3-.2-4.86-.58-6.76-.88-.2,1.74-.82,3-2.2,2.83-3.9-.39-4.29-8.57-8.18-12.46s-7-7.21-9.74-7.6a4.45,4.45,0,0,0-4.1,2.33,4.91,4.91,0,0,0-.18,4.88c1.94,3.89,5.84,6.42.39,5.26s-5.65-12.08-6.63-7.79.2,11.1,0,17.13a28.64,28.64,0,0,1-.5,4.76c-.55,2.76-1.42,4.22-2.22,4.76a4.43,4.43,0,0,1-1,.41c.27,2.62.14,6.19-3.1,8a24,24,0,0,1-15.39,3.12c-1.23-.21-2.4-.35-3.52-.51-3.26,3.28-9.83,9.19-15.95,10.44a70.57,70.57,0,0,1-17.72,1.36c-.59-.19,16.16-6.43,21.61-8.18a11.51,11.51,0,0,0,6.38-5.28,13.09,13.09,0,0,1-3.06-2.31c-3.9-3.9-4.68-5.26-4.68-5.26s-12.46,10.32-18.69,16.55a56.4,56.4,0,0,0-8.88,11,14.56,14.56,0,0,0-2.22,6.36,56.83,56.83,0,0,1-1,7.09c1.82,3.86,3.24,7,3.94,8.88.47,1.28,1.11,2.82,1.84,4.59,4.26,3.06,11.85,10.48,11.59,11.9-.32,1.82,12.07,18.18,11.07,13s-2.3-14.8-7.75-22.07-8.49-8.57-2.3-11.16,2.42-11.23-1-13.28-3.05-3.08,9,1.59,10.71,4.94,17.46,6.75,20.32-22.85,17.82-14.54-4.57,17.4-9.25,23.37-9.09,6.49-13.24,13-15.32,14-3.89,8.69S237,347.48,242,342s9,4.93,14.09,7.53a30.81,30.81,0,0,0,8.79,2.6,89.68,89.68,0,0,1-2.21-10.33c-1.19-8.18-1.39-12.66-3.92-18.11s-1.24-4.09-2.66-6-.45-8.76-1-11.49-6.42-2.21-1-5.58,11.68-10.74,11.68-10.74l10.91-8.8h8l5.24,3.09c0-.47,0-.73,0-.73s19.86,6.79,34.66,4.85,40.9-23.37,48.3-29.21a36.7,36.7,0,0,0,6.31-7.41C376.55,252.75,373.75,254,371.29,255.36ZM246.38,314c-5.35.26-10.91,3.38-11.95,3.29s7.68,6.16,2.69,8.4-5.28-2.08-11-7,3.12-5.72,10.33-6.65,11.23-2.44,13.5-3.75C250,308.26,251.73,313.72,246.38,314Z" fill="#babbbb"/><path d="M279.94,308.26c-2.34,9.23-13.44,50.51-13.44,50.51s-5.06,26.62-5.19,30.12S256.11,432,256.5,432s10.78,1.69,11,.78S274,394.7,274,394.7h0c.55-5.16,4.28-39.59,9.67-64.75a280.11,280.11,0,0,0,6.21-45.79l-5.24-3.09S282.28,299,279.94,308.26Z" fill="#1b1a1a"/></g></g></svg>